<svg xmlns="http://www.w3.org/2000/svg" width="16" height="16" viewBox="0 0 16 16">
    <path fill="#000" fill-rule="nonzero" d="M15.095 15.33l-4.754-5.188A5.958 5.958 0 0 0 12 6c0-1.602-.624-3.11-1.758-4.242A5.963 5.963 0 0 0 6.001 0C4.398 0 2.89.624 1.758 1.758A5.963 5.963 0 0 0 .001 6c0 1.602.624 3.11 1.757 4.242A5.963 5.963 0 0 0 6.001 12c1.38 0 2.69-.463 3.75-1.316l4.755 5.186a.398.398 0 0 0 .565.025.4.4 0 0 0 .025-.565zM.8 6C.8 3.133 3.133.8 6 .8s5.2 2.333 5.2 5.2-2.333 5.2-5.2 5.2A5.206 5.206 0 0 1 .8 6z"/>
</svg>
