<?xml version="1.0" encoding="UTF-8"?>
<svg width="103px" height="18px" viewBox="0 0 103 18" version="1.1" xmlns="http://www.w3.org/2000/svg" xmlns:xlink="http://www.w3.org/1999/xlink">
    <!-- Generator: Sketch 57.1 (83088) - https://sketch.com -->
    <title>logo</title>
    <desc>Created with Sketch.</desc>
    <g id="Desktop" stroke="none" stroke-width="1" fill="none" fill-rule="evenodd">
        <g id="Landing-v2" transform="translate(-90.000000, -15.000000)">
            <g id="Group-27" transform="translate(0.000000, -0.000000)">
                <g id="logo" transform="translate(90.000000, 15.000000)">
                    <path d="M91.4613319,8.05450213 C91.5008553,8.05450213 91.5376826,8.07362043 91.5606368,8.10460187 L91.5750766,8.12994894 L93.1675021,11.8659064 L94.7587787,8.12994894 C94.7744043,8.09348936 94.8064519,8.06707915 94.844137,8.05797345 L94.8732894,8.05450213 L96.4412043,8.05450213 C96.4833319,8.05450213 96.5227787,8.07594894 96.5453745,8.11118298 C96.5637574,8.13937021 96.56964,8.17319489 96.5624339,8.20520579 L96.554566,8.22875745 L94.0479702,13.8730979 L94.0479702,17.3463319 C94.0479702,17.4083745 94.0130801,17.4616945 93.9635586,17.4804861 L93.9376723,17.4868851 L92.4233745,17.6772255 C92.3593691,17.6852681 92.3024011,17.6361331 92.2891591,17.5672792 L92.2862681,17.5366723 L92.2862681,13.8727149 L89.7796723,8.22875745 C89.7624383,8.19045957 89.7662681,8.14641702 89.7884809,8.11118298 C89.8068638,8.08299574 89.8357864,8.06363234 89.8679934,8.05701447 L89.8926511,8.05450213 L91.4613319,8.05450213 Z M22.7259957,8.05450213 C22.7655191,8.05450213 22.8023464,8.07362043 22.8253006,8.10460187 L22.8397404,8.12994894 L24.432166,11.8659064 L26.0234426,8.12994894 C26.0390681,8.09348936 26.0708706,8.06707915 26.1086538,8.05797345 L26.1379532,8.05450213 L27.7058681,8.05450213 C27.7479957,8.05450213 27.7874426,8.07594894 27.8100383,8.11118298 C27.8284213,8.13937021 27.8343038,8.17319489 27.8270977,8.20520579 L27.8192298,8.22875745 L25.312634,13.8730979 L25.312634,17.3463319 C25.312634,17.4083745 25.2777439,17.4616945 25.2282224,17.4804861 L25.2023362,17.4868851 L23.6880383,17.6772255 C23.624033,17.6852681 23.5670649,17.6361331 23.553823,17.5672792 L23.5509319,17.5366723 L23.5509319,13.8727149 L21.0443362,8.22875745 C21.0271021,8.19045957 21.0305489,8.14641702 21.0531447,8.11118298 C21.0715277,8.08299574 21.1004502,8.06363234 21.1326572,8.05701447 L21.1573149,8.05450213 L22.7259957,8.05450213 Z M40.1216553,8.05228085 C42.1506766,8.05228085 43.7400383,9.65389787 43.7400383,11.6982383 C43.7400383,11.8847489 43.7254851,12.0731745 43.6971447,12.2416851 C43.6886097,12.2928948 43.6496866,12.3322869 43.6003929,12.3424967 L43.5749745,12.3450894 L38.3798681,12.3450894 C38.5974,13.1187064 39.3242936,13.6656 40.1634,13.6656 C40.8428043,13.6656 41.3582936,13.4511319 41.6141234,13.0616426 C41.6325064,13.0337617 41.6611838,13.0144596 41.6930967,13.007854 L41.7175277,13.0053447 L43.5202085,13.0053447 C43.5604213,13.0053447 43.5987191,13.0252596 43.6216979,13.0589617 C43.6450596,13.0922809 43.6500383,13.1347915 43.6362511,13.1727064 C43.151017,14.4717702 41.7550596,15.3445787 40.1634,15.3445787 C38.111017,15.3445787 36.5036553,13.7429617 36.5036553,11.6982383 C36.5036553,9.65389787 38.093017,8.05228085 40.1216553,8.05228085 Z M79.6418874,3.44929413 L79.6692255,3.44968085 L81.1532681,3.62968085 C81.2067757,3.63591793 81.2490284,3.67591967 81.2600086,3.72701551 L81.2628,3.75338298 L81.2628,15.2201489 C81.2628,15.2804681 81.2205766,15.3305246 81.1638389,15.3420962 L81.1387149,15.344617 L79.625566,15.344617 C79.5655819,15.344617 79.5155673,15.3021004 79.5040009,15.2452894 L79.5014809,15.2201489 L79.5014809,14.696617 C79.0920766,15.0244468 78.4701191,15.344617 77.6030553,15.344617 C75.4553106,15.344617 74.0670128,13.9134255 74.0670128,11.6982766 C74.0670128,9.48351064 75.4553106,8.05231915 77.6030553,8.05231915 C78.3314809,8.05231915 79.0189277,8.28593617 79.5014809,8.68576596 C79.5014809,8.66738298 79.5065872,8.65019149 79.5148709,8.63430496 L79.5294383,8.61146809 L79.5294383,3.57338298 C79.5294383,3.51737234 79.5662761,3.470625 79.6160394,3.45462965 L79.6418874,3.44929413 Z M70.7580766,8.15457447 C72.5366298,8.15457447 73.5162894,9.20240426 73.5162894,11.1046596 L73.5162894,15.2209149 C73.5162894,15.2894681 73.4607574,15.344234 73.3918213,15.344234 L71.8828851,15.344234 C71.8147149,15.344234 71.759566,15.2894681 71.759566,15.2209149 L71.759566,11.4340213 C71.759566,10.3241489 71.3367574,9.82895745 70.3873532,9.82895745 C69.5202894,9.82895745 69.0021191,10.4287021 69.0021191,11.4340213 L69.0021191,15.2209149 C69.0021191,15.2894681 68.9469702,15.344234 68.878417,15.344234 L67.3690979,15.344234 C67.3009277,15.344234 67.2457787,15.2894681 67.2457787,15.2209149 L67.2457787,8.36061702 C67.2457787,8.29206383 67.3009277,8.23691489 67.3690979,8.23691489 L68.878417,8.23691489 C68.9469702,8.23691489 69.0021191,8.29206383 69.0021191,8.36061702 L69.0021191,8.82248936 C69.3150128,8.52453191 69.8802894,8.15457447 70.7580766,8.15457447 Z M47.9007191,8.05247234 C47.9607032,8.05247234 48.0107178,8.09469574 48.0222842,8.15143344 L48.0248043,8.17655745 L48.0248043,9.63494043 C48.0248043,9.69492447 47.9822876,9.7449391 47.9257332,9.7565055 L47.9007191,9.75902553 L47.7632298,9.75902553 C46.8853033,9.75902553 46.2871897,10.4342497 46.2517466,11.3380625 L46.2500809,11.4234511 L46.2500809,15.2203021 C46.2500809,15.2806213 46.207271,15.3303846 46.1508998,15.3418829 L46.1259957,15.3443872 L44.6124638,15.3443872 C44.5524798,15.3443872 44.5024652,15.3021638 44.4908988,15.2454261 L44.4883787,15.2203021 L44.4883787,8.25928085 C44.4883787,8.1989617 44.5308953,8.14890519 44.5874498,8.13733354 L44.6124638,8.13481277 L46.1259957,8.13481277 C46.1856447,8.13481277 46.2359106,8.17732939 46.2475451,8.23414039 L46.2500809,8.25928085 L46.2500809,8.64264255 C46.6591021,8.23630213 47.1818681,8.05247234 47.9007191,8.05247234 Z M62.8771021,8.07265532 C64.949783,8.07265532 66.5134851,9.63559149 66.5134851,11.7086553 C66.5134851,13.7813362 64.949783,15.3442723 62.8771021,15.3442723 C60.8044213,15.3442723 59.2411021,13.7813362 59.2411021,11.7086553 C59.2411021,9.63559149 60.8044213,8.07265532 62.8771021,8.07265532 Z M50.4685532,8.15457447 C50.527867,8.15457447 50.5777979,8.19709109 50.5893538,8.25338896 L50.5918723,8.2782766 L50.5918723,8.81138298 C51.0146809,8.39546809 51.6128936,8.15457447 52.2517021,8.15457447 C53.046766,8.15457447 53.6568511,8.44870213 54.0677872,9.02853191 C54.5354043,8.56168085 55.1221277,8.15457447 56.1209362,8.15457447 C57.6401545,8.15457447 58.4586086,9.00340808 58.4934756,10.6125157 L58.4946383,10.7209149 L58.4946383,15.2209149 C58.4946383,15.2808989 58.4521217,15.3303271 58.3958238,15.3417469 L58.3709362,15.344234 L56.862,15.344234 C56.802016,15.344234 56.7522945,15.3023039 56.7408014,15.245896 L56.7382979,15.2209149 L56.7382979,11.1046596 C56.7382979,10.2582766 56.3683404,9.82895745 55.6406809,9.82895745 C54.9969068,9.82895745 54.5730582,10.2959419 54.5445928,11.0254975 L54.5430638,11.1046596 L54.5430638,15.2209149 C54.5430638,15.2808989 54.5008404,15.3303271 54.4446159,15.3417469 L54.4197447,15.344234 L52.9104255,15.344234 C52.8504415,15.344234 52.8004269,15.3023039 52.7888605,15.245896 L52.7863404,15.2209149 L52.7863404,11.1046596 C52.7863404,10.5229149 52.596383,9.82895745 51.6891064,9.82895745 C51.0457021,9.82895745 50.6218663,10.2959419 50.5934013,11.0254975 L50.5918723,11.1046596 L50.5918723,15.2209149 C50.5918723,15.2808989 50.5493557,15.3303271 50.4933144,15.3417469 L50.4685532,15.344234 L48.959234,15.344234 C48.89925,15.344234 48.8495286,15.3023039 48.8380355,15.245896 L48.8355319,15.2209149 L48.8355319,8.2782766 C48.8355319,8.21862766 48.8777553,8.16865492 48.9342365,8.15709375 L48.959234,8.15457447 L50.4685532,8.15457447 Z M85.5526979,8.00360426 C86.2772533,8.00360426 86.9354696,8.26311743 87.3456423,8.57829613 L87.4116766,8.63130638 L87.4116766,8.20926383 C87.4116766,8.14995 87.4539,8.10031237 87.5096114,8.08882974 L87.5342298,8.08632766 L89.0868255,8.08632766 C89.1458043,8.08632766 89.1954,8.12855106 89.2068774,8.18451907 L89.2093787,8.20926383 L89.2093787,15.1388809 C89.2093787,15.1966559 89.1688611,15.2454271 89.1148377,15.2581826 L89.0868255,15.261434 L87.5342298,15.261434 C87.4764547,15.261434 87.4276835,15.2209165 87.414928,15.166893 L87.4116766,15.1388809 L87.4116766,14.7164553 C87.0084,15.0550085 86.3175064,15.3445404 85.5526979,15.3445404 C83.4658468,15.3445404 81.951166,13.8007532 81.951166,11.6740723 C81.951166,9.54700851 83.4658468,8.00360426 85.5526979,8.00360426 Z M30.358943,3.54629232 L30.3619021,3.57353617 L30.3619021,8.61162128 C30.3783702,8.63345106 30.3898596,8.6579617 30.3898596,8.68553617 C30.8720298,8.28570638 31.5594766,8.05247234 32.2882851,8.05247234 C34.4360298,8.05247234 35.8243277,9.48328085 35.8243277,11.6984298 C35.8243277,13.9135787 34.4360298,15.3443872 32.2882851,15.3443872 C31.4645745,15.3443872 30.8620723,15.0554336 30.4528684,14.7457935 L30.3898596,14.6967702 L30.3898596,15.2203021 C30.3898596,15.2806213 30.3470497,15.3303846 30.2906786,15.3418829 L30.2657745,15.3443872 L28.7522426,15.3443872 C28.6922585,15.3443872 28.6425371,15.3021638 28.631044,15.2454261 L28.6285404,15.2203021 L28.6285404,3.75315319 C28.6285404,3.69898906 28.6631492,3.65242197 28.7123491,3.63539896 L28.7380723,3.62945106 L30.2221149,3.44983404 C30.2871255,3.44179149 30.3453922,3.4850621 30.358943,3.54629232 Z M17.978783,8.16698298 C18.4180596,8.16698298 18.8550383,8.2512383 19.2410809,8.41170638 C19.5084,8.52200426 20.4179745,8.97008936 20.9005277,10.0964298 C20.9171234,10.1350468 20.9057936,10.1784511 20.8751819,10.2040362 L20.8545702,10.2170681 L19.4429106,10.8769404 C19.4184,10.8880468 19.3904426,10.8880468 19.3655489,10.8773234 C19.3406553,10.866217 19.3222723,10.8451532 19.3146128,10.8187277 C19.2188681,10.4966426 19.040017,10.2837064 18.9419745,10.1852809 C18.7458894,9.98919574 18.4498468,9.76400426 17.8995064,9.76400426 C17.4537191,9.76400426 17.1155489,9.91681277 16.8355915,10.2457915 C16.4083468,10.7421957 16.3727431,11.3708633 16.3697761,11.6491887 L16.3695064,11.7160468 C16.3695064,12.0810255 16.4315489,12.3265149 16.4579745,12.414983 C16.663634,13.2088979 17.2166553,13.6814936 17.9389532,13.6814936 C18.9233321,13.6814936 19.2778883,12.8730538 19.4174051,12.5265565 L19.4306553,12.4934936 L19.4494213,12.4460043 C19.4593787,12.4218766 19.4792936,12.4027277 19.5041872,12.3946851 C19.5202723,12.3883021 19.5377191,12.3870255 19.5544851,12.3905149 L19.5788681,12.3992809 L20.9246553,13.1112383 C20.966017,13.1334511 20.9844,13.1828553 20.9679319,13.2265149 C20.840017,13.5623872 20.7017617,13.8251106 20.533634,14.0537489 C19.9369532,14.861834 18.9523149,15.3443872 17.8995064,15.3443872 C17.6858043,15.3443872 17.1216766,15.3145149 16.4897617,15.0334085 C14.6878468,14.2065574 14.5480596,12.3154085 14.5480596,11.7554936 C14.5480596,10.8895787 14.8012085,10.1033234 15.2795489,9.48213191 C15.5759745,9.08728085 16.4334638,8.16698298 17.978783,8.16698298 Z M62.8771021,9.77384681 C61.7867617,9.77384681 61.0254,10.5700596 61.0254,11.7086553 C61.0254,12.847634 61.7867617,13.6430809 62.8771021,13.6430809 C63.9678255,13.6430809 64.7288043,12.847634 64.7288043,11.7086553 C64.7288043,10.5700596 63.9678255,9.77384681 62.8771021,9.77384681 Z M32.2193489,9.75902553 C31.1259447,9.75902553 30.3619021,10.5567702 30.3619021,11.6984298 C30.3619021,12.8400894 31.1259447,13.6386 32.2193489,13.6386 C33.3207957,13.6386 34.0902,12.8400894 34.0902,11.6984298 C34.0902,10.5567702 33.3207957,9.75902553 32.2193489,9.75902553 Z M77.6719915,9.75925532 C76.5701617,9.75925532 75.8007574,10.557 75.8007574,11.6982766 C75.8007574,12.8399362 76.5701617,13.6384468 77.6719915,13.6384468 C78.7653957,13.6384468 79.5294383,12.8399362 79.5294383,11.6982766 C79.5294383,10.557 78.7653957,9.75925532 77.6719915,9.75925532 Z M85.6078468,9.71705106 C84.5519745,9.71705106 83.6929532,10.5952213 83.6929532,11.6740723 C83.6929532,12.7529234 84.5519745,13.6307106 85.6078468,13.6307106 C86.6506979,13.6307106 87.4672085,12.7713064 87.4672085,11.6740723 C87.4672085,10.5768383 86.6506979,9.71705106 85.6078468,9.71705106 Z M40.1216553,9.70368511 C39.4348672,9.70368511 38.7918453,10.1011104 38.5046567,10.676057 L38.470634,10.748834 L41.7734426,10.748834 C41.5053574,10.1349191 40.8382085,9.70368511 40.1216553,9.70368511 Z" id="cybermonday" fill="#005AF9"></path>
                    <path d="M100.16303,11.6763319 C100.368306,11.6763319 100.58354,11.710417 100.809881,11.7797362 C101.036221,11.8486723 101.233072,11.9685447 101.400051,12.1405021 L100.692306,12.8834809 C100.639455,12.808034 100.56554,12.7444596 100.470562,12.6946723 C100.374817,12.6441191 100.272945,12.6196085 100.16303,12.6196085 C99.8922638,12.6196085 99.6804766,12.700034 99.5307319,12.862034 C99.3806043,13.024034 99.3055404,13.2365872 99.3055404,13.4981617 C99.3055404,13.7608851 99.3806043,13.9726723 99.5307319,14.1342894 C99.6804766,14.2966723 99.8922638,14.3770979 100.16303,14.3770979 C100.282136,14.3770979 100.384774,14.3518213 100.470562,14.2985872 C100.556732,14.2461191 100.630264,14.1840766 100.692306,14.1132255 L101.400051,14.8558213 C101.233072,15.0277787 101.036221,15.148034 100.809881,15.2177362 C100.58354,15.2862894 100.368306,15.3203745 100.16303,15.3203745 C99.8960936,15.3203745 99.6452426,15.2774809 99.4093277,15.1920766 C99.1737957,15.1062894 98.9689021,14.9833532 98.7950298,14.8236511 C98.6211574,14.6647149 98.4836681,14.4724596 98.3840936,14.2488 C98.2837532,14.0247574 98.233966,13.7750553 98.233966,13.4981617 C98.233966,13.222034 98.2837532,12.9719489 98.3840936,12.7479064 C98.4836681,12.5242468 98.6211574,12.3327574 98.7950298,12.1726723 C98.9689021,12.0133532 99.1737957,11.890034 99.4093277,11.8050128 C99.6452426,11.7188426 99.8960936,11.6763319 100.16303,11.6763319 Z M97.1871319,14.0773021 C97.3583234,14.0773021 97.5053872,14.1378128 97.6264085,14.2596 C97.7478128,14.3810043 97.8087064,14.5273021 97.8087064,14.6984936 C97.8087064,14.8700681 97.7478128,15.0167489 97.6264085,15.1381532 C97.5053872,15.2599404 97.3583234,15.3204511 97.1871319,15.3204511 C97.0155574,15.3204511 96.8688766,15.2599404 96.7478553,15.1381532 C96.6260681,15.0167489 96.5655574,14.8700681 96.5655574,14.6984936 C96.5655574,14.5273021 96.6260681,14.3810043 96.7478553,14.2596 C96.8688766,14.1378128 97.0155574,14.0773021 97.1871319,14.0773021 Z M102.95954,9.91788511 L102.95954,15.320183 L101.8872,15.320183 L101.8872,9.91788511 L102.95954,9.91788511 Z" id=".cl" fill="#D30051"></path>
                    <g id="logo_cm">
                        <path d="M6.02988511,-1.42108547e-14 C7.85378708,-1.42108547e-14 9.34336121,1.45700445 9.39597869,3.26802172 L9.39741702,3.36714894 L9.39741702,3.45370213 L11.7596298,3.45370213 L12.062183,17.6771489 L0.000268085106,17.6771489 L0.300523404,3.45370213 L2.66273617,3.45370213 L2.66273617,3.36714894 C2.66273617,1.51046809 4.17358723,-1.42108547e-14 6.02988511,-1.42108547e-14 Z M8.8451617,5.89710638 C8.65170274,5.89710638 8.4925868,6.04240382 8.47084299,6.2299696 L8.46831064,6.27395745 L8.46831064,6.83808511 C8.46831064,8.18923404 7.3691617,9.28838298 6.01801277,9.28838298 C4.69661129,9.28838298 3.61600587,8.23650368 3.5696475,6.92583753 L3.56809787,6.83808511 L3.56809787,6.27395745 C3.56809787,6.06561702 3.39920426,5.89710638 3.19086383,5.89710638 C2.99776049,5.89710638 2.83833973,6.04240382 2.81655056,6.2299696 L2.81401277,6.27395745 L2.81401277,6.83808511 C2.81401277,8.60476596 4.25133191,10.0420851 6.01801277,10.0420851 C7.7519773,10.0420851 9.16866577,8.65750709 9.22054108,6.93588816 L9.22201277,6.83808511 L9.22201277,6.27395745 C9.22201277,6.06561702 9.05311915,5.89710638 8.8451617,5.89710638 Z M8.8451617,4.83740426 C8.22320426,4.83740426 7.71767234,5.34331915 7.71767234,5.9652766 C7.71767234,6.10391489 7.83026809,6.21651064 7.96890638,6.21651064 C8.10792766,6.21651064 8.22014043,6.10391489 8.22014043,5.9652766 C8.22014043,5.62021277 8.50048085,5.34025532 8.8451617,5.34025532 C9.18984255,5.34025532 9.47018298,5.62021277 9.47018298,5.9652766 C9.47018298,6.10391489 9.58277872,6.21651064 9.72141702,6.21651064 C9.8604383,6.21651064 9.97265106,6.10391489 9.97265106,5.9652766 C9.97265106,5.34331915 9.46673617,4.83740426 8.8451617,4.83740426 Z M3.20273617,4.83740426 C2.58077872,4.83740426 2.07486383,5.34331915 2.07486383,5.9652766 C2.07486383,6.10391489 2.18745957,6.21651064 2.32609787,6.21651064 C2.46511915,6.21651064 2.57771489,6.10391489 2.57771489,5.9652766 C2.57771489,5.62021277 2.85805532,5.34025532 3.20273617,5.34025532 C3.54703404,5.34025532 3.82775745,5.62021277 3.82775745,5.9652766 C3.82775745,6.10391489 3.93997021,6.21651064 4.07899149,6.21651064 C4.21762979,6.21651064 4.33022553,6.10391489 4.33022553,5.9652766 C4.33022553,5.34331915 3.82431064,4.83740426 3.20273617,4.83740426 Z M6.02988511,0.703148936 C4.59176011,0.703148936 3.41617417,1.84914112 3.36781561,3.27571811 L3.36626809,3.36714894 L3.36626809,3.45370213 L8.69388511,3.45370213 L8.69388511,3.36714894 C8.69388511,1.89842553 7.49899149,0.703148936 6.02988511,0.703148936 Z" fill="#005AF9"></path>
                        <polygon id="inener_logo" fill="#D30051" points="12.0622979 17.6770723 -3.97903932e-13 17.6770723 0.022212766 16.638434 12.042 16.638434"></polygon>
                    </g>
                </g>
            </g>
        </g>
    </g>
</svg>