<svg xmlns="http://www.w3.org/2000/svg" width="32" height="54" viewBox="0 0 32 54">
    <g fill="#DE5AA5" fill-rule="nonzero">
        <path d="M13.287 18.002c-1.4 0-3.67-.814-5.281-1.892a1.72 1.72 0 1 1 1.913-2.856c1.266.848 2.89 1.31 3.368 1.31.588 0 2.268-.927 2.268-5.045a1.718 1.718 0 1 1 3.437 0c0 6.71-3.731 8.483-5.705 8.483z"/>
        <path d="M1.719 29.236c-.95 0-1.719-.77-1.719-1.718V12.287C0 3.845 6.112 0 11.792 0c2.846 0 6.904 1.354 8.98 5.168a1.72 1.72 0 0 1-3.02 1.642c-1.784-3.279-5.537-3.374-5.959-3.374-3.854 0-8.356 2.318-8.356 8.849v13.401c1.757-.236 3.81-.948 3.81-2.98v-9.749c0-5.304 4.034-7.082 4.206-7.156A1.72 1.72 0 0 1 12.8 8.965c-.196.091-2.115 1.065-2.115 3.993v9.75c-.001 3.155-2.357 6.528-8.966 6.528zM20.607 53.714a1.718 1.718 0 0 1-1.629-1.171c-.303-.9.18-1.874 1.08-2.177.064-.022 6.929-2.44 6.929-8.086 0-1.99-.894-3.11-2.366-4.716a1.719 1.719 0 0 1 2.534-2.322c1.789 1.953 3.268 3.83 3.268 7.04 0 8.126-8.89 11.214-9.268 11.342-.183.061-.367.09-.548.09z"/>
        <path d="M19.643 31.16a1.72 1.72 0 0 1-.128-3.432c.013 0 2.192-.238 2.192-1.315 0-.347-1.207-.848-2.088-1.214-1.85-.768-4.385-1.82-5.595-4.47a1.719 1.719 0 1 1 3.128-1.427c.648 1.421 2.17 2.054 3.783 2.723 1.875.778 4.209 1.747 4.209 4.39 0 3.43-3.512 4.601-5.37 4.742-.044.002-.087.004-.131.004z"/>
        <path d="M17.597 36.06c-.258 0-.504-.016-.735-.052-3.051-.47-6.176-5.396-7.061-6.894a1.72 1.72 0 0 1 2.959-1.749c1.545 2.61 3.75 5.111 4.625 5.246 1.008.162 3.883-.8 5.986-1.496l1.293-.425c3.046-.99 5.434.31 5.697.462a1.718 1.718 0 1 1-1.718 2.977c-.034-.018-1.308-.692-2.92-.17l-1.271.418c-2.704.896-5.086 1.684-6.855 1.684zM5.76 53.714a1.718 1.718 0 0 1-1.693-1.435c-.642-3.821-.21-6.245 1.189-12.194.763-3.256-.081-6.35-.784-8.394a1.72 1.72 0 0 1 3.25-1.118c.84 2.446 1.846 6.176.879 10.298-1.382 5.877-1.661 7.767-1.145 10.839a1.72 1.72 0 0 1-1.697 2.004z"/>
    </g>
</svg>
