<svg xmlns="http://www.w3.org/2000/svg" width="34" height="54" viewBox="0 0 34 54">
    <g fill="#64D4C7" fill-rule="nonzero">
        <path d="M16.732 53.206c-6.492 0-11.241-3.478-12.707-9.305C2.797 39.021 1.03 27.419.149 19.646-.496 13.947.966 8.81 4.268 5.183 7.309 1.841 11.735 0 16.732 0c4.995 0 9.422 1.84 12.464 5.183 3.301 3.627 4.763 8.764 4.118 14.464-.88 7.773-2.647 19.374-3.875 24.255-1.466 5.826-6.216 9.304-12.707 9.304zm0-49.801c-3.998 0-7.507 1.438-9.883 4.049C4.213 10.35 3.057 14.546 3.59 19.27c.868 7.666 2.6 19.065 3.795 23.815 1.074 4.268 4.48 6.717 9.346 6.717s8.27-2.449 9.345-6.718c1.194-4.749 2.927-16.149 3.795-23.814.535-4.724-.622-8.92-3.257-11.817-2.376-2.61-5.886-4.048-9.883-4.048z"/>
        <path d="M16.732 27.956c-6.417 0-11.637-5.133-11.637-11.443 0-2.688.968-5.3 2.725-7.354a1.75 1.75 0 0 1 2.44-.208c.73.605.825 1.68.21 2.4a7.953 7.953 0 0 0-1.912 5.162c0 4.432 3.666 8.037 8.174 8.037 4.507 0 8.172-3.606 8.172-8.037 0-4.432-3.665-8.036-8.172-8.036a8.252 8.252 0 0 0-3.182.631 1.74 1.74 0 0 1-2.269-.905 1.692 1.692 0 0 1 .92-2.23c1.438-.597 2.962-.9 4.53-.9 6.416 0 11.636 5.132 11.636 11.44 0 6.31-5.22 11.443-11.635 11.443z"/>
        <path d="M8.016 32.277a1.73 1.73 0 0 1-1.624-1.115 1.693 1.693 0 0 1 1.027-2.185c.078-.028 7.866-2.852 12.21-4.947.86-.411 1.896-.064 2.317.78a1.69 1.69 0 0 1-.793 2.278C16.647 29.26 8.94 32.055 8.615 32.174c-.197.07-.4.103-.599.103zM9.642 42.943a1.731 1.731 0 0 1-1.625-1.114 1.695 1.695 0 0 1 1.027-2.187c.105-.038 10.547-3.83 15.505-6.221a1.747 1.747 0 0 1 2.317.779 1.69 1.69 0 0 1-.792 2.278c-5.119 2.47-15.398 6.202-15.834 6.36-.197.07-.4.105-.598.105zM16.732 22.771c-1.7 0-3.299-.65-4.5-1.834a1.682 1.682 0 0 1 0-2.407 1.751 1.751 0 0 1 2.448 0c1.095 1.077 3.005 1.078 4.1 0a1.753 1.753 0 0 1 2.45 0 1.683 1.683 0 0 1 0 2.408 6.368 6.368 0 0 1-4.498 1.833zM13.635 16.452c-.61 0-1.22-.249-1.651-.673a2.284 2.284 0 0 1-.694-1.633 2.3 2.3 0 0 1 .694-1.632c.872-.858 2.439-.858 3.31 0a2.291 2.291 0 0 1 0 3.265 2.396 2.396 0 0 1-1.66.673zM19.825 16.452c-.619 0-1.22-.249-1.661-.673a2.313 2.313 0 0 1-.684-1.633c0-.608.253-1.199.684-1.632.872-.858 2.448-.858 3.32 0a2.33 2.33 0 0 1 .685 1.632c0 .61-.254 1.209-.685 1.633a2.409 2.409 0 0 1-1.659.673z"/>
    </g>
</svg>
