<svg xmlns="http://www.w3.org/2000/svg" width="54" height="54" viewBox="0 0 54 54">
    <g fill="#509EF7" fill-rule="nonzero">
        <path d="M26.856 42.642a12.156 12.156 0 0 1-8.624-3.565 1.718 1.718 0 0 1 0-2.43 1.717 1.717 0 0 1 2.43 0c3.415 3.414 8.971 3.414 12.388 0a1.716 1.716 0 0 1 2.43 0 1.717 1.717 0 0 1-.001 2.43 12.16 12.16 0 0 1-8.623 3.565zM16.929 27.548a2.317 2.317 0 0 1-2.328-2.327c0-.615.242-1.21.68-1.648.866-.857 2.42-.857 3.287 0 .437.437.689 1.033.689 1.648 0 .614-.252 1.22-.69 1.648a2.311 2.311 0 0 1-1.638.68zM36.789 27.548a2.335 2.335 0 0 1-1.649-.68 2.355 2.355 0 0 1-.679-1.647c0-.615.252-1.21.679-1.648.866-.857 2.422-.866 3.296 0a2.39 2.39 0 0 1 .68 1.648 2.36 2.36 0 0 1-.68 1.648 2.332 2.332 0 0 1-1.647.68z"/>
        <path d="M26.857 53.712C12.047 53.712 0 41.666 0 26.857 0 16.442 6.105 6.877 15.551 2.489A1.719 1.719 0 0 1 17 5.606C8.76 9.433 3.437 17.774 3.437 26.856c0 12.914 10.506 23.42 23.42 23.42 12.914 0 23.419-10.506 23.419-23.42 0-12.913-10.505-23.419-23.42-23.419-4.088 0-5.95 2.921-5.95 5.634 0 1.397.497 2.677 1.398 3.603 1.047 1.076 2.622 1.645 4.553 1.645 3.469 0 5.157-1.27 5.157-3.882 0-.82-.255-2.197-1.962-2.197-.818 0-1.446.282-1.719.775-.223.402-.185.9.104 1.365a1.719 1.719 0 1 1-2.917 1.817c-.956-1.533-1.028-3.347-.193-4.851.884-1.593 2.652-2.544 4.724-2.544 3.179 0 5.4 2.318 5.4 5.635 0 1.718-.62 7.32-8.594 7.32-3.64 0-5.824-1.46-7.017-2.685-1.53-1.572-2.371-3.703-2.371-6 0-4.398 3.29-9.072 9.388-9.072 14.809 0 26.856 12.048 26.856 26.857S41.666 53.712 26.857 53.712z"/>
    </g>
</svg>
