<svg xmlns="http://www.w3.org/2000/svg" width="41" height="54" viewBox="0 0 41 54">
    <g fill="#F6BD84" fill-rule="nonzero">
        <path d="M22.945 41.649H18.22a1.719 1.719 0 0 1-1.669-1.311c-.607-2.481-3.135-2.674-3.895-2.674-.95 0-1.807-.768-1.807-1.718v-4.633c0-.95.77-1.72 1.719-1.72h16.03c.95 0 1.718.77 1.718 1.72v4.633c0 .468-.19.915-.527 1.24a1.742 1.742 0 0 1-1.26.478c-.78 0-3.307.193-3.914 2.674a1.72 1.72 0 0 1-1.67 1.31zm-3.51-3.437h2.295c1.054-2.282 3.138-3.434 5.149-3.826v-1.353H14.287v1.353c2.01.392 4.094 1.544 5.148 3.826z"/>
        <path d="M23.16 41.03h-.004c-.874-.003-1.643-.685-1.738-1.554a1.72 1.72 0 0 1 2.726-1.574c.445.31.735.825.735 1.41v.005a1.719 1.719 0 0 1-1.719 1.713z"/>
        <path d="M27.625 53.712a4.624 4.624 0 0 1-2.319-.622 4.645 4.645 0 0 1-1.696-6.335c.677-1.173.84-2.336.489-3.455a1.716 1.716 0 0 1 1.124-2.155 1.72 1.72 0 0 1 2.154 1.124c.643 2.045.37 4.191-.79 6.204a1.202 1.202 0 0 0 .44 1.642c.556.321 1.32.113 1.64-.44 2.983-5.168.993-9.957-1.617-12.489a1.72 1.72 0 0 1 2.393-2.467c3.498 3.392 6.173 9.795 2.201 16.673a4.65 4.65 0 0 1-4.02 2.32zM13.608 53.712a4.65 4.65 0 0 1-4.02-2.322c-3.971-6.877-1.296-13.28 2.202-16.67a1.719 1.719 0 1 1 2.392 2.466c-2.61 2.532-4.599 7.321-1.617 12.487.321.555 1.088.76 1.64.443a1.204 1.204 0 0 0 .442-1.643c-1.161-2.013-1.435-4.159-.791-6.204a1.72 1.72 0 0 1 2.154-1.124 1.717 1.717 0 0 1 1.124 2.155c-.352 1.119-.187 2.282.49 3.455a4.646 4.646 0 0 1-1.7 6.336c-.7.407-1.502.621-2.316.621zM14.148 33.032c-.95 0-1.719-.77-1.719-1.72v-7.104c-5.443-.68-9.485-3.736-11.222-8.56a4.613 4.613 0 0 1 .167-3.546 4.608 4.608 0 0 1 2.627-2.39 4.605 4.605 0 0 1 3.547.168 4.606 4.606 0 0 1 2.389 2.627c.397 1.106 1.338 2.576 4.887 2.576H26.34c3.55 0 4.49-1.47 4.887-2.575a4.606 4.606 0 0 1 2.389-2.627 4.615 4.615 0 0 1 3.548-.167 4.61 4.61 0 0 1 2.626 2.39 4.617 4.617 0 0 1 .167 3.547c-1.736 4.822-5.78 7.879-11.222 8.559v2.906a1.718 1.718 0 1 1-3.438 0v-4.492c0-.925.733-1.685 1.657-1.718 4.87-.173 8.339-2.452 9.767-6.42a1.193 1.193 0 0 0-.043-.919 1.188 1.188 0 0 0-.68-.618 1.194 1.194 0 0 0-.918.042 1.19 1.19 0 0 0-.619.68c-.796 2.212-2.851 4.85-8.122 4.85H14.825c-5.27 0-7.326-2.638-8.122-4.85a1.194 1.194 0 0 0-.62-.68 1.184 1.184 0 0 0-.917-.043 1.191 1.191 0 0 0-.68.619c-.136.29-.152.617-.043.919 1.428 3.967 4.897 6.247 9.766 6.42a1.719 1.719 0 0 1 1.658 1.718v8.691c0 .947-.77 1.717-1.719 1.717z"/>
        <path d="M20.617 14.3c-3.941 0-7.149-3.207-7.149-7.149C13.468 3.207 16.675 0 20.617 0a7.105 7.105 0 0 1 6.436 4.029 1.718 1.718 0 1 1-3.092 1.501 3.716 3.716 0 0 0-7.056 1.62 3.712 3.712 0 1 0 7.134 1.44 1.719 1.719 0 0 1 3.166 1.34 7.143 7.143 0 0 1-6.588 4.37z"/>
    </g>
</svg>
