<?xml version="1.0" encoding="UTF-8"?>
<svg width="9px" height="9px" viewBox="0 0 9 9" version="1.1" xmlns="http://www.w3.org/2000/svg" xmlns:xlink="http://www.w3.org/1999/xlink">
    <!-- Generator: Sketch 61.2 (89653) - https://sketch.com -->
    <title>Group</title>
    <desc>Created with Sketch.</desc>
    <g id="Page-1" stroke="none" stroke-width="1" fill="none" fill-rule="evenodd">
        <g id="Group" fill="#785EE5" fill-rule="nonzero">
            <g id="arrow_next">
                <g id="Group-23-Copy" transform="translate(2.500000, 4.500000) scale(-1, 1) translate(-2.500000, -4.500000) ">
                    <path d="M-1.1464466,2.14644661 C-1.3417088,1.95118446 -1.6582912,1.95118446 -1.8535534,2.14644661 C-2.0488155,2.34170876 -2.0488155,2.65829124 -1.8535534,2.85355339 L2.1464466,6.85355339 C2.3417088,7.04881554 2.6582912,7.04881554 2.8535534,6.85355339 L6.8535534,2.85355339 C7.0488155,2.65829124 7.0488155,2.34170876 6.8535534,2.14644661 C6.6582912,1.95118446 6.3417088,1.95118446 6.1464466,2.14644661 L2.50000002,5.79289322 L-1.1464466,2.14644661 Z" id="Path" transform="translate(2.500000, 4.500000) rotate(90.000000) translate(-2.500000, -4.500000) "></path>
                </g>
            </g>
            <g id="arrow_next" transform="translate(4.000000, 0.000000)">
                <g id="Group-23-Copy" transform="translate(2.500000, 4.500000) scale(-1, 1) translate(-2.500000, -4.500000) ">
                    <path d="M-1.1464466,2.14644661 C-1.3417088,1.95118446 -1.6582912,1.95118446 -1.8535534,2.14644661 C-2.0488155,2.34170876 -2.0488155,2.65829124 -1.8535534,2.85355339 L2.1464466,6.85355339 C2.3417088,7.04881554 2.6582912,7.04881554 2.8535534,6.85355339 L6.8535534,2.85355339 C7.0488155,2.65829124 7.0488155,2.34170876 6.8535534,2.14644661 C6.6582912,1.95118446 6.3417088,1.95118446 6.1464466,2.14644661 L2.50000002,5.79289322 L-1.1464466,2.14644661 Z" id="Path" transform="translate(2.500000, 4.500000) rotate(90.000000) translate(-2.500000, -4.500000) "></path>
                </g>
            </g>
        </g>
    </g>
</svg>