<?xml version="1.0" encoding="UTF-8"?>
<svg width="8px" height="9px" viewBox="0 0 8 9" version="1.1" xmlns="http://www.w3.org/2000/svg" xmlns:xlink="http://www.w3.org/1999/xlink">
    <!-- Generator: Sketch 57.1 (83088) - https://sketch.com -->
    <title>Group 29</title>
    <desc>Created with Sketch.</desc>
    <g id="Desktop" stroke="none" stroke-width="1" fill="none" fill-rule="evenodd">
        <g id="Landing-v2" transform="translate(-856.000000, -7837.000000)" fill="#EBEAF1" fill-rule="nonzero">
            <g id="Group-25" transform="translate(576.000000, 7825.000000)">
                <g id="Group-23-Copy" transform="translate(267.500000, 16.500000) scale(-1, 1) translate(-267.500000, -16.500000) translate(247.000000, 12.000000)">
                    <g id="Group-29">
                        <path d="M-1.14644661,2.14644661 C-1.34170876,1.95118446 -1.65829124,1.95118446 -1.85355339,2.14644661 C-2.04881554,2.34170876 -2.04881554,2.65829124 -1.85355339,2.85355339 L2.14644661,6.85355339 C2.34170876,7.04881554 2.65829124,7.04881554 2.85355339,6.85355339 L6.85355339,2.85355339 C7.04881554,2.65829124 7.04881554,2.34170876 6.85355339,2.14644661 C6.65829124,1.95118446 6.34170876,1.95118446 6.14644661,2.14644661 L2.5,5.79289322 L-1.14644661,2.14644661 Z" id="Path-Copy" transform="translate(2.500000, 4.500000) rotate(90.000000) translate(-2.500000, -4.500000) "></path>
                        <path d="M1.85355339,2.14644661 C1.65829124,1.95118446 1.34170876,1.95118446 1.14644661,2.14644661 C0.951184464,2.34170876 0.951184464,2.65829124 1.14644661,2.85355339 L5.14644661,6.85355339 C5.34170876,7.04881554 5.65829124,7.04881554 5.85355339,6.85355339 L9.85355339,2.85355339 C10.0488155,2.65829124 10.0488155,2.34170876 9.85355339,2.14644661 C9.65829124,1.95118446 9.34170876,1.95118446 9.14644661,2.14644661 L5.5,5.79289322 L1.85355339,2.14644661 Z" id="Path-Copy-2" transform="translate(5.500000, 4.500000) rotate(90.000000) translate(-5.500000, -4.500000) "></path>
                    </g>
                </g>
            </g>
        </g>
    </g>
</svg>