<svg xmlns="http://www.w3.org/2000/svg" width="36" height="36" viewBox="0 0 36 36">
    <g fill="none" fill-rule="evenodd">
        <rect width="36" height="36" fill="#F7F6F9" rx="18"/>
        <g fill="#000" fill-rule="nonzero">
            <path d="M24.816 26H12.184C11.531 26 11 25.327 11 24.5v-2c0-.276.177-.5.395-.5.218 0 .394.224.394.5v2c0 .276.177.5.395.5h12.632c.218 0 .395-.224.395-.5v-2c0-.276.176-.5.394-.5.218 0 .395.224.395.5v2c0 .827-.531 1.5-1.184 1.5z"/>
            <path d="M23.854 15.646l-5-5a.5.5 0 0 0-.707 0l-5 5a.5.5 0 0 0 .707.707L18 12.207V22.5a.5.5 0 0 0 1 0V12.207l4.146 4.146a.498.498 0 0 0 .708 0 .5.5 0 0 0 0-.707z"/>
        </g>
    </g>
</svg>
