<svg xmlns="http://www.w3.org/2000/svg" width="36" height="36" viewBox="0 0 36 36">
    <g fill="none" fill-rule="evenodd">
        <rect width="36" height="36" fill="#F7F6F9" rx="18"/>
        <path fill-rule="nonzero" stroke="#000" stroke-linejoin="round" d="M18 25a.429.429 0 0 1-.205-.052 23.29 23.29 0 0 1-3.867-2.756c-1.129-.997-2.03-2.016-2.68-3.03C10.419 17.866 10 16.575 10 15.323 10 12.939 11.983 11 14.421 11c.825 0 1.702.302 2.468.852.448.32.83.708 1.111 1.119.281-.411.663-.798 1.11-1.12.767-.549 1.644-.851 2.469-.851C24.017 11 26 12.94 26 15.324c0 1.252-.42 2.543-1.248 3.837-.65 1.015-1.551 2.034-2.68 3.03a23.29 23.29 0 0 1-3.867 2.757.429.429 0 0 1-.204.052H18z"/>
    </g>
</svg>
