<svg xmlns="http://www.w3.org/2000/svg" width="36" height="36" viewBox="0 0 36 36">
    <g fill="#509EF7" fill-rule="nonzero">
        <path d="M17.904 28.428a8.104 8.104 0 0 1-5.75-2.376 1.145 1.145 0 1 1 1.621-1.621 5.847 5.847 0 0 0 8.258 0 1.145 1.145 0 1 1 1.62 1.62 8.107 8.107 0 0 1-5.75 2.377zM11.286 18.366a1.544 1.544 0 0 1-1.552-1.552c0-.41.162-.807.453-1.099.578-.57 1.614-.57 2.191 0 .292.292.46.69.46 1.099 0 .41-.168.813-.46 1.098a1.54 1.54 0 0 1-1.092.454zM24.526 18.366c-.41 0-.808-.162-1.1-.454a1.57 1.57 0 0 1-.452-1.098c0-.41.168-.807.453-1.099.577-.57 1.614-.577 2.197 0 .285.292.453.695.453 1.099 0 .41-.168.813-.453 1.098a1.555 1.555 0 0 1-1.098.454z"/>
        <path d="M17.904 35.808C8.032 35.808 0 27.778 0 17.904 0 10.961 4.07 4.585 10.367 1.66a1.146 1.146 0 0 1 .966 2.078C5.841 6.29 2.292 11.85 2.292 17.904c0 8.61 7.003 15.613 15.612 15.613 8.61 0 15.613-7.004 15.613-15.613S26.514 2.292 17.904 2.292c-2.725 0-3.966 1.947-3.966 3.755 0 .931.33 1.785.931 2.402.699.718 1.748 1.097 3.035 1.097 2.313 0 3.438-.846 3.438-2.588 0-.547-.169-1.465-1.307-1.465-.546 0-.964.188-1.146.517-.15.268-.124.6.069.91a1.146 1.146 0 1 1-1.945 1.212c-.637-1.023-.685-2.232-.128-3.235.59-1.062 1.767-1.695 3.149-1.695 2.119 0 3.6 1.544 3.6 3.756 0 1.145-.413 4.88-5.73 4.88-2.426 0-3.882-.973-4.677-1.79-1.02-1.048-1.581-2.469-1.581-4C11.646 3.115 13.84 0 17.904 0 27.777 0 35.81 8.032 35.81 17.904c0 9.873-8.032 17.904-17.905 17.904z"/>
    </g>
</svg>
