<svg xmlns="http://www.w3.org/2000/svg" width="31" height="39" viewBox="0 0 31 39">
    <g fill="none" fill-rule="evenodd" stroke="#785EE5" stroke-width="2.25">
        <path d="M15.32 5.32h.36A4.32 4.32 0 0 1 20 9.64v1.824a1.57 1.57 0 0 1-2.25 1.416l-.952-.457a3 3 0 0 0-2.596 0l-.952.457A1.57 1.57 0 0 1 11 11.464V9.64a4.32 4.32 0 0 1 4.32-4.32z"/>
        <path d="M15.32 5.32h.36A4.32 4.32 0 0 1 20 9.64v1.824a1.57 1.57 0 0 1-2.25 1.416l-.952-.457a3 3 0 0 0-2.596 0l-.952.457A1.57 1.57 0 0 1 11 11.464V9.64a4.32 4.32 0 0 1 4.32-4.32zM4.976 29.8H6.5c4 .96 7 1.44 9 1.44s5-.48 9-1.44h1.524a2.3 2.3 0 0 1 2.226 2.88l-.259.994a3 3 0 0 1-2.427 2.206C20.913 36.627 17.558 37 15.5 37s-5.413-.373-10.064-1.12a3 3 0 0 1-2.427-2.206l-.259-.994a2.3 2.3 0 0 1 2.226-2.88zM6.5 26.92c4 .96 7 1.44 9 1.44s5-.48 9-1.44M15.5 28.36v2.88"/>
        <path d="M3.5 22.6c.874 0 1.628.613 1.806 1.468l.735 3.53A1.83 1.83 0 0 1 4.25 29.8 2.25 2.25 0 0 1 2 27.55V24.1a1.5 1.5 0 0 1 1.5-1.5zM27.5 22.6a1.5 1.5 0 0 1 1.5 1.5v3.45a2.25 2.25 0 0 1-2.25 2.25 1.83 1.83 0 0 1-1.791-2.203l.735-3.529A1.845 1.845 0 0 1 27.5 22.6zM11.433 2.562l.317-.122a10.46 10.46 0 0 1 7.5 0l.317.122A6.741 6.741 0 0 1 23.75 7.48l.75 3.6.75 3.6c.496 2.379.537 4.83.121 7.223L24.5 26.92l-9 1.44-9-1.44-.871-5.017a19.261 19.261 0 0 1 .121-7.223l.75-3.6.75-3.6a6.741 6.741 0 0 1 4.183-4.918zM11.524 33.663c1.886-1.615 3.212-2.423 3.976-2.423.764 0 2.09.808 3.976 2.423a1.5 1.5 0 0 1 .524 1.14v.037c0 .44-.264.838-.67 1.01-1.808.767-3.085 1.15-3.83 1.15-.745 0-2.022-.383-3.83-1.15a1.097 1.097 0 0 1-.67-1.01v-.038a1.5 1.5 0 0 1 .524-1.139z"/>
        <path d="M17.85 16.432l.65-.312a1.047 1.047 0 0 1 1.5.944v1.712a1.5 1.5 0 0 1-.85 1.352l-.65.312a1.047 1.047 0 0 1-1.5-.944v-1.712a1.5 1.5 0 0 1 .85-1.352zM13.15 16.432l-.65-.312a1.047 1.047 0 0 0-1.5.944v1.712a1.5 1.5 0 0 0 .85 1.352l.65.312a1.047 1.047 0 0 0 1.5-.944v-1.712a1.5 1.5 0 0 0-.85-1.352z"/>
    </g>
</svg>
