<svg xmlns="http://www.w3.org/2000/svg" width="27" height="36" viewBox="0 0 27 36">
    <g fill="#DE5AA5" fill-rule="nonzero">
        <path d="M15.297 27.766h-3.15c-.528 0-.988-.361-1.113-.874-.405-1.654-2.09-1.783-2.597-1.783-.633 0-1.204-.512-1.204-1.145v-3.089c0-.633.513-1.146 1.146-1.146h10.686c.633 0 1.146.513 1.146 1.146v3.09a1.147 1.147 0 0 1-1.191 1.144c-.52 0-2.206.129-2.61 1.783a1.147 1.147 0 0 1-1.113.874zm-2.34-2.292h1.53c.703-1.52 2.092-2.289 3.432-2.55v-.902H9.524v.902c1.341.261 2.73 1.03 3.433 2.55z"/>
        <path d="M15.44 27.353h-.003a1.181 1.181 0 0 1-1.165-1.162 1.147 1.147 0 0 1 1.824-.923c.296.207.49.55.49.94v.003a1.146 1.146 0 0 1-1.146 1.142z"/>
        <path d="M18.416 35.808a3.083 3.083 0 0 1-1.545-.414 3.096 3.096 0 0 1-1.13-4.224c.45-.782.56-1.558.325-2.304a1.144 1.144 0 0 1 .75-1.436 1.147 1.147 0 0 1 1.435.75c.43 1.363.247 2.794-.527 4.136a.802.802 0 0 0 .293 1.094.82.82 0 0 0 1.094-.293c1.989-3.446.662-6.638-1.077-8.326a1.146 1.146 0 0 1 1.595-1.645c2.332 2.261 4.115 6.53 1.467 11.115a3.1 3.1 0 0 1-2.68 1.547zM9.072 35.808a3.1 3.1 0 0 1-2.68-1.548c-2.647-4.585-.864-8.853 1.468-11.114a1.146 1.146 0 1 1 1.595 1.645c-1.74 1.688-3.066 4.88-1.078 8.325a.823.823 0 0 0 1.093.294.803.803 0 0 0 .295-1.094c-.774-1.342-.957-2.773-.528-4.137a1.145 1.145 0 1 1 2.185.687c-.234.746-.124 1.522.327 2.304a3.097 3.097 0 0 1-1.133 4.224 3.079 3.079 0 0 1-1.544.414zM9.432 22.021a1.146 1.146 0 0 1-1.146-1.146v-4.736c-3.628-.454-6.323-2.491-7.482-5.706a3.075 3.075 0 0 1 .112-2.365 3.072 3.072 0 0 1 1.751-1.593 3.07 3.07 0 0 1 2.365.112 3.07 3.07 0 0 1 1.593 1.75c.265.738.892 1.718 3.258 1.718h7.677c2.367 0 2.993-.98 3.258-1.717a3.07 3.07 0 0 1 1.593-1.75 3.077 3.077 0 0 1 2.365-.112c.777.28 1.398.846 1.75 1.593.352.748.391 1.588.112 2.365-1.157 3.215-3.853 5.253-7.482 5.706v1.938a1.145 1.145 0 1 1-2.291 0v-2.995c0-.617.488-1.124 1.105-1.145 3.246-.116 5.558-1.635 6.51-4.28a.795.795 0 0 0-.028-.613.792.792 0 0 0-.453-.412.796.796 0 0 0-1.025.481c-.53 1.474-1.901 3.233-5.415 3.233H9.883c-3.513 0-4.883-1.759-5.415-3.233a.796.796 0 0 0-1.024-.482.798.798 0 0 0-.482 1.025c.952 2.645 3.265 4.165 6.511 4.28a1.146 1.146 0 0 1 1.105 1.146v5.794c0 .631-.513 1.144-1.146 1.144z"/>
        <path d="M13.745 9.533a4.771 4.771 0 0 1-4.766-4.765A4.772 4.772 0 0 1 13.745 0a4.737 4.737 0 0 1 4.29 2.686 1.145 1.145 0 1 1-2.06 1 2.477 2.477 0 0 0-4.704 1.08 2.474 2.474 0 1 0 4.756.96 1.147 1.147 0 0 1 2.109.896 4.762 4.762 0 0 1-4.391 2.911z"/>
    </g>
</svg>
