<?xml version="1.0" encoding="UTF-8"?>
<svg width="17px" height="18px" viewBox="0 0 17 18" version="1.1" xmlns="http://www.w3.org/2000/svg" xmlns:xlink="http://www.w3.org/1999/xlink">
    <!-- Generator: Sketch 61.2 (89653) - https://sketch.com -->
    <title>Group 4</title>
    <desc>Created with Sketch.</desc>
    <g id="Desktop" stroke="none" stroke-width="1" fill="none" fill-rule="evenodd">
        <g id="Product" transform="translate(-817.000000, -43.000000)" fill="#000000" stroke="#000000" stroke-width="0.3">
            <g id="Group-4" transform="translate(818.000000, 44.000000)">
                <path d="M2.24133333,3.082 L6.28866667,3.082 C6.42266667,3.082 6.53133333,2.974 6.53133333,2.83966667 C6.53133333,2.706 6.42266667,2.59733333 6.28866667,2.59733333 L2.24133333,2.59733333 C2.10766667,2.59733333 1.999,2.706 1.999,2.83966667 C1.999,2.974 2.10766667,3.082 2.24133333,3.082" id="Fill-8"></path>
                <path d="M3.6,4.71266667 C3.6,4.847 3.70866667,4.955 3.84233333,4.955 L8.787,4.955 C8.921,4.955 9.02933333,4.847 9.02933333,4.71266667 C9.02933333,4.57866667 8.921,4.47033333 8.787,4.47033333 L3.84233333,4.47033333 C3.70866667,4.47033333 3.6,4.57866667 3.6,4.71266667" id="Fill-9"></path>
                <path d="M8.302,6.34333333 L3.84233333,6.34333333 C3.70866667,6.34333333 3.6,6.45166667 3.6,6.586 C3.6,6.71966667 3.70866667,6.828 3.84233333,6.828 L8.302,6.828 C8.436,6.828 8.54466667,6.71966667 8.54466667,6.586 C8.54466667,6.45166667 8.436,6.34333333 8.302,6.34333333" id="Fill-10"></path>
                <path d="M6.84733333,8.21633333 L3.84233333,8.21633333 C3.70866667,8.21633333 3.6,8.32466667 3.6,8.45866667 C3.6,8.59266667 3.70866667,8.701 3.84233333,8.701 L6.84733333,8.701 C6.98133333,8.701 7.08966667,8.59266667 7.08966667,8.45866667 C7.08966667,8.32466667 6.98133333,8.21633333 6.84733333,8.21633333" id="Fill-11"></path>
                <path d="M6.84733333,10.0976667 L3.84233333,10.0976667 C3.70866667,10.0976667 3.6,10.2063333 3.6,10.3396667 C3.6,10.474 3.70866667,10.5823333 3.84233333,10.5823333 L6.84733333,10.5823333 C6.98133333,10.5823333 7.08966667,10.474 7.08966667,10.3396667 C7.08966667,10.2063333 6.98133333,10.0976667 6.84733333,10.0976667" id="Fill-12"></path>
                <path d="M5.635,12.037 L3.84233333,12.037 C3.70866667,12.037 3.6,12.1456667 3.6,12.2796667 C3.6,12.4136667 3.70866667,12.522 3.84233333,12.522 L5.635,12.522 C5.769,12.522 5.87766667,12.4136667 5.87766667,12.2796667 C5.87766667,12.1456667 5.769,12.037 5.635,12.037" id="Fill-13"></path>
                <path d="M2.509,4.47033333 L2.24133333,4.47033333 C2.10766667,4.47033333 1.999,4.57866667 1.999,4.71266667 C1.999,4.847 2.10766667,4.955 2.24133333,4.955 L2.509,4.955 C2.643,4.955 2.75166667,4.847 2.75166667,4.71266667 C2.75166667,4.57866667 2.643,4.47033333 2.509,4.47033333" id="Fill-14"></path>
                <path d="M2.509,6.34333333 L2.24133333,6.34333333 C2.10766667,6.34333333 1.999,6.45166667 1.999,6.586 C1.999,6.71966667 2.10766667,6.828 2.24133333,6.828 L2.509,6.828 C2.643,6.828 2.75166667,6.71966667 2.75166667,6.586 C2.75166667,6.45166667 2.643,6.34333333 2.509,6.34333333" id="Fill-15"></path>
                <path d="M2.509,8.21633333 L2.24133333,8.21633333 C2.10766667,8.21633333 1.999,8.32466667 1.999,8.45866667 C1.999,8.59266667 2.10766667,8.701 2.24133333,8.701 L2.509,8.701 C2.643,8.701 2.75166667,8.59266667 2.75166667,8.45866667 C2.75166667,8.32466667 2.643,8.21633333 2.509,8.21633333" id="Fill-16"></path>
                <path d="M2.509,10.0976667 L2.24133333,10.0976667 C2.10766667,10.0976667 1.999,10.2063333 1.999,10.3396667 C1.999,10.474 2.10766667,10.5823333 2.24133333,10.5823333 L2.509,10.5823333 C2.643,10.5823333 2.75166667,10.474 2.75166667,10.3396667 C2.75166667,10.2063333 2.643,10.0976667 2.509,10.0976667" id="Fill-17"></path>
                <path d="M2.509,12.037 L2.24133333,12.037 C2.10766667,12.037 1.999,12.1456667 1.999,12.2796667 C1.999,12.4136667 2.10766667,12.522 2.24133333,12.522 L2.509,12.522 C2.643,12.522 2.75166667,12.4136667 2.75166667,12.2796667 C2.75166667,12.1456667 2.643,12.037 2.509,12.037" id="Fill-18"></path>
                <path d="M11.9983333,15.5153333 L15.163,15.5153333 L15.163,12.522 L11.9983333,12.522 L11.9983333,15.5153333 Z M8.349,15.5153333 L11.5133333,15.5153333 L11.5133333,12.522 L8.349,12.522 L8.349,15.5153333 Z M0.484666667,13.9856667 L0.484666667,0.485 L7.946,0.485 L7.946,2.83966667 C7.946,2.974 8.05433333,3.082 8.18833333,3.082 L10.5436667,3.082 L10.5436667,6.21733333 C9.94966667,6.315 9.494,6.828 9.494,7.449 C9.494,7.73933333 9.59733333,8.00333333 9.764,8.21633333 L8.10633333,8.21633333 C7.97233333,8.21633333 7.864,8.32466667 7.864,8.45866667 L7.864,13.9856667 L0.484666667,13.9856667 Z M10.2006667,2.59733333 L8.431,2.59733333 L8.431,0.827666667 L10.2006667,2.59733333 Z M11.5133333,7.449 L11.5133333,8.21633333 L10.746,8.21633333 C10.323,8.21633333 9.97866667,7.87233333 9.97866667,7.449 C9.97866667,7.026 10.323,6.68166667 10.746,6.68166667 C11.1693333,6.68166667 11.5133333,7.026 11.5133333,7.449 Z M11.9983333,7.085 C11.9983333,6.461 12.5056667,5.953 13.1296667,5.953 C13.7536667,5.953 14.2613333,6.461 14.2613333,7.085 C14.2613333,7.70866667 13.7536667,8.21633333 13.1296667,8.21633333 L11.9983333,8.21633333 L11.9983333,7.085 Z M10.746,8.701 L11.5133333,8.701 L11.5133333,12.037 L8.349,12.037 L8.349,8.701 L10.746,8.701 Z M11.9983333,12.037 L15.163,12.037 L15.163,8.701 L11.9983333,8.701 L11.9983333,12.037 Z M15.4053333,8.21633333 L14.282,8.21633333 C14.5686667,7.92433333 14.746,7.525 14.746,7.085 C14.746,6.19333333 14.021,5.46833333 13.1296667,5.46833333 C12.428,5.46833333 11.831,5.919 11.608,6.54466667 C11.449,6.393 11.25,6.283 11.0283333,6.23166667 L11.0283333,2.83966667 L11.0126667,2.76166667 L11.0046667,2.73933333 L10.9573333,2.66866667 L8.36,0.071 L8.289,0.0236666667 L8.266,0.0156666667 L8.204,0.003 L8.18833333,-2.84217094e-14 L0.242333333,-2.84217094e-14 C0.108333333,-2.84217094e-14 8.52651283e-14,0.108666667 8.52651283e-14,0.242333333 L8.52651283e-14,14.2276667 C8.52651283e-14,14.3616667 0.108333333,14.4703333 0.242333333,14.4703333 L7.864,14.4703333 L7.864,15.7576667 C7.864,15.8916667 7.97233333,16 8.10633333,16 L15.4053333,16 C15.539,16 15.6476667,15.8916667 15.6476667,15.7576667 L15.6476667,8.45866667 C15.6476667,8.32466667 15.539,8.21633333 15.4053333,8.21633333 L15.4053333,8.21633333 Z" id="Fill-19"></path>
            </g>
        </g>
    </g>
</svg>