<svg xmlns="http://www.w3.org/2000/svg" width="24" height="20" viewBox="0 0 24 20">
    <path fill="#785EE5" d="M8.434.472l.08.03L12 2.22 15.486.503c.104-.052.223-.062.332-.031l.08.03 7.385 3.637c.314.155.338.574.073.77l-.073.043-2.866 1.412 2.866 1.411c.314.155.338.574.073.77l-.073.043-3.437 1.693v4.264c0 .157-.082.303-.217.386l-7.384 4.545-.012.007c-.017.01-.035.019-.053.026l.065-.033c-.034.021-.069.037-.104.048l-.025.007c-.017.005-.035.009-.053.011l-.02.002c-.014.002-.029.002-.043.002-.014 0-.029 0-.043-.002l-.02-.002c-.018-.002-.036-.006-.053-.01l-.025-.008c-.035-.011-.07-.027-.104-.048l.065.033c-.018-.007-.036-.016-.053-.026l-.012-.007-7.384-4.545c-.135-.083-.217-.229-.217-.386v-4.264L.717 8.588C.403 8.434.379 8.014.644 7.82l.073-.044 2.866-1.411L.717 4.952c-.314-.155-.338-.574-.073-.77l.073-.043L8.1.503c.104-.052.223-.062.333-.031zm3.104 10.263l-3.024 1.49-.01.005c-.017.008-.035.014-.052.02l-.024.007c-.018.005-.036.009-.055.011l-.028.003c-.016.002-.031.002-.047.002l-.038-.003c-.027-.002-.054-.008-.081-.015l-.078-.03-3.024-1.49v3.56l6.461 3.977v-7.537zm.924 0v7.537l6.461-3.977v-3.56l-3.024 1.49c-.052.025-.105.04-.16.045-.012.002-.025.002-.037.003-.016 0-.031 0-.047-.002-.01 0-.019-.002-.028-.003-.019-.002-.037-.006-.055-.011l-.023-.007c-.018-.006-.036-.012-.053-.02l-.01-.005-3.024-1.49zM4.615 6.872l-2.66 1.31L4.814 9.59l.008.003 3.486 1.716L10.967 10 4.615 6.873zm14.77 0L13.033 10l2.66 1.31 3.485-1.717.005-.002 2.861-1.41-2.66-1.31zM12 3.235L5.647 6.364 12 9.49l6.352-3.127L12 3.235zM8.308 1.417L1.955 4.545l2.66 1.31 6.353-3.128-2.66-1.31zm7.384 0l-2.66 1.31 6.352 3.128 2.66-1.31-6.352-3.128z"/>
</svg>
