<?xml version="1.0" encoding="UTF-8"?>
<svg width="16px" height="10px" viewBox="0 0 16 10" version="1.1" xmlns="http://www.w3.org/2000/svg" xmlns:xlink="http://www.w3.org/1999/xlink">
    <!-- Generator: Sketch 63 (92445) - https://sketch.com -->
    <title>Group 29</title>
    <desc>Created with Sketch.</desc>
    <g id="Desktop" stroke="none" stroke-width="1" fill="none" fill-rule="evenodd">
        <g id="Landing-Category" transform="translate(-372.000000, -1731.000000)">
            <g id="Group-19" transform="translate(368.000000, 1724.000000)">
                <g id="Group-29" transform="translate(4.000000, 7.000000)">
                    <rect id="Rectangle" stroke="#F6BD84" stroke-width="0.769230769" x="0.384615385" y="0.384615385" width="14.6153846" height="9.23076923" rx="1.53846154"></rect>
                    <rect id="Rectangle" fill="#F6BD84" x="5.38461538" y="3.07692308" width="10" height="1"></rect>
                    <rect id="Rectangle-Copy-45" fill="#F6BD84" x="5.38461538" y="1.53846154" width="10" height="1"></rect>
                    <rect id="Rectangle" fill="#F6BD84" x="5.38461538" y="-7.01660952e-14" width="1" height="5.38461538"></rect>
                    <rect id="Rectangle-Copy-44" fill="#F6BD84" x="-7.28306304e-14" y="4.61538462" width="15.3846154" height="1"></rect>
                    <rect id="Rectangle-Copy-44" fill="#F6BD84" x="-7.28306304e-14" y="6.15384615" width="15.3846154" height="1"></rect>
                    <rect id="Rectangle-Copy-44" fill="#F6BD84" x="-7.28306304e-14" y="7.69230769" width="15.3846154" height="1"></rect>
                    <path d="M2.89794572,3.55563243 L2.62478058,3.69924384 C2.50154063,3.76403492 2.34911137,3.71665274 2.28432029,3.5934128 C2.25852015,3.544338 2.24961716,3.48812673 2.25898961,3.43348115 L2.31115951,3.12930729 C2.33255871,3.00454034 2.29119391,2.87723257 2.20054542,2.78887213 L1.97955017,2.573455 C1.87984696,2.47626839 1.87780685,2.31665765 1.97499347,2.21695444 C2.01369368,2.1772521 2.0644026,2.15141461 2.11926989,2.14344193 L2.42467781,2.09906356 C2.54995095,2.08086031 2.6582454,2.00217978 2.71426925,1.88866306 L2.85085183,1.61191654 C2.9124718,1.48706084 3.06364021,1.43579815 3.18849591,1.49741812 C3.23821411,1.52195552 3.27845693,1.56219834 3.30299433,1.61191654 L3.4395769,1.88866306 C3.49560075,2.00217978 3.60389521,2.08086031 3.72916835,2.09906356 L4.03457626,2.14344193 C4.17236271,2.16346347 4.26783003,2.29139213 4.24780849,2.42917858 C4.23983581,2.48404587 4.21399832,2.53475478 4.17429598,2.573455 L3.95330074,2.78887213 C3.86265224,2.87723257 3.82128744,3.00454034 3.84268665,3.12930729 L3.89485655,3.43348115 C3.91839328,3.57071085 3.82622693,3.70103779 3.68899723,3.72457453 C3.63435164,3.73394698 3.57814037,3.72504399 3.52906558,3.69924384 L3.25590043,3.55563243 C3.14385273,3.49672546 3.00999342,3.49672546 2.89794572,3.55563243 Z" id="Star" fill="#F6BD84"></path>
                </g>
            </g>
        </g>
    </g>
</svg>