<?xml version="1.0" encoding="UTF-8"?>
<svg width="20px" height="12px" viewBox="0 0 20 12" version="1.1" xmlns="http://www.w3.org/2000/svg" xmlns:xlink="http://www.w3.org/1999/xlink">
    <!-- Generator: Sketch 64 (93537) - https://sketch.com -->
    <title>Shape</title>
    <desc>Created with Sketch.</desc>
    <g id="Desktop" stroke="none" stroke-width="1" fill="none" fill-rule="evenodd">
        <g id="Product" transform="translate(-904.000000, -502.000000)" fill="#DE5AA5" fill-rule="nonzero">
            <g id="Group-10" transform="translate(904.000000, 378.000000)">
                <path d="M19.0247573,128.93332 L19.0247573,128.232411 L2.89949498,128.232411 L2.89949498,128.93332 L19.0247573,128.93332 L19.0247573,128.93332 Z M19.0247573,129.882978 L2.89949498,129.882978 L2.89949498,134.710657 C2.89949498,134.89826 3.05567454,135.050342 3.24833178,135.050342 L18.6759205,135.050342 C18.8685778,135.050342 19.0247573,134.89826 19.0247573,134.710657 L19.0247573,129.882978 Z M19.0247573,127.282753 L19.0247573,126.829627 C19.0247573,126.642024 18.8685778,126.489942 18.6759205,126.489942 L3.24833178,126.489942 C3.05567454,126.489942 2.89949498,126.642024 2.89949498,126.829627 L2.89949498,127.282753 L19.0247573,127.282753 L19.0247573,127.282753 Z M3.24833178,125.540284 L18.6759205,125.540284 C19.4071894,125.540284 20,126.117543 20,126.829627 L20,134.710657 C20,135.422741 19.4071894,136 18.6759205,136 L3.24833178,136 C2.51706289,136 1.92425232,135.422741 1.92425232,134.710657 L1.92425232,126.829627 C1.92425232,126.117543 2.51706289,125.540284 3.24833178,125.540284 Z M3.71719845,131.102829 C3.71719845,130.840588 3.93551395,130.628 4.20481978,130.628 L6.9992651,130.628 C7.26857093,130.628 7.48688644,130.840588 7.48688644,131.102829 L7.48688644,133.867252 C7.48688644,134.129493 7.26857093,134.342081 6.9992651,134.342081 L4.20481978,134.342081 C3.93551395,134.342081 3.71719845,134.129493 3.71719845,133.867252 L3.71719845,131.102829 Z M4.69244111,133.392423 L6.51164377,133.392423 L6.51164377,131.577658 L4.69244111,131.577658 L4.69244111,133.392423 Z M16.9767477,124 C17.2460536,124 17.4643691,124.212588 17.4643691,124.474829 C17.4643691,124.73707 17.2460536,124.949658 16.9767477,124.949658 L1.59967656,124.949658 C1.30306936,124.950695 1.06102553,125.186178 1.05776375,125.479336 L0.97524322,133.757902 C0.972629333,134.02013 0.752205137,134.230645 0.482911997,134.228145 C0.213618857,134.225554 -0.00256739227,134.010913 0,133.748684 L0.0825726699,125.469583 C0.0916004573,124.658119 0.76505767,124.002917 1.59792112,124 L16.9767477,124 Z" id="Shape"></path>
            </g>
        </g>
    </g>
</svg>