<svg xmlns="http://www.w3.org/2000/svg" width="12" height="12" viewBox="0 0 12 12">
    <path fill="#785EE5" fill-rule="nonzero" d="M6.818 5.887a.247.247 0 0 1-.19-.083.267.267 0 0 1 0-.384l.6-.605c-.246-.357-.41-.769-.41-1.181 0-.55.246-1.072.71-1.539.927-.934 3.763-1.4 3.872-1.428.11 0 .19.027.245.055.055.082.11.164.082.247 0 .137-.463 2.967-1.418 3.901-.573.577-1.118.742-1.527.742-.11 0-.246 0-.355-.027-.163-.028-.245-.193-.218-.33.027-.165.191-.247.327-.22.464.11.928-.082 1.391-.55.573-.604 1.01-2.28 1.2-3.214-.954.192-2.618.632-3.218 1.209-.354.357-.545.742-.545 1.126 0 .275.109.55.272.797L8.81 3.222c.11-.11.273-.11.382 0 .109.11.109.275 0 .384L7.009 5.804a.247.247 0 0 1-.19.083zM3.382 3.77c-.6-.604-.9-2.308-.927-2.5 0-.11.027-.192.081-.247.055-.055.137-.083.246-.083.19.028 1.854.33 2.482.907.545.55.627 1.181.245 1.731l.436.44c.11.11.11.274 0 .384a.294.294 0 0 1-.19.083.294.294 0 0 1-.191-.083L4.473 3.304a.267.267 0 0 1 0-.384c.109-.11.272-.11.382 0l.272.274c.164-.302.082-.632-.245-.961-.3-.302-1.2-.55-1.773-.687.11.604.355 1.483.682 1.813.136.138.273.22.409.275.136.055.218.22.164.357-.055.11-.164.192-.273.192h-.082a1.775 1.775 0 0 1-.627-.412zm8.536 3.847a.313.313 0 0 1 .082.22c0 .082-.055.137-.11.192L9.328 9.953a3.712 3.712 0 0 1-1.745.687l-3.846.44c-.109.027-.245.027-.381.027h-1.5c-.11.33-.41.55-.764.55H.273c-.164 0-.273-.11-.273-.275 0-.165.11-.275.273-.275h.818c.164 0 .273-.11.273-.275V9.184c0-.165-.11-.275-.273-.275H.273C.109 8.91 0 8.8 0 8.634c0-.165.11-.274.273-.274h.818c.245 0 .49.11.627.33l.955-1.1a2.42 2.42 0 0 1 1.854-.851h2.837c.3 0 .545.247.545.55 0 .301-.109.604-.273.823.355-.027.71-.11 1.01-.247l1.145-.55a1.772 1.772 0 0 1 2.127.303zM9 9.514l2.29-1.704a1.212 1.212 0 0 0-1.254-.027l-1.172.55a3.05 3.05 0 0 1-1.31.301H4.91c-.164 0-.273-.11-.273-.274 0-.165.11-.275.273-.275h1.636a.807.807 0 0 0 .819-.824h-2.81c-.572 0-1.09.247-1.445.659l-1.2 1.374v1.264h1.446c.109 0 .218-.028.327-.028l3.845-.44A2.877 2.877 0 0 0 9 9.515z"/>
</svg>
