<?xml version="1.0" encoding="UTF-8"?>
<svg width="16px" height="20px" viewBox="0 0 16 20" version="1.1" xmlns="http://www.w3.org/2000/svg" xmlns:xlink="http://www.w3.org/1999/xlink">
    <!-- Generator: Sketch 57.1 (83088) - https://sketch.com -->
    <title>Group 29</title>
    <desc>Created with Sketch.</desc>
    <g id="Desktop" stroke="none" stroke-width="1" fill="none" fill-rule="evenodd">
        <g id="Group-29" transform="translate(1.000000, 1.000000)" stroke="#785EE5" stroke-width="1.125">
            <g id="Group-4">
                <path d="M6.66,2.16 L6.84,2.16 C8.03293506,2.16 9,3.12706494 9,4.32 L9,5.23211178 C9,5.66577331 8.64844787,6.01732544 8.21478634,6.01732544 C8.09716223,6.01732544 7.98104085,5.99089961 7.875,5.94 L7.3990966,5.71156637 C6.98877601,5.51461248 6.51122399,5.51461248 6.1009034,5.71156637 L5.625,5.94 C5.23404413,6.12765882 4.76498426,5.96285399 4.57732544,5.57189813 C4.52642583,5.46585728 4.5,5.3497359 4.5,5.23211178 L4.5,4.32 C4.5,3.12706494 5.46706494,2.16 6.66,2.16 Z" id="Rectangle"></path>
                <path d="M6.66,2.16 L6.84,2.16 C8.03293506,2.16 9,3.12706494 9,4.32 L9,5.23211178 C9,5.66577331 8.64844787,6.01732544 8.21478634,6.01732544 C8.09716223,6.01732544 7.98104085,5.99089961 7.875,5.94 L7.3990966,5.71156637 C6.98877601,5.51461248 6.51122399,5.51461248 6.1009034,5.71156637 L5.625,5.94 C5.23404413,6.12765882 4.76498426,5.96285399 4.57732544,5.57189813 C4.52642583,5.46585728 4.5,5.3497359 4.5,5.23211178 L4.5,4.32 C4.5,3.12706494 5.46706494,2.16 6.66,2.16 Z" id="Rectangle"></path>
                <path d="M1.48802722,14.4 L2.25,14.4 L2.25,14.4 C4.25,14.88 5.75,15.12 6.75,15.12 C7.75,15.12 9.25,14.88 11.25,14.4 L12.0119728,14.4 C12.6471826,14.4 13.1621219,14.9149393 13.1621219,15.5501492 C13.1621219,15.6479515 13.1496473,15.7453544 13.125,15.84 L12.9956055,16.336875 C12.8456378,16.912771 12.3693997,17.3455475 11.7818237,17.4398925 C9.45627659,17.8132975 7.77900202,18 6.75,18 C5.7209952,18 4.04371435,17.8132965 1.71815745,17.4398895 C1.13059418,17.3455269 0.654363911,16.9127574 0.504393786,16.3368721 L0.375,15.84 C0.214919803,15.225292 0.583468421,14.5972021 1.19817638,14.4371219 C1.29282203,14.4124746 1.39022493,14.4 1.48802722,14.4 Z" id="Rectangle"></path>
                <path d="M2.25,12.96 C4.25,13.44 5.75,13.68 6.75,13.68 C7.75,13.68 9.25,13.44 11.25,12.96" id="Rectangle-Copy-21"></path>
                <path d="M6.75,13.68 L6.75,15.12" id="Line-2"></path>
                <path d="M0.75,10.8 C1.18689631,10.8 1.56385883,11.1065224 1.65296569,11.5342353 L2.02055146,13.298647 C2.12359301,13.7932464 1.80617264,14.2777302 1.31157322,14.3807717 C1.25020523,14.3935567 1.18768562,14.4 1.125,14.4 C0.503679656,14.4 7.6089797e-17,13.8963203 0,13.275 L0,11.55 C-5.07265313e-17,11.1357864 0.335786438,10.8 0.75,10.8 Z" id="Rectangle"></path>
                <path d="M12.75,10.8 C13.1642136,10.8 13.5,11.1357864 13.5,11.55 L13.5,13.275 C13.5,13.8963203 12.9963203,14.4 12.375,14.4 C11.8697811,14.4 11.4602202,13.9904392 11.4602202,13.4852202 C11.4602202,13.4225346 11.4666635,13.360015 11.4794485,13.298647 L11.8470343,11.5342353 C11.9361412,11.1065224 12.3131037,10.8 12.75,10.8 Z" id="Rectangle-Copy-17"></path>
                <path d="M4.71644732,0.780884229 L4.875,0.72 C6.0820334,0.256499175 7.4179666,0.256499175 8.625,0.72 L8.78355268,0.780884229 C9.85343554,1.19171925 10.6412579,2.11803772 10.875,3.24 L11.25,5.04 L11.625,6.84 C11.8727625,8.0292601 11.8932884,9.25465864 11.6854949,10.4515495 L11.25,12.96 L11.25,12.96 L6.75,13.68 L2.25,12.96 L1.81450512,10.4515495 C1.60671157,9.25465864 1.62723748,8.0292601 1.875,6.84 L2.25,5.04 L2.625,3.24 C2.85874214,2.11803772 3.64656446,1.19171925 4.71644732,0.780884229 Z" id="Rectangle"></path>
                <path d="M4.76213204,16.3315044 C5.70519553,15.5238348 6.36781819,15.12 6.75,15.12 C7.13218067,15.12 7.7948005,15.5238324 8.7378595,16.3314972 C8.90423427,16.4739854 9,16.6820887 9,16.90114 L9,16.92 C9,17.1402744 8.86824505,17.3391866 8.66541926,17.425108 C7.76079247,17.8083693 7.12231938,18 6.75,18 C6.37768062,18 5.73920753,17.8083693 4.83458074,17.425108 C4.63175495,17.3391866 4.5,17.1402744 4.5,16.92 L4.5,16.9011562 C4.49998778,16.6821016 4.59575491,16.4739951 4.76213204,16.3315044 Z" id="Rectangle"></path>
                <path d="M7.9254517,7.71578318 L8.25,7.56 C8.51063724,7.43489412 8.82334383,7.544764 8.94844971,7.80540125 C8.98238278,7.87609515 9,7.9535094 9,8.03192548 L9,8.88807452 C9,9.17651587 8.83458483,9.43939928 8.5745483,9.56421682 L8.25,9.72 C7.98936276,9.84510588 7.67665617,9.735236 7.55155029,9.47459875 C7.51761722,9.40390485 7.5,9.3264906 7.5,9.24807452 L7.5,8.39192548 C7.5,8.10348413 7.66541517,7.84060072 7.9254517,7.71578318 Z" id="Rectangle-Copy-22"></path>
                <path d="M4.9254517,7.71578318 L5.25,7.56 C5.51063724,7.43489412 5.82334383,7.544764 5.94844971,7.80540125 C5.98238278,7.87609515 6,7.9535094 6,8.03192548 L6,8.88807452 C6,9.17651587 5.83458483,9.43939928 5.5745483,9.56421682 L5.25,9.72 C4.98936276,9.84510588 4.67665617,9.735236 4.55155029,9.47459875 C4.51761722,9.40390485 4.5,9.3264906 4.5,9.24807452 L4.5,8.39192548 C4.5,8.10348413 4.66541517,7.84060072 4.9254517,7.71578318 Z" id="Rectangle-Copy-23" transform="translate(5.250000, 8.640000) scale(-1, 1) translate(-5.250000, -8.640000) "></path>
            </g>
        </g>
    </g>
</svg>