<?xml version="1.0" encoding="UTF-8"?>
<svg width="18px" height="17px" viewBox="0 0 18 17" version="1.1" xmlns="http://www.w3.org/2000/svg" xmlns:xlink="http://www.w3.org/1999/xlink">
    <!-- Generator: Sketch 57.1 (83088) - https://sketch.com -->
    <title>Group 31</title>
    <desc>Created with Sketch.</desc>
    <g id="Desktop" stroke="none" stroke-width="1" fill="none" fill-rule="evenodd">
        <g id="Group-31" transform="translate(-0.000143, -0.000060)" fill="#F6BD84" fill-rule="nonzero">
            <path d="M16.5803158,5.11696339 C16.4161434,5.11696339 16.252902,5.04493454 16.1396262,4.90595377 C15.5055917,4.127598 13.642902,2.01020377 12.6532124,1.56629031 C12.491833,1.49457877 12.3282813,1.43270377 12.1687641,1.38288646 C11.8658675,1.28832877 11.6957986,0.960867234 11.787971,0.651492234 C11.8804537,0.341799927 12.2004193,0.168232619 12.5033158,0.262473003 C12.7041089,0.325299927 12.9089365,0.402723003 13.1115917,0.492838388 C14.5280055,1.1284057 16.7693158,3.84836723 17.0203848,4.156473 C17.2227296,4.40492493 17.189833,4.77427108 16.946833,4.981473 C16.8394537,5.07254031 16.7094193,5.11696339 16.5803158,5.11696339 Z" id="Path"></path>
            <path d="M14.8073158,8.57688646 C14.8004882,8.57688646 14.7933503,8.57656916 14.786833,8.57656916 C14.6325917,8.57054031 14.4873503,8.50168454 14.3833848,8.38523262 L13.0060744,6.83677108 C12.7931779,6.59752108 12.8105572,6.2269057 13.0445572,6.00923262 C13.2788675,5.79092493 13.6410399,5.80901146 13.8539365,6.04857877 L14.8367986,7.15376146 L16.9365917,5.11156916 C17.1656262,4.88945377 17.5284193,4.89802108 17.7465917,5.13219416 C17.9644537,5.36668454 17.9554537,5.73729993 17.7264193,5.96036723 L15.2020744,8.41505954 C15.0956262,8.51945377 14.9541089,8.57688646 14.8073158,8.57688646 Z" id="Path"></path>
            <path d="M1.32438477,5.11696339 C1.19497098,5.11696339 1.06524684,5.07254031 0.957867531,4.9811557 C0.714867531,4.77427108 0.681660635,4.40492493 0.884315807,4.1561557 C1.13538477,3.84804993 3.37638477,1.12808839 4.7909365,0.493473003 C4.99514339,0.402723003 5.19997098,0.325299927 5.40169512,0.262155696 C5.70335029,0.167915311 6.02424684,0.341482619 6.11703995,0.651174927 C6.2095227,0.960549927 6.03914339,1.28801146 5.73624684,1.38256916 C5.57579857,1.43270377 5.41224684,1.49457877 5.24962615,1.56692493 C4.26055719,2.01052108 2.39879857,4.127598 1.76507443,4.90563646 C1.65148822,5.04493454 1.48855719,5.11696339 1.32438477,5.11696339 Z" id="Path"></path>
            <path d="M8.95235029,16.3836076 C7.47945374,16.3836076 6.78645374,15.4900692 6.22938477,14.7716845 C5.67169512,14.052348 5.31697098,13.6455595 4.50914339,13.6455595 C4.19259167,13.6455595 3.93624684,13.3834634 3.93624684,13.0598095 L3.93624684,5.07031916 C3.93624684,4.74666531 4.19259167,4.48456916 4.50914339,4.48456916 C4.82569512,4.48456916 5.08203995,4.74698262 5.08203995,5.07031916 L5.08203995,12.5270499 C6.10586753,12.7266365 6.66479857,13.4472422 7.12721236,14.0434634 C7.63369512,14.6964826 8.0337296,15.2121076 8.95266063,15.2121076 C9.87159167,15.2121076 10.2716262,14.6964826 10.7781089,14.0434634 C11.2405227,13.4472422 11.7994537,12.7266365 12.8232813,12.5270499 L12.8232813,5.07031916 C12.8232813,4.74666531 13.0796262,4.48456916 13.3961779,4.48456916 C13.7127296,4.48456916 13.9690744,4.74698262 13.9690744,5.07031916 L13.9690744,13.0598095 C13.9690744,13.3834634 13.7127296,13.6455595 13.3961779,13.6455595 C12.5883503,13.6455595 12.2336262,14.052348 11.6759365,14.7716845 C11.1182468,15.4897518 10.4252468,16.3836076 8.95235029,16.3836076 Z" id="Path"></path>
            <path d="M8.95235029,3.21279993 C6.93541926,3.21279993 6.34483305,1.50758839 6.31441926,0.605799927 C6.30355719,0.282463388 6.55059167,0.0114826188 6.86714339,5.95419141e-05 C7.18648822,-0.00438276578 7.44655719,0.240261465 7.45928132,0.562011465 C7.47107443,0.810780696 7.59831581,2.04098262 8.95235029,2.04098262 C10.3551089,2.04098262 10.4404537,0.716223003 10.4457296,0.565184542 C10.4562813,0.242165311 10.7253503,-0.0034308427 11.0375572,5.95419141e-05 C11.3541089,0.0114826188 11.6011434,0.282463388 11.5902813,0.605799927 C11.5601779,1.50758839 10.9695917,3.21279993 8.95235029,3.21279993 Z" id="Path"></path>
            <path d="M3.09707443,8.57688646 C2.95028132,8.57688646 2.80876408,8.51913646 2.70231581,8.41569416 L0.17797098,5.96100185 C-0.0510635031,5.73793454 -0.060373848,5.36700185 0.157798566,5.13282877 C0.376281324,4.8986557 0.738764083,4.88945377 0.967798566,5.11220377 L3.06759167,7.15439608 L4.05045374,6.04921339 C4.26303995,5.80996339 4.62583305,5.79187685 4.85983305,6.00986723 C5.09383305,6.22754031 5.11121236,6.5981557 4.89831581,6.8374057 L3.52100546,8.38586723 C3.41703995,8.50231916 3.27179857,8.57117493 3.11755719,8.57720377 C3.11103995,8.57656916 3.10421236,8.57688646 3.09707443,8.57688646 Z" id="Path"></path>
            <path d="M7.58559167,9.52563646 C7.58559167,9.52563646 7.58559167,9.52563646 7.58559167,9.52880954 L7.58559167,9.52880954 C7.21317788,9.31018454 7.0859365,8.82438646 7.29697098,8.44361723 L7.29697098,8.44361723 C7.51079857,8.06602108 7.9859365,7.93275185 8.3549365,8.15169416 L8.3549365,8.15169416 C8.72735029,8.37063646 8.85769512,8.85294416 8.64386753,9.23371339 L8.64386753,9.23371339 C8.50110891,9.49104993 8.23700546,9.63352108 7.97041926,9.63352108 L7.97041926,9.63352108 C7.84038477,9.63320377 7.70662615,9.59861723 7.58559167,9.52563646 Z M9.27417788,9.23054031 C9.0569365,8.85294416 9.18417788,8.36746339 9.55317788,8.14852108 L9.55317788,8.14852108 C9.92248822,7.9264057 10.3973158,8.05650185 10.6145572,8.434098 L10.6145572,8.434098 C10.8286951,8.81486723 10.7045572,9.300348 10.3321434,9.51929031 L10.3321434,9.51929031 C10.2111089,9.59195377 10.077971,9.62717493 9.94421236,9.62717493 L9.94421236,9.62717493 C9.67762615,9.62717493 9.4169365,9.48438646 9.27417788,9.23054031 Z M6.20145374,7.10108839 C6.19835029,6.66320377 6.54283305,6.30781916 6.97079857,6.30464608 L6.97079857,6.30464608 C7.39938477,6.301473 7.75007443,6.65368454 7.75317788,7.09156916 L7.75317788,7.09474223 C7.75628132,7.52945377 7.40869512,7.88801146 6.98041926,7.89118476 L6.98041926,7.89118476 L6.97731581,7.89118476 L6.97731581,7.89118476 C6.54935029,7.89150185 6.20145374,7.538973 6.20145374,7.10108839 Z M10.1521434,7.08554031 C10.1521434,7.08236723 10.1521434,7.07919416 10.1521434,7.07602108 L10.1521434,7.07602108 L10.1521434,7.072848 L10.1521434,7.072848 C10.1459365,6.63179031 10.4907296,6.27323262 10.9190055,6.27005954 L10.9190055,6.27005954 C11.3472813,6.26371339 11.697971,6.61592493 11.7038675,7.05380954 L11.7038675,7.05380954 C11.7038675,7.0601557 11.7038675,7.06967493 11.7038675,7.07602108 L11.7038675,7.07602108 C11.7038675,7.07919416 11.7038675,7.08236723 11.7038675,7.08554031 L11.7038675,7.08554031 C11.7038675,7.52342493 11.3565917,7.87880954 10.9280055,7.87880954 L10.9280055,7.87880954 C10.4997296,7.87880954 10.1521434,7.52310762 10.1521434,7.08554031 Z M7.28145374,5.74618454 C7.0645227,5.36858839 7.18835029,4.88310762 7.55797098,4.66099223 L7.55797098,4.66099223 L7.55797098,4.66099223 L7.55797098,4.66099223 C7.92697098,4.43887685 8.40210891,4.56579993 8.61935029,4.940223 L8.61935029,4.940223 C8.83659167,5.31781916 8.71245374,5.806473 8.34624684,6.02858839 L8.34624684,6.02858839 C8.22210891,6.10156916 8.08555719,6.136473 7.95179857,6.136473 L7.95179857,6.136473 C7.68521236,6.136473 7.42762615,5.99685762 7.28145374,5.74618454 Z M9.54076408,6.01589608 C9.16835029,5.80012685 9.03800546,5.31781916 9.24935029,4.93704993 L9.24935029,4.93704993 C9.46038477,4.55310762 9.93179857,4.41983839 10.3042124,4.63560762 L10.3042124,4.63560762 C10.6766262,4.85137685 10.8100744,5.33368454 10.5990399,5.71762685 L10.5990399,5.71762685 C10.4562813,5.97464608 10.1924882,6.12060976 9.92248822,6.12060976 L9.92248822,6.12060976 C9.79245374,6.12092493 9.66210891,6.08602108 9.54076408,6.01589608 Z" id="Shape"></path>
        </g>
    </g>
</svg>