<?xml version="1.0" encoding="UTF-8"?>
<svg width="20px" height="17px" viewBox="0 0 20 17" version="1.1" xmlns="http://www.w3.org/2000/svg" xmlns:xlink="http://www.w3.org/1999/xlink">
    <!-- Generator: Sketch 57.1 (83088) - https://sketch.com -->
    <title>Group 36</title>
    <desc>Created with Sketch.</desc>
    <g id="Desktop" stroke="none" stroke-width="1" fill="none" fill-rule="evenodd">
        <g id="Group-36" transform="translate(1.322500, 0.845119)" stroke="#DE5AA5" stroke-width="1.125">
            <path d="M7.57125,9.00113139 L7.57125,14.4048814 C7.57125,14.9226483 7.15151695,15.3423814 6.63375,15.3423814 L0.9375,15.3423814 C0.419733047,15.3423814 0,14.9226483 0,14.4048814 L0,8.69363139 C0,8.17586444 0.419733047,7.75613139 0.9375,7.75613139 L6.63375,7.75613139 C6.73566823,7.75678258 6.83686966,7.77322782 6.93375,7.80488139" id="Path"></path>
            <path d="M14.085,7.75613139 L16.4175,7.75613139 C16.935267,7.75613139 17.355,8.17586444 17.355,8.69363139 L17.355,14.4048814 C17.355,14.9226483 16.935267,15.3423814 16.4175,15.3423814 L10.72125,15.3423814 C10.21082,15.3321708 9.80239788,14.9154135 9.80249998,14.4048814 L9.80249998,8.73113139" id="Path"></path>
            <path d="M8.26193947,1 L12.0831895,1 C13.1187234,1 13.9581895,1.83946609 13.9581895,2.875 L13.9581895,6.69625 C13.9581895,7.73178391 13.1187234,8.57125 12.0831895,8.57125 L8.26193947,8.57125 C7.22640556,8.57125 6.38693947,7.73178391 6.38693947,6.69625 L6.38693947,2.875 C6.38693947,1.83946609 7.22640556,1 8.26193947,1 Z" id="Rectangle" transform="translate(10.172564, 4.785625) rotate(-11.660000) translate(-10.172564, -4.785625) "></path>
            <path d="M4.02375,13.1111314 L3.21375,13.1111314 C3.09772815,13.1111314 2.98651208,13.0647911 2.9048251,12.9823999 C2.82313811,12.9000087 2.77774981,12.7883989 2.77873381,12.6723814 L2.77873381,10.1711314 C2.77873381,9.93088752 2.97350613,9.73613139 3.21375,9.73613139 L3.825,9.73613139 C4.17148017,9.73613139 4.45293762,10.0159074 4.455,10.3623814 L4.455,10.3623814 C4.455,10.7103208 4.17293939,10.9923814 3.825,10.9923814 L2.77873381,10.9923814" id="Path" stroke-linecap="round" stroke-linejoin="round"></path>
            <path d="M3.67875,10.9923814 L3.9825,10.9923814 C4.56654112,10.9923814 5.04,11.4658403 5.04,12.0498814 L5.04,12.0498814 C5.04,12.6345322 4.56714719,13.1090655 3.9825,13.1111314 L3.67875,13.1111314" id="Path" stroke-linecap="round" stroke-linejoin="round"></path>
            <polyline id="Path" stroke-linecap="round" stroke-linejoin="round" points="11.77125 6.00113139 9.74625 2.81363139 9.43875 6.57113139"></polyline>
            <path d="M11.01375,4.81613139 L9.54375,5.14613139" id="Path" stroke-linecap="round" stroke-linejoin="round"></path>
            <path d="M14.98875,12.9723814 C14.3669762,13.431896 13.5197678,13.4378402 12.8916074,12.9870954 C12.263447,12.5363507 11.9977836,11.7318505 12.2339959,10.9956712 C12.4702081,10.2594918 13.1543538,9.75974963 13.9275,9.75863139 C14.3094095,9.75863139 14.6813009,9.88082041 14.98875,10.1073814" id="Path" stroke-linecap="round" stroke-linejoin="round" fill-rule="nonzero"></path>
        </g>
    </g>
</svg>