<?xml version="1.0" encoding="UTF-8"?>
<svg width="18px" height="17px" viewBox="0 0 18 17" version="1.1" xmlns="http://www.w3.org/2000/svg" xmlns:xlink="http://www.w3.org/1999/xlink">
    <!-- Generator: Sketch 57.1 (83088) - https://sketch.com -->
    <title>Group 32</title>
    <desc>Created with Sketch.</desc>
    <g id="Desktop" stroke="none" stroke-width="1" fill="none" fill-rule="evenodd">
        <g id="Group-32" fill="#509EF7" fill-rule="nonzero">
            <path d="M1.19358621,5.76441509 C0.877034483,5.76441509 0.620689655,5.50695283 0.620689655,5.18940566 L0.620689655,0.574698113 C0.620689655,0.257462264 0.877034483,4.4408921e-14 1.19358621,4.4408921e-14 L16.7108276,4.4408921e-14 C17.0273793,4.4408921e-14 17.2837241,0.257462264 17.2837241,0.574698113 C17.2837241,0.891933962 17.0273793,1.14939623 16.7108276,1.14939623 L1.76617241,1.14939623 L1.76617241,5.18940566 C1.76617241,5.50695283 1.50982759,5.76441509 1.19358621,5.76441509 Z" id="Path"></path>
            <path d="M10.8040345,16.4175 L7.10006897,16.4175 C3.52706897,16.4175 0.620689655,13.5016698 0.620689655,9.91774528 L0.620689655,9.29448113 C0.620689655,8.97693396 0.877034483,8.7194717 1.19358621,8.7194717 C1.51013793,8.7194717 1.76648276,8.97693396 1.76648276,9.29448113 L1.76648276,9.91774528 C1.76648276,12.8681321 4.15924138,15.2681038 7.10037931,15.2681038 L10.8046552,15.2681038 C13.7451724,15.2681038 16.137931,12.8681321 16.137931,9.91774528 L16.137931,9.29448113 C16.137931,8.97693396 16.3942759,8.7194717 16.7108276,8.7194717 C17.0273793,8.7194717 17.2837241,8.97693396 17.2837241,9.29448113 L17.2837241,9.91774528 C17.2834138,13.5016698 14.3770345,16.4175 10.8040345,16.4175 Z" id="Path"></path>
            <path d="M16.7108276,5.76410377 C16.3942759,5.76410377 16.137931,5.50664151 16.137931,5.18940566 L16.137931,1.99120755 C16.137931,1.67366038 16.3942759,1.41650943 16.7108276,1.41650943 C17.0273793,1.41650943 17.2837241,1.6739717 17.2837241,1.99120755 L17.2837241,5.18909434 C17.2834138,5.50664151 17.027069,5.76410377 16.7108276,5.76410377 Z" id="Path"></path>
            <path d="M16.7108276,3.56680189 L2.59386207,3.56680189 C2.27731034,3.56680189 2.02096552,3.30933962 2.02096552,2.99210377 C2.02096552,2.67486792 2.27731034,2.41740566 2.59386207,2.41740566 L16.7105172,2.41740566 C17.027069,2.41740566 17.2834138,2.67486792 17.2834138,2.99210377 C17.2834138,3.30933962 17.027069,3.56680189 16.7108276,3.56680189 Z" id="Path"></path>
            <path d="M10.8040345,16.4175 C10.4874828,16.4175 10.2311379,16.1600377 10.2311379,15.8424906 C10.2311379,12.6726226 12.1593103,10.1889057 15.1432759,9.51520755 C15.4517586,9.44733962 15.7583793,9.63973585 15.8278966,9.94981132 C15.8977241,10.2592642 15.7037586,10.5668491 15.3946552,10.6365849 C12.9162414,11.1960283 11.3766207,13.1906604 11.3766207,15.8424906 C11.376931,16.1600377 11.1205862,16.4175 10.8040345,16.4175 Z" id="Path"></path>
            <path d="M7.10006897,16.4175 C6.78351724,16.4175 6.52717241,16.1600377 6.52717241,15.8424906 C6.52717241,13.1906604 4.98755172,11.1960283 2.50913793,10.6365849 C2.20034483,10.5668491 2.00637931,10.2592642 2.07589655,9.94981132 C2.14572414,9.63973585 2.45327586,9.44733962 2.76051724,9.51520755 C5.74448276,10.1889057 7.67265545,12.672934 7.67265545,15.8424906 C7.67296552,16.1600377 7.41631034,16.4175 7.10006897,16.4175 Z" id="Path"></path>
            <path d="M16.0901379,8.60210377 L12.3815172,8.60210377 C11.3809655,8.60210377 10.5672414,7.78550943 10.5672414,6.78212264 L10.5672414,6.26564151 C10.5672414,5.2619434 11.3809655,4.44566038 12.3815172,4.44566038 L16.0898276,4.44566038 C17.0903793,4.44566038 17.9041034,5.26225472 17.9041034,6.26564151 L17.9041034,6.78212264 C17.9041034,7.78550943 17.0903793,8.60210377 16.0901379,8.60210377 Z M12.3815172,5.5950566 C12.0128276,5.5950566 11.7130345,5.89579245 11.7130345,6.26564151 L11.7130345,6.78212264 C11.7130345,7.1519717 12.0131379,7.45270755 12.3815172,7.45270755 L16.0898276,7.45270755 C16.4585172,7.45270755 16.7583103,7.1519717 16.7583103,6.78212264 L16.7583103,6.26564151 C16.7583103,5.89579245 16.4582069,5.5950566 16.0898276,5.5950566 L12.3815172,5.5950566 Z" id="Shape"></path>
            <path d="M5.52258621,8.60210377 L1.81427586,8.60210377 C0.813724138,8.60210377 -1.21680443e-13,7.78550943 -1.21680443e-13,6.78212264 L-1.21680443e-13,6.26564151 C-1.21680443e-13,5.2619434 0.813724138,4.44566038 1.81427586,4.44566038 L5.52258621,4.44566038 C6.52313793,4.44566038 7.33686207,5.26225472 7.33686207,6.26564151 L7.33686207,6.78212264 C7.33686207,7.78550943 6.52313793,8.60210377 5.52258621,8.60210377 Z M1.81427586,5.5950566 C1.44558621,5.5950566 1.1457931,5.89579245 1.1457931,6.26564151 L1.1457931,6.78212264 C1.1457931,7.1519717 1.44589655,7.45270755 1.81427586,7.45270755 L5.52258621,7.45270755 C5.89127586,7.45270755 6.19106897,7.1519717 6.19106897,6.78212264 L6.19106897,6.26564151 C6.19106897,5.89579245 5.89096552,5.5950566 5.52258621,5.5950566 L1.81427586,5.5950566 Z" id="Shape"></path>
        </g>
    </g>
</svg>