<?xml version="1.0" encoding="UTF-8"?>
<svg width="12px" height="20px" viewBox="0 0 12 20" version="1.1" xmlns="http://www.w3.org/2000/svg" xmlns:xlink="http://www.w3.org/1999/xlink">
    <!-- Generator: Sketch 57.1 (83088) - https://sketch.com -->
    <title>Group 37</title>
    <desc>Created with Sketch.</desc>
    <g id="Desktop" stroke="none" stroke-width="1" fill="none" fill-rule="evenodd">
        <g id="Group-37" transform="translate(2.078545, 1.314182)">
            <path d="M5.32179758,9.97487414 L5.3078616,9.97506147 L3.26645855,9.97825836 C1.14930284,9.97207101 -0.580224333,8.35211198 -0.586956522,6.33017415 L-0.586953919,3.42403094 C-0.580338014,1.20249913 1.32364198,-0.580860884 3.65748617,-0.586956522 L4.6049828,-0.586954512 C6.9369517,-0.580851364 8.8400621,1.20336007 8.84447431,3.42577894 L8.84447127,6.55916818 C8.83848217,8.42086008 7.27014799,9.92554226 5.32179758,9.97487414 Z" id="Path" stroke="#785EE5" stroke-width="1.17391304" stroke-linecap="round"></path>
            <path d="M4.32341502,10.3332806 C6.14020553,13.9600316 1.18159684,13.9600316 4.28243478,17.5867826" id="Path" stroke="#785EE5" stroke-width="1.17391304" stroke-linecap="round"></path>
            <path d="M5.40256126,1.39332806 C5.40256126,1.39332806 6.94273518,1.64603953 7.01103557,3.7496917" id="Path" stroke="#785EE5" stroke-width="1.17391304" stroke-linecap="round"></path>
            <polyline id="Path" stroke="#785EE5" stroke-width="1.17391304" stroke-linecap="round" stroke-linejoin="round" points="5.02737372 10.023083 5.85789723 11.1158893 2.72746245 11.1158893 3.64103832 10.026498"></polyline>
            <path d="M5.41237945,3.5715415 C5.08821231,3.5715415 4.82542292,3.83433089 4.82542292,4.15849802 C4.82542292,4.48266516 5.08821231,4.74545455 5.41237945,4.74545455 C5.73654658,4.74545455 5.99933597,4.48266516 5.99933597,4.15849802 C5.99933597,3.83433089 5.73654658,3.5715415 5.41237945,3.5715415 L5.41237945,3.5715415 Z" id="Path" fill="#785EE5" fill-rule="nonzero"></path>
            <path d="M2.95356522,3.5715415 C2.62939808,3.5715415 2.3666087,3.83433089 2.3666087,4.15849802 C2.3666087,4.48266516 2.62939808,4.74545455 2.95356522,4.74545455 C3.27773235,4.74545455 3.54052174,4.48266516 3.54052174,4.15849802 C3.54052174,3.83433089 3.27773235,3.5715415 2.95356522,3.5715415 L2.95356522,3.5715415 Z" id="Path" fill="#785EE5" fill-rule="nonzero"></path>
            <path d="M5.32401581,6.22899605 C5.32401581,6.90797885 4.7735915,7.45840316 4.0946087,7.45840316 C3.41562589,7.45840316 2.86520158,6.90797885 2.86520158,6.22899605" id="Path" stroke="#785EE5" stroke-width="1.17391304" stroke-linecap="round" stroke-linejoin="round"></path>
        </g>
    </g>
</svg>