<?xml version="1.0" encoding="UTF-8"?>
<svg width="14px" height="18px" viewBox="0 0 14 18" version="1.1" xmlns="http://www.w3.org/2000/svg" xmlns:xlink="http://www.w3.org/1999/xlink">
    <!-- Generator: Sketch 57.1 (83088) - https://sketch.com -->
    <title>Group 33</title>
    <desc>Created with Sketch.</desc>
    <g id="Desktop" stroke="none" stroke-width="1" fill="none" fill-rule="evenodd">
        <g id="Group-33" fill="#64D4C7">
            <path d="M8.72396094,17.9045446 L4.16189197,17.9045446 C3.16134025,17.9045446 2.34761611,17.0908205 2.34761611,16.0902688 L2.34761611,10.2750274 C2.34761611,9.95847567 2.60396094,9.70213085 2.92051266,9.70213085 C3.23675404,9.70213085 3.49340922,9.95847567 3.49340922,10.2750274 L3.49340922,16.0902688 C3.49340922,16.4589584 3.79320232,16.7587515 4.16189197,16.7587515 L8.72396094,16.7587515 C9.09265059,16.7587515 9.39213335,16.4589584 9.39213335,16.0902688 L9.39151266,11.7594067 C9.39151266,11.442855 9.64785749,11.1865102 9.96440922,11.1865102 C10.2806506,11.1861998 10.5373058,11.442855 10.5373058,11.7594067 L10.5382368,16.0902688 C10.5382368,17.0908205 9.72420232,17.9045446 8.72396094,17.9045446" id="Fill-118"></path>
            <path d="M9.51347818,8.96630326 L3.3714437,8.96692395 C3.13806439,8.96692395 2.94813335,9.15747567 2.94782263,9.39147567 C2.94751266,9.62485498 3.13837473,9.81478602 3.37299542,9.81540671 L9.51285749,9.81540671 C9.74716784,9.81509636 9.93771956,9.62485498 9.93771956,9.39147567 C9.93771956,9.15685498 9.74716784,8.96630326 9.51347818,8.96630326 Z M9.51378853,10.9611998 L3.37175404,10.9611998 C2.50496094,10.9593377 1.80109887,10.2545446 1.80202898,9.39054464 C1.80234025,8.52530326 2.50651266,7.82144119 3.3714437,7.82144119 L9.51347818,7.8208205 C10.3793403,7.8208205 11.0835131,8.52499291 11.0835131,9.39116533 C11.0841334,10.255786 10.3799609,10.9602688 9.51378853,10.9611998 L9.51378853,10.9611998 Z" id="Fill-119"></path>
            <path d="M3.37113335,8.96723429 C3.27709887,8.96723429 3.18182301,8.94395843 3.09368508,8.89523429 C2.81685749,8.7416136 2.7172368,8.39278602 2.87054715,8.11626878 C3.57099542,6.85347567 4.76396094,6.12137222 6.22940922,6.05433774 C6.55216784,6.04037222 6.81378853,6.28430326 6.82806439,6.60054464 C6.84265059,6.91678602 6.59778853,7.1846136 6.28185749,7.19888947 C5.22854715,7.24699291 4.37292646,7.77023429 3.87265059,8.67209636 C3.76806439,8.86047567 3.57254715,8.96723429 3.37113335,8.96723429" id="Fill-120"></path>
            <path d="M9.51378853,8.9666136 C9.31237473,8.9666136 9.11685749,8.85985498 9.01227128,8.67116533 C8.62930577,7.98033774 8.14113335,7.56106188 7.47575404,7.35188947 C7.23709887,7.27709636 7.07478853,7.0558205 7.07478853,6.80537222 C7.07478853,4.90854464 4.32482301,3.93468257 4.29689197,3.92506188 L4.26678853,3.91388947 C3.34909887,3.53713085 2.79389197,2.88075153 2.45934025,2.25199291 L1.69216784,4.12119981 C2.36375404,3.91575153 3.21285749,3.83475153 4.13675404,4.17551016 C5.03582301,4.50695843 5.52958163,4.9526136 5.58296094,5.00288947 C5.81447818,5.21857912 5.82689197,5.58106188 5.61120232,5.81226878 C5.39520232,6.04409636 5.03271956,6.05651016 4.80120232,5.84051016 C4.80027128,5.83988947 4.42475404,5.50285498 3.7404437,5.25054464 C2.25171956,4.70123429 0.995133354,5.7328205 0.942685078,5.77751016 C0.740650595,5.94664809 0.447995423,5.95688947 0.235409216,5.80140671 C0.0228230087,5.64592395 -0.0572459568,5.36599291 0.0426850777,5.12206188 L1.99878853,0.355475673 C2.09965059,0.109992914 2.35630577,-0.0349381203 2.61885749,0.00726877626 C2.88109887,0.049165328 3.08065059,0.265786018 3.10020232,0.530510156 C3.10609887,0.598475673 3.25909887,2.25199291 4.68916784,2.84847567 C4.9734437,2.94995843 7.88571956,4.04516533 8.19420232,6.39788947 C8.96106439,6.7290274 9.55909887,7.29416533 10.0143747,8.11595843 C10.1676851,8.39247567 10.067754,8.74099291 9.7912368,8.8946136 C9.70309887,8.94333774 9.60782301,8.9666136 9.51378853,8.9666136" id="Fill-121"></path>
            <path d="M12.8596161,8.3186136 C12.7981678,8.3186136 12.7357885,8.30868257 12.6743403,8.28757912 C9.55878853,7.22371705 7.55178853,4.76423429 6.94475404,2.7988205 C6.8634437,2.53471705 6.98199542,2.25013085 7.22654715,2.12195843 C8.63209887,1.38613085 9.45916784,1.90037222 9.74902991,2.15609636 C10.2877885,2.62999291 10.4833058,3.44775153 10.2250989,4.14478602 C10.1152368,4.44147567 9.78565059,4.59230326 9.48896094,4.48306188 C9.19227128,4.37288947 9.04082301,4.04330326 9.15099542,3.7466136 C9.24347818,3.49678602 9.17365059,3.17588947 8.99209887,3.01606188 C8.82575404,2.86926878 8.55513335,2.84723429 8.22027128,2.9456136 C8.89527128,4.50168257 10.5869609,6.36406188 13.0445816,7.20323429 C13.3440644,7.30533774 13.503892,7.63119981 13.4017885,7.93068257 C13.3204782,8.16871705 13.0979609,8.3186136 12.8596161,8.3186136" id="Fill-122"></path>
            <path d="M5.63447818,12.6050964 L2.92051266,12.6050964 C2.60396094,12.6050964 2.34761611,12.3484412 2.34761611,12.0321998 C2.34761611,11.7156481 2.60396094,11.4593033 2.92051266,11.4593033 L5.63447818,11.4593033 C5.95102991,11.4593033 6.20737473,11.7156481 6.20737473,12.0321998 C6.20737473,12.3484412 5.95102991,12.6050964 5.63447818,12.6050964" id="Fill-123"></path>
            <path d="M5.63447818,14.2986481 L2.92051266,14.2986481 C2.60396094,14.2986481 2.34761611,14.0419929 2.34761611,13.7257515 C2.34761611,13.4091998 2.60396094,13.152855 2.92051266,13.152855 L5.63447818,13.152855 C5.95102991,13.152855 6.20737473,13.4091998 6.20737473,13.7257515 C6.20737473,14.0419929 5.95102991,14.2986481 5.63447818,14.2986481" id="Fill-124"></path>
            <path d="M5.63447818,15.9928205 L2.92051266,15.9928205 C2.60396094,15.9928205 2.34761611,15.7361653 2.34761611,15.4199239 C2.34761611,15.1033722 2.60396094,14.8470274 2.92051266,14.8470274 L5.63447818,14.8470274 C5.95102991,14.8470274 6.20737473,15.1033722 6.20737473,15.4199239 C6.20737473,15.7361653 5.95102991,15.9928205 5.63447818,15.9928205" id="Fill-125"></path>
        </g>
    </g>
</svg>