<?xml version="1.0" encoding="UTF-8"?>
<svg width="18px" height="20px" viewBox="0 0 18 20" version="1.1" xmlns="http://www.w3.org/2000/svg" xmlns:xlink="http://www.w3.org/1999/xlink">
    <!-- Generator: Sketch 57.1 (83088) - https://sketch.com -->
    <title>Group 30</title>
    <desc>Created with Sketch.</desc>
    <g id="Desktop" stroke="none" stroke-width="1" fill="none" fill-rule="evenodd" stroke-linecap="round">
        <g id="Group-30" transform="translate(1.225000, 1.067500)" stroke="#64D4C7" stroke-width="1.125">
            <path d="M7.74375,-5.01820807e-14 C11.42625,-5.01820807e-14 14.7225,3.0225 14.7225,6.6075 L14.7225,7.6725" id="Path"></path>
            <path d="M7.74375,6.165 L7.74375,-1.86517468e-14" id="Path"></path>
            <path d="M8.05875,13.095 C7.99064756,12.9153352 7.95632157,12.7246353 7.9575,12.5325 M7.74375,6.1575 L2.68875,6.1575 C1.86032288,6.1575 1.18875,6.82907288 1.18875,7.6575 L1.18875,12.5325 M14.73,12.5325 L14.73,7.6575" id="Shape"></path>
            <path d="M1.18125,12.5325 C1.12076089,13.1733722 1.42851831,13.7931992 1.97562762,14.1323858 C2.52273693,14.4715723 3.21476307,14.4715723 3.76187238,14.1323858 C4.30898169,13.7931992 4.61673911,13.1733722 4.55625,12.5325" id="Path"></path>
            <path d="M4.5675,12.5325 C4.64966744,13.4030505 5.38058037,14.0682243 6.255,14.0682243 C7.12941963,14.0682243 7.86033256,13.4030505 7.9425,12.5325" id="Path"></path>
            <path d="M11.34,12.44625 C11.3418699,12.4749696 11.3418699,12.5037804 11.34,12.5325 C11.3418016,12.562473 11.3418016,12.592527 11.34,12.6225 C11.3277811,12.9496316 11.2180889,13.2656497 11.025,13.53 C10.7076398,13.9683505 10.1992984,14.2278996 9.658125,14.2278996 C9.1169516,14.2278996 8.60861025,13.9683505 8.29125,13.53 C8.19502867,13.3969998 8.11919352,13.2503852 8.06625,13.095" id="Path"></path>
            <path d="M14.7225,12.5325 C14.6917679,13.4259555 13.9709998,14.1411784 13.0773336,14.1650095 C12.1836673,14.1888406 11.4258056,13.5130479 11.3475,12.6225 C11.3456984,12.592527 11.3456984,12.562473 11.3475,12.5325 C11.3456301,12.5037804 11.3456301,12.4749696 11.3475,12.44625" id="Path"></path>
            <path d="M1.18125,10.51125 L14.7225,10.51125" id="Path"></path>
            <path d="M16.05,15.3075 C14.4,16.85625 11.4,17.89875 8.025,17.89875 C4.65,17.89875 1.65,16.85625 -3.64153152e-13,15.3075" id="Path"></path>
            <path d="M4.5675,12.5475 L4.5675,17.46375" id="Path"></path>
            <path d="M11.34375,12.585 L11.34375,17.50125" id="Path"></path>
        </g>
    </g>
</svg>