<?xml version="1.0" encoding="UTF-8"?>
<svg width="18px" height="18px" viewBox="0 0 18 18" version="1.1" xmlns="http://www.w3.org/2000/svg" xmlns:xlink="http://www.w3.org/1999/xlink">
    <!-- Generator: Sketch 57.1 (83088) - https://sketch.com -->
    <title>Group 35</title>
    <desc>Created with Sketch.</desc>
    <g id="Desktop" stroke="none" stroke-width="1" fill="none" fill-rule="evenodd">
        <g id="Group-35" fill="#509EF7">
            <path d="M17.3312069,16.0214495 L0.572586207,16.0214495 C0.256344828,16.0214495 1.38555833e-13,15.7651046 1.38555833e-13,15.4485529 C1.38555833e-13,15.1323115 0.256344828,14.8756563 0.572586207,14.8756563 L17.3312069,14.8756563 C17.6477586,14.8756563 17.9041034,15.1323115 17.9041034,15.4485529 C17.9041034,15.7651046 17.6477586,16.0214495 17.3312069,16.0214495" id="Fill-146"></path>
            <path d="M15.1606552,17.7205874 L2.74313793,17.7205874 C2.57213793,17.7205874 2.40982759,17.6442426 2.3012069,17.512346 L0.901862069,15.8125874 C0.700448276,15.568346 0.735517241,15.2071046 0.979758621,15.0060012 C1.224,14.8052081 1.58555172,14.8396563 1.78603448,15.0838977 L3.01344828,16.5751046 L15.1606552,16.5751046 C15.4772069,16.5751046 15.7335517,16.8314495 15.7335517,17.1480012 C15.7335517,17.4642426 15.4772069,17.7205874 15.1606552,17.7205874" id="Fill-147"></path>
            <path d="M11.5901379,9.93000118 C11.3853103,9.93000118 11.1863793,9.84589773 11.0408276,9.70313911 C10.898069,9.55758738 10.8142759,9.35896669 10.8142759,9.15413911 C10.8142759,8.94931152 10.898069,8.74727704 11.0408276,8.60451842 C11.3291379,8.31620807 11.8508276,8.31620807 12.1394483,8.60451842 C12.285,8.75069083 12.366,8.94931152 12.366,9.15413911 C12.366,9.35896669 12.285,9.55758738 12.1394483,9.70313911 C11.9935862,9.84589773 11.7946552,9.93000118 11.5901379,9.93000118" id="Fill-148"></path>
            <path d="M10.6746207,12.1644839 C10.4697931,12.1644839 10.2711724,12.0834839 10.1253103,11.9379322 C9.98255172,11.7951736 9.89875862,11.5934495 9.89875862,11.3886219 C9.89875862,11.1837943 9.98255172,10.9851736 10.1253103,10.8421046 C10.413931,10.5537943 10.9353103,10.5537943 11.223931,10.8421046 C11.3666897,10.9851736 11.4504828,11.1868977 11.4504828,11.3886219 C11.4504828,11.5934495 11.3666897,11.7951736 11.223931,11.9379322 C11.078069,12.0834839 10.8794483,12.1644839 10.6746207,12.1644839" id="Fill-149"></path>
            <path d="M13.9518621,11.6710357 C13.7467241,11.6710357 13.5484138,11.5872426 13.4025517,11.4444839 C13.2597931,11.2986219 13.176,11.0996908 13.176,10.8951736 C13.176,10.690346 13.2597931,10.4886219 13.4025517,10.3458632 C13.6911724,10.0572426 14.2156552,10.0572426 14.5011724,10.3458632 C14.6470345,10.491415 14.7277241,10.690346 14.7277241,10.8951736 C14.7277241,11.0996908 14.6470345,11.2986219 14.5011724,11.4444839 C14.355,11.5872426 14.1566897,11.6710357 13.9518621,11.6710357" id="Fill-150"></path>
            <path d="M6.31427586,9.93000118 C6.10944828,9.93000118 5.91051724,9.84589773 5.76496552,9.70313911 C5.61910345,9.55758738 5.53841379,9.35896669 5.53841379,9.15413911 C5.53841379,8.94931152 5.61910345,8.75069083 5.76496552,8.60451842 C6.05327586,8.31620807 6.57496552,8.31620807 6.86048276,8.60451842 C7.00634483,8.74727704 7.09013793,8.94931152 7.09013793,9.15413911 C7.09013793,9.35896669 7.00634483,9.55758738 6.86048276,9.70313911 C6.71772414,9.84589773 6.516,9.93000118 6.31427586,9.93000118" id="Fill-151"></path>
            <path d="M7.22948276,12.1644839 C7.02496552,12.1644839 6.82324138,12.0834839 6.68048276,11.9379322 C6.53462069,11.7951736 6.45362069,11.5934495 6.45362069,11.3886219 C6.45362069,11.1837943 6.53462069,10.9851736 6.68048276,10.8393115 C6.96910345,10.5537943 7.48737931,10.5506908 7.77910345,10.8393115 C7.92186207,10.9851736 8.00534483,11.1837943 8.00534483,11.3886219 C8.00534483,11.5934495 7.92186207,11.7951736 7.77910345,11.9379322 C7.63324138,12.0834839 7.43462069,12.1644839 7.22948276,12.1644839" id="Fill-152"></path>
            <path d="M3.95255172,11.6710357 C3.74772414,11.6710357 3.54568966,11.5872426 3.40293103,11.4413805 C3.25737931,11.2986219 3.17668966,11.0996908 3.17668966,10.8951736 C3.17668966,10.690346 3.25737931,10.4886219 3.40293103,10.3458632 C3.68875862,10.0572426 4.21013793,10.0572426 4.49875862,10.3458632 C4.64431034,10.4886219 4.72841379,10.690346 4.72841379,10.8951736 C4.72841379,11.0996908 4.64431034,11.2986219 4.49875862,11.4413805 C4.356,11.5872426 4.15427586,11.6710357 3.95255172,11.6710357" id="Fill-153"></path>
            <path d="M8.9522069,9.58551842 C8.74737931,9.58551842 8.54844828,9.50482876 8.40289655,9.35896669 C8.26013793,9.21620807 8.17634483,9.01448393 8.17634483,8.80965635 C8.17634483,8.60451842 8.26013793,8.40620807 8.40289655,8.26344945 C8.6912069,7.97482876 9.20948276,7.97141497 9.50151724,8.260346 C9.64427586,8.40620807 9.72806897,8.60793221 9.72806897,8.80965635 C9.72806897,9.01448393 9.64427586,9.21620807 9.50151724,9.35896669 C9.35565517,9.50482876 9.15672414,9.58551842 8.9522069,9.58551842" id="Fill-154"></path>
            <path d="M16.1512759,14.2018977 C15.9293793,14.2018977 15.7183448,14.0724839 15.6246207,13.8555529 C15.4995517,13.5653805 15.6333103,13.2280357 15.9237931,13.1026563 C16.3939655,12.8996908 16.6171034,12.3137598 16.4222069,11.7961046 C16.3107931,11.500346 16.0752414,11.2827943 15.7925172,11.2142081 C15.6426207,11.177277 15.5138276,11.0820012 15.4353103,10.9488632 C15.3564828,10.8160357 15.335069,10.6571391 15.3754138,10.5078632 C15.4623103,10.185415 15.399,9.84062187 15.2056552,9.58489773 C15.021931,9.34189773 14.7516207,9.21279428 14.4657931,9.23731152 C14.3072069,9.24972531 14.1520345,9.19572531 14.0353448,9.08927704 C13.9186552,8.98251842 13.851,8.83231152 13.8491379,8.67403566 C13.8444828,8.34227704 13.6936552,8.03720807 13.445069,7.85782876 C13.2092069,7.68807014 12.9218276,7.65300118 12.6571034,7.76286324 C12.5072069,7.82493221 12.339,7.82089773 12.1928276,7.75107014 C12.0463448,7.68217359 11.9361724,7.55431152 11.8896207,7.39944945 C11.7962069,7.09065635 11.574931,6.85262187 11.2981034,6.76200118 C11.0293448,6.67324256 10.7444483,6.73251842 10.5172759,6.92338049 C10.3918966,7.02889773 10.2267931,7.07638049 10.0647931,7.05124256 C9.90248276,7.027346 9.75848276,6.93486324 9.6687931,6.79738049 C9.49872414,6.53638049 9.23710345,6.38648393 8.95189655,6.38648393 C8.66668966,6.38648393 8.40537931,6.53638049 8.23531034,6.79738049 C8.14562069,6.93486324 8.00162069,7.027346 7.839,7.05124256 C7.67762069,7.07638049 7.51251724,7.02889773 7.38651724,6.92338049 C7.15965517,6.73251842 6.87475862,6.67324256 6.606,6.76200118 C6.32886207,6.85262187 6.10758621,7.09065635 6.01417241,7.39944945 C5.96762069,7.55431152 5.85775862,7.68217359 5.71127586,7.75107014 C5.56510345,7.82120807 5.39658621,7.82524256 5.247,7.76286324 C4.98196552,7.65269083 4.69458621,7.6877598 4.45903448,7.85782876 C4.21075862,8.03689773 4.05962069,8.34258738 4.05465517,8.67465635 C4.05248276,8.83293221 3.98482759,8.98282876 3.86782759,9.08958738 C3.75113793,9.19572531 3.59441379,9.24972531 3.438,9.23731152 C3.15,9.21217359 2.88248276,9.34189773 2.69813793,9.58520807 C2.50510345,9.84062187 2.4417931,10.185415 2.52868966,10.5078632 C2.56903448,10.6571391 2.54762069,10.8160357 2.4687931,10.9488632 C2.39027586,11.0820012 2.26148276,11.177277 2.11127586,11.2142081 C1.82855172,11.2827943 1.593,11.500346 1.48189655,11.7961046 C1.30003448,12.2780701 1.48158621,12.8196219 1.8872069,13.0557943 L14.4791379,13.0557943 C14.7953793,13.0557943 15.0520345,13.3121391 15.0520345,13.6286908 C15.0520345,13.9449322 14.7953793,14.2015874 14.4791379,14.2015874 L1.75313793,14.2015874 C1.67493103,14.2015874 1.59765517,14.1857598 1.52627586,14.1547253 C0.502448276,13.7124839 0.00155172414,12.473277 0.409655172,11.3917253 C0.589034483,10.9156563 0.924206897,10.5295874 1.34627586,10.294346 C1.33044828,9.79220807 1.4822069,9.29317359 1.78448276,8.8937598 C2.08737931,8.49372531 2.51286207,8.22682876 2.97993103,8.12969083 C3.10468966,7.64586324 3.38865517,7.21727704 3.78868966,6.92865635 C4.18934483,6.63972531 4.66882759,6.51558738 5.14117241,6.56524256 C5.39627586,6.14379428 5.787,5.82413911 6.24941379,5.67269083 C6.71337931,5.5215529 7.20527586,5.55103566 7.64255172,5.74500118 C8.00503448,5.42286324 8.46713793,5.24100118 8.95189655,5.24100118 C9.43696552,5.24100118 9.89906897,5.42286324 10.2615517,5.74500118 C10.6985172,5.55103566 11.1907241,5.5215529 11.6543793,5.67269083 C12.1171034,5.82413911 12.5075172,6.14379428 12.762931,6.56524256 C13.2362069,6.51527704 13.7147586,6.63972531 14.1154138,6.92865635 C14.5154483,7.21758738 14.7994138,7.64617359 14.9238621,8.12969083 C15.3912414,8.22682876 15.8164138,8.49341497 16.1193103,8.89344945 C16.4215862,9.29317359 16.5736552,9.79220807 16.5575172,10.294346 C16.9795862,10.5295874 17.315069,10.9156563 17.4944483,11.3917253 C17.9022414,12.473277 17.4016552,13.7124839 16.3778276,14.1547253 C16.3039655,14.1866908 16.227,14.2018977 16.1512759,14.2018977" id="Fill-155"></path>
            <path d="M9.05462069,4.78789773 C7.77041379,4.78789773 6.43717241,4.12903566 5.08251724,2.82217359 C4.85472414,2.60244945 4.84851724,2.23965635 5.06793103,2.01186324 C5.28765517,1.7837598 5.65106897,1.77786324 5.87793103,1.99727704 C7.16648276,3.23989773 8.37124138,3.7817598 9.45993103,3.61013911 C10.5684828,3.43386324 11.3344138,2.54348393 11.6801379,2.05189773 C11.0107241,1.37038049 10.2423103,1.05227704 9.52944828,1.17082876 C9.10272414,1.24220807 8.73496552,1.47279428 8.46837931,1.825346 C9.15796552,1.90696669 9.83886207,1.62424256 9.84755172,1.62020807 C10.1380345,1.49513911 10.475069,1.62703566 10.6016897,1.91751842 C10.7276897,2.20769083 10.5945517,2.54503566 10.3046897,2.671346 C10.2388966,2.69927704 8.69089655,3.35844945 7.37441379,2.67538049 C7.11744828,2.54224256 7.00044828,2.23872531 7.101,1.96748393 C7.49172414,0.915414969 8.30793103,0.213104624 9.34044828,0.0408632449 C10.5678621,-0.165205721 11.843069,0.414828762 12.8383448,1.62889773 C12.9838966,1.80641497 13.0093448,2.05407014 12.9028966,2.25765635 C12.8569655,2.34486324 11.7592759,4.39872531 9.65017241,4.73979428 C9.45310345,4.77207014 9.25448276,4.78789773 9.05462069,4.78789773" id="Fill-156"></path>
        </g>
    </g>
</svg>