<?xml version="1.0" encoding="UTF-8"?>
<svg width="18px" height="18px" viewBox="0 0 18 18" version="1.1" xmlns="http://www.w3.org/2000/svg" xmlns:xlink="http://www.w3.org/1999/xlink">
    <!-- Generator: Sketch 57.1 (83088) - https://sketch.com -->
    <title>Group 28</title>
    <desc>Created with Sketch.</desc>
    <g id="Desktop" stroke="none" stroke-width="1" fill="none" fill-rule="evenodd">
        <g id="Group-28" transform="translate(0.000125, -0.000050)" fill="#DE5AA5" fill-rule="nonzero">
            <path d="M15.809461,8.32070564 L6.08108166,8.32070564 C5.76452994,8.32070564 5.50818511,8.06405047 5.50818511,7.74780909 C5.50818511,7.43156771 5.76452994,7.17491253 6.08108166,7.17491253 L15.809461,7.17491253 C16.1260127,7.17491253 16.3823575,7.43156771 16.3823575,7.74780909 C16.3823575,8.06405047 16.1260127,8.32070564 15.809461,8.32070564 Z" id="Path"></path>
            <path d="M10.6136679,12.8545332 L5.94608166,12.8545332 C3.85497821,12.8508091 2.15615063,11.1507401 2.15832096,9.0639815 L2.15832096,7.74780909 C2.15832096,7.43125736 2.41466787,7.17491253 2.73121959,7.17491253 L3.96546097,7.17491253 C4.2820127,7.17491253 4.53835752,7.43156771 4.53835752,7.74780909 C4.53835752,8.06405047 4.2820127,8.32070564 3.96546097,8.32070564 L3.30411614,8.32070564 L3.30411614,9.06460219 C3.30256442,10.5201194 4.48839201,11.705947 5.94732304,11.7084298 L10.6136679,11.7084298 C10.9302196,11.7084298 11.1865644,11.9650849 11.1865644,12.2816367 C11.1865644,12.5981884 10.9302196,12.8545332 10.6136679,12.8545332 Z" id="Path"></path>
            <path d="M12.6799437,12.8545332 C12.363392,12.8545332 12.1070472,12.5978781 12.1070472,12.2813263 C12.1070472,11.9647746 12.363392,11.7081194 12.6799437,11.7081194 L13.973461,11.7081194 C15.4317713,11.7056367 16.6182196,10.5201194 16.6175989,9.06491253 L16.6175989,7.74749874 C16.6175989,4.42836081 14.1413575,1.59211943 10.8579092,1.15049874 C10.753323,1.13684357 10.6651851,1.15515391 10.6108748,1.20232633 C10.5472541,1.2581884 10.5335989,1.34539529 10.5335989,1.40870564 L10.5335989,5.89380909 C10.5335989,6.21036081 10.2772541,6.46670564 9.96070235,6.46670564 C9.64415063,6.46670564 9.3878058,6.21005047 9.3878058,5.89380909 L9.3878058,1.40901598 C9.3878058,0.983843569 9.55415063,0.604291844 9.85642649,0.339878051 C10.1636679,0.0714297755 10.5730127,-0.0437081556 11.0109092,0.0149470169 C14.8601161,0.532602189 17.7630827,3.85701598 17.7630827,7.74780909 L17.7630827,9.06460219 C17.7646334,11.1507401 16.0648748,12.8508091 13.974392,12.8545332 L12.6799437,12.8545332 Z" id="Path"></path>
            <path d="M5.02094373,17.9044643 C4.05328856,17.9044643 3.26625407,17.1171194 3.26625407,16.1491539 C3.26625407,15.8326022 3.5225989,15.575947 3.83915063,15.575947 C4.15570235,15.575947 4.41204718,15.8326022 4.41204718,16.1491539 C4.41204718,16.4852574 4.68546097,16.7586712 5.02125407,16.7586712 C5.35735752,16.7586712 5.63108166,16.4852574 5.63108166,16.1491539 C5.63108166,15.8130505 5.35735752,15.5396367 5.02125407,15.5396367 C4.95825407,15.5396367 4.89618511,15.5492574 4.8365989,15.5681884 C4.53432304,15.6647056 4.2128058,15.4971194 4.11721959,15.1960849 C4.0210127,14.8947401 4.18797821,14.5722918 4.48932304,14.4767056 C4.66125407,14.4217746 4.84032304,14.3941539 5.02125407,14.3941539 C5.98921959,14.3941539 6.77656442,15.1814987 6.77656442,16.1491539 C6.77625407,17.1171194 5.98890925,17.9044643 5.02094373,17.9044643 Z" id="Path"></path>
            <path d="M5.8570127,15.8859815 C5.71021959,15.8859815 5.56373683,15.8301194 5.45170235,15.7180849 C5.22794373,15.4943263 5.22794373,15.1318436 5.45170235,14.9080849 L7.13563338,13.2244643 C7.3600127,13.0007056 7.72249545,13.0007056 7.94594373,13.2244643 C8.16939201,13.4482229 8.16970235,13.8113263 7.94594373,14.0347746 L6.2620127,15.7183953 C6.14997821,15.8301194 6.00349545,15.8859815 5.8570127,15.8859815 Z" id="Path"></path>
            <path d="M14.4814955,17.9044643 C13.5135299,17.9044643 12.7261851,17.1171194 12.7261851,16.1491539 C12.7261851,15.1814987 13.5135299,14.3941539 14.4814955,14.3941539 C14.6633575,14.3941539 14.8427368,14.4220849 15.0143575,14.4767056 C15.3157024,14.5732229 15.4820472,14.8956712 15.3855299,15.197016 C15.2890127,15.4980505 14.9687368,15.6653263 14.6652196,15.5681884 C14.6068748,15.5492574 14.5448058,15.5396367 14.4814955,15.5396367 C14.145392,15.5396367 13.8716679,15.8130505 13.8716679,16.1491539 C13.8716679,16.4852574 14.145392,16.7586712 14.4814955,16.7586712 C14.8172886,16.7586712 15.0907024,16.4852574 15.0907024,16.1491539 C15.0907024,15.8326022 15.3470472,15.575947 15.6635989,15.575947 C15.9801506,15.575947 16.2364955,15.8326022 16.2364955,16.1491539 C16.2361851,17.1171194 15.4491506,17.9044643 14.4814955,17.9044643 Z" id="Path"></path>
            <path d="M12.6237713,14.864016 C12.4769782,14.864016 12.3304955,14.8081539 12.218461,14.6961194 L4.26494373,6.7419815 C3.5710127,6.04836081 3.14149545,5.82553322 2.49784028,5.82553322 C1.88552994,5.82553322 1.17173683,6.32611943 0.948288557,6.51884357 C0.709012695,6.72553322 0.348081661,6.6997746 0.140460971,6.46111943 C-0.0665390289,6.22246426 -0.0420217875,5.86184357 0.196012695,5.65422288 C0.310219592,5.55460219 1.34677132,4.67974012 2.49752994,4.67974012 C3.6008058,4.67974012 4.30156442,5.15891253 5.07494373,5.9319815 L13.0287713,13.8864298 C13.2525299,14.1101884 13.2525299,14.4726712 13.0287713,14.6961194 C12.9170472,14.8081539 12.7702541,14.864016 12.6237713,14.864016 Z" id="Path"></path>
            <path d="M9.9610127,8.32070564 C9.81421959,8.32070564 9.66773683,8.26484357 9.55570235,8.15280909 C9.33194373,7.92905047 9.33194373,7.56625736 9.55570235,7.34280909 L13.6100472,3.28846426 C13.8338058,3.06439529 14.1969092,3.06439529 14.4203575,3.28846426 C14.6441161,3.51222288 14.6441161,3.87501598 14.4203575,4.09846426 L10.3660127,8.15280909 C10.2542886,8.26484357 10.1074955,8.32070564 9.9610127,8.32070564 Z" id="Path"></path>
        </g>
    </g>
</svg>