<svg xmlns="http://www.w3.org/2000/svg" width="18" height="24" viewBox="0 0 18 24">
    <g fill="#DE5AA5" fill-rule="nonzero">
        <path d="M10.198 18.51h-2.1a.764.764 0 0 1-.742-.582c-.27-1.103-1.393-1.188-1.731-1.188-.422 0-.803-.342-.803-.764v-2.06c0-.421.342-.763.764-.763h7.124c.422 0 .764.342.764.764v2.06a.765.765 0 0 1-.794.763c-.347 0-1.47.085-1.74 1.188a.765.765 0 0 1-.742.583zm-1.56-1.527h1.02c.468-1.014 1.394-1.526 2.288-1.7v-.602H6.35v.602c.893.174 1.82.686 2.288 1.7z"/>
        <path d="M10.294 18.235h-.003a.788.788 0 0 1-.777-.774.765.765 0 0 1 1.217-.616.763.763 0 0 1 .326.627v.002a.764.764 0 0 1-.763.761z"/>
        <path d="M12.278 23.872a2.064 2.064 0 0 1-1.784-3.092c.3-.522.373-1.038.217-1.536a.763.763 0 1 1 1.457-.458c.286.91.164 1.863-.352 2.758a.534.534 0 0 0 .196.73c.247.142.586.05.729-.196 1.325-2.297.441-4.426-.719-5.55a.764.764 0 0 1 1.064-1.097c1.554 1.507 2.743 4.353.978 7.41a2.066 2.066 0 0 1-1.786 1.031zM6.048 23.872c-.735 0-1.42-.395-1.787-1.032-1.765-3.057-.576-5.902.979-7.41a.764.764 0 1 1 1.063 1.097c-1.16 1.125-2.044 3.254-.718 5.55a.549.549 0 0 0 .728.197.535.535 0 0 0 .197-.73c-.516-.895-.638-1.849-.352-2.758a.765.765 0 0 1 1.457.458c-.156.498-.083 1.014.218 1.536a2.065 2.065 0 0 1-1.785 3.092zM6.288 14.681a.764.764 0 0 1-.764-.764v-3.158c-2.419-.302-4.216-1.66-4.988-3.804a2.05 2.05 0 0 1 .075-1.577c.234-.498.649-.875 1.167-1.061a2.047 2.047 0 0 1 1.577.074c.498.234.875.649 1.061 1.167.177.492.595 1.145 2.172 1.145h5.119c1.577 0 1.995-.653 2.172-1.144a2.047 2.047 0 0 1 1.061-1.167 2.051 2.051 0 0 1 1.577-.074c.518.186.933.563 1.167 1.061.234.499.261 1.059.075 1.577-.772 2.143-2.57 3.502-4.988 3.804v1.292a.764.764 0 1 1-1.528 0v-1.997c0-.411.326-.749.737-.763 2.164-.077 3.706-1.09 4.34-2.854a.53.53 0 0 0-.32-.683.53.53 0 0 0-.684.321c-.354.983-1.267 2.155-3.61 2.155H6.59c-2.343 0-3.256-1.172-3.61-2.155a.53.53 0 0 0-.683-.321.532.532 0 0 0-.322.684C2.61 8.2 4.152 9.214 6.316 9.291c.411.014.737.352.737.763v3.863c0 .42-.342.763-.764.763z"/>
        <path d="M9.163 6.355a3.18 3.18 0 0 1-3.177-3.177A3.181 3.181 0 0 1 9.163 0c1.229 0 2.325.686 2.86 1.79a.764.764 0 1 1-1.374.668 1.652 1.652 0 0 0-3.136.72 1.651 1.651 0 0 0 3.17.64.765.765 0 0 1 1.408.596 3.175 3.175 0 0 1-2.928 1.941z"/>
    </g>
</svg>
