<?xml version="1.0" encoding="UTF-8"?>
<svg width="13px" height="18px" viewBox="0 0 13 18" version="1.1" xmlns="http://www.w3.org/2000/svg" xmlns:xlink="http://www.w3.org/1999/xlink">
    <!-- Generator: Sketch 57.1 (83088) - https://sketch.com -->
    <title>Group 34</title>
    <desc>Created with Sketch.</desc>
    <g id="Desktop" stroke="none" stroke-width="1" fill="none" fill-rule="evenodd">
        <g id="Group-34" fill="#F6BD84">
            <path d="M1.83620208,16.317 C1.29092621,16.317 0.820443456,16.1121724 0.490546904,15.7257931 C-0.0215220612,15.1262069 -0.0817289577,14.2429655 0.0787193181,13.6669655 L0.927512422,9.93010345 C0.997960697,9.62162069 1.30365035,9.42827586 1.61337449,9.49872414 C1.92185725,9.56855172 2.11520208,9.8757931 2.04506415,10.1842759 L1.19285725,13.9357241 L1.18447794,13.968 C1.11123656,14.2203103 1.13234001,14.7131379 1.36199518,14.9822069 C1.44734001,15.0818276 1.60437449,15.2087586 1.98206415,15.1615862 C3.39816759,14.9853103 4.78944346,15.0858621 4.84809863,15.0902069 C5.16340897,15.1141034 5.40020208,15.3887586 5.37661587,15.704069 C5.35302966,16.02 5.07713311,16.2586552 4.7627538,16.2328966 C4.74940897,16.2316552 3.42392621,16.1366897 2.12420208,16.2986897 C2.02644346,16.3107931 1.92992621,16.317 1.83620208,16.317" id="Fill-109"></path>
            <path d="M10.7393745,10.1532414 C10.4820986,10.1532414 10.2477883,9.97851724 10.1835469,9.7172069 L10.1137193,9.43355172 C9.92440897,8.66482759 9.39651242,8.24555172 8.29106415,7.98486207 C7.86589173,7.88555172 7.53816759,7.74093103 7.28989173,7.54293103 C7.0425469,7.34555172 7.00189173,6.98524138 7.19927104,6.73789655 C7.39634001,6.49024138 7.75727104,6.44989655 8.00430553,6.64696552 C8.11509863,6.73541379 8.29944346,6.8102069 8.55299518,6.86917241 C9.5147538,7.09603448 10.8374435,7.57986207 11.2263055,9.15951724 L11.2961331,9.44317241 C11.3718572,9.75041379 11.1840986,10.0607586 10.8768572,10.1367931 C10.8309262,10.1479655 10.7846848,10.1532414 10.7393745,10.1532414" id="Fill-110"></path>
            <path d="M3.35720208,17.9044138 C2.12544346,17.9044138 1.47278828,17.4572069 1.14227104,17.082 C0.769857249,16.6593103 0.604443456,16.1112414 0.677064146,15.5386552 C0.716788284,15.2245862 1.00447794,14.9986552 1.31730553,15.0424138 C1.63137449,15.0821379 1.85358139,15.3688966 1.81385725,15.6829655 C1.79616759,15.8226207 1.79709863,16.092 2.00192621,16.3247586 C2.25237449,16.6084138 2.72068484,16.7586207 3.35720208,16.7586207 C6.14006415,16.7586207 10.4318228,15.0858621 10.4318228,12.8631724 C10.4318228,11.4523448 9.60413311,11.1562759 8.90989173,11.1562759 C8.33140897,11.1562759 8.02044346,11.4194483 7.86123656,11.6401034 C7.67471932,11.8992414 7.6095469,12.2334828 7.69551242,12.4913793 C7.8525469,12.9634138 8.16506415,13.131931 8.24451242,13.167931 C8.37299518,13.1918276 8.8397538,13.2371379 9.16747794,12.7064483 C9.33382277,12.4373793 9.68637449,12.3526552 9.95606415,12.519931 C10.2251331,12.6859655 10.3089262,13.0391379 10.1425814,13.3082069 C9.48806415,14.3680345 8.40558139,14.4 7.92330553,14.2693448 C7.80320208,14.2311724 6.9677538,13.9326207 6.60837449,12.8535517 C6.40665035,12.2483793 6.53078828,11.5268276 6.9317538,10.970069 C7.37802966,10.3512414 8.08034001,10.0104828 8.90989173,10.0104828 C10.1407193,10.0104828 11.5779262,10.7574828 11.5779262,12.8631724 C11.5779262,16.173 6.22602966,17.9044138 3.35720208,17.9044138" id="Fill-111"></path>
            <path d="M6.16985725,14.7388966 C6.12113311,14.7388966 6.07178828,14.7323793 6.02244346,14.7193448 C4.71744346,14.3733103 3.48568484,14.4434483 2.68282277,14.5638621 C2.49382277,14.5930345 2.30234001,14.5238276 2.1735469,14.382 C2.04506415,14.2398621 1.99571932,14.0427931 2.04258139,13.8572069 L2.9025469,10.4415517 C2.97982277,10.134931 3.29109863,9.94872414 3.59802966,10.026 C3.9049607,10.1032759 4.09085725,10.4145517 4.01358139,10.7214828 L3.35409863,13.3407931 C4.1895469,13.2861724 5.22734001,13.3227931 6.31634001,13.6120345 C6.62234001,13.6930345 6.80451242,14.0067931 6.72320208,14.3127931 C6.65523656,14.5694483 6.42309863,14.7388966 6.16985725,14.7388966" id="Fill-112"></path>
            <path d="M6.23689173,9.59462069 C5.62830553,9.59462069 5.01009863,9.34758621 4.48561587,8.85382759 C4.25534001,8.63658621 4.24416759,8.27441379 4.46109863,8.04351724 C4.67802966,7.81324138 5.04051242,7.80268966 5.27109863,8.019 C5.86230553,8.57575862 6.56151242,8.59468966 7.09561587,8.06772414 C7.32092621,7.84613793 7.68371932,7.84862069 7.90561587,8.07362069 C8.12782277,8.29893103 8.12534001,8.66172414 7.90002966,8.88362069 C7.41899518,9.35813793 6.83244346,9.59462069 6.23689173,9.59462069" id="Fill-113"></path>
            <path d="M6.7905469,6.43127586 C6.29120208,6.43127586 5.47934001,6.13986207 4.90209863,5.75317241 C4.63892621,5.5772069 4.56878828,5.22155172 4.7447538,4.95837931 C4.92102966,4.69551724 5.27699518,4.62537931 5.5395469,4.80103448 C6.01468484,5.11944828 6.60620208,5.2857931 6.7905469,5.2857931 C7.12820208,5.2857931 7.66447794,4.77465517 7.66447794,3.40355172 C7.66447794,3.08731034 7.92082277,2.83065517 8.23737449,2.83065517 C8.55361587,2.83065517 8.81027104,3.08731034 8.81027104,3.40355172 C8.81027104,5.79848276 7.48913311,6.43127586 6.7905469,6.43127586" id="Fill-114"></path>
            <path d="M2.59189173,9.78393103 C2.27565035,9.78393103 2.01899518,9.52758621 2.01899518,9.21103448 L2.01899518,4.40813793 C2.01899518,1.37948276 4.21127104,-3.55271368e-15 6.24837449,-3.55271368e-15 C7.26692621,-3.55271368e-15 8.7199607,0.484448276 9.46199518,1.84965517 C9.61313311,2.12803448 9.51009863,2.47562069 9.23202966,2.62675862 C8.9539607,2.7782069 8.60606415,2.67486207 8.45523656,2.39710345 C7.79420208,1.18086207 6.40447794,1.1457931 6.24837449,1.1457931 C4.82606415,1.1457931 3.16478828,2.00017241 3.16478828,4.40813793 L3.16478828,8.60493103 C3.83202966,8.52424138 4.64916759,8.26262069 4.64916759,7.46472414 L4.64916759,4.65175862 C4.64916759,2.75927586 6.08327104,2.1267931 6.14440897,2.10072414 C6.43582277,1.97689655 6.77192621,2.11189655 6.8957538,2.40331034 C7.01989173,2.69441379 6.88458139,3.03082759 6.59347794,3.15465517 C6.56771932,3.16675862 5.7949607,3.53513793 5.7949607,4.65175862 L5.7949607,7.46472414 C5.7949607,8.58568966 4.95361587,9.78393103 2.59189173,9.78393103" id="Fill-115"></path>
            <path d="M9.69909863,17.4208966 C8.61568484,17.4208966 7.75571932,16.6661379 7.70730553,16.6223793 C7.47144346,16.4113448 7.45127104,16.0491724 7.66261587,15.8133103 C7.87334001,15.5777586 8.23551242,15.5578966 8.47168484,15.768931 C8.50985725,15.8021379 9.46261587,16.6236207 10.3142021,16.091069 C10.5693055,15.9315517 10.8110641,15.7292069 11.0667883,15.5153793 L11.1443745,15.4505172 C11.3876848,15.2475517 11.7489262,15.2801379 11.9515814,15.5231379 C12.1542366,15.7658276 12.1216504,16.127069 11.8789607,16.3300345 L11.8023055,16.3939655 C11.5276504,16.6236207 11.2439952,16.8610345 10.9215469,17.0627586 C10.5035124,17.324069 10.0870297,17.4208966 9.69909863,17.4208966" id="Fill-116"></path>
            <path d="M4.66747794,13.1890345 C4.44465035,13.1890345 4.23268484,13.0586897 4.13989173,12.8405172 C4.01606415,12.5497241 4.15106415,12.2136207 4.44185725,12.0894828 C4.50113311,12.0640345 5.90792621,11.4703448 7.15116759,11.61 C7.4655469,11.6453793 7.69178828,11.9290345 7.65640897,12.2434138 C7.62102966,12.5574828 7.33489173,12.7831034 7.02330553,12.7486552 C6.0857538,12.6428276 4.90302966,13.1381379 4.89123656,13.1434138 C4.81830553,13.1747586 4.74227104,13.1890345 4.66747794,13.1890345" id="Fill-117"></path>
        </g>
    </g>
</svg>