<svg xmlns="http://www.w3.org/2000/svg" width="24" height="22" viewBox="0 0 24 22">
    <g fill="#F6BD84" fill-rule="nonzero">
        <path d="M22.107 6.823a.757.757 0 0 1-.588-.282c-.845-1.038-3.329-3.86-4.648-4.453a6.022 6.022 0 0 0-.646-.244.784.784 0 0 1-.508-.975.761.761 0 0 1 .954-.52c.268.085.54.188.81.308 1.89.847 4.878 4.474 5.213 4.885a.794.794 0 0 1-.098 1.1.753.753 0 0 1-.49.18z"/>
        <path d="M19.743 11.436h-.027a.76.76 0 0 1-.538-.256L17.34 9.116a.794.794 0 0 1 .052-1.104.751.751 0 0 1 1.079.053l1.31 1.473 2.8-2.723a.753.753 0 0 1 1.08.028.794.794 0 0 1-.027 1.104l-3.366 3.273a.75.75 0 0 1-.526.216zM1.766 6.823a.75.75 0 0 1-.489-.182.793.793 0 0 1-.098-1.1c.335-.41 3.323-4.037 5.209-4.883.272-.121.545-.224.814-.309a.762.762 0 0 1 .954.52.784.784 0 0 1-.508.974A6.02 6.02 0 0 0 7 2.09c-1.318.592-3.8 3.414-4.646 4.452a.756.756 0 0 1-.587.282z"/>
        <path d="M11.936 21.845c-1.964 0-2.888-1.192-3.63-2.15-.744-.959-1.217-1.501-2.294-1.501a.772.772 0 0 1-.764-.781V6.76c0-.431.342-.78.764-.78s.764.35.764.78v9.943c1.365.266 2.11 1.227 2.727 2.022.675.87 1.208 1.558 2.434 1.558 1.225 0 1.758-.688 2.434-1.558.616-.795 1.361-1.756 2.727-2.022V6.76c0-.431.341-.78.763-.78s.764.35.764.78v10.653a.772.772 0 0 1-.764.781c-1.077 0-1.55.542-2.293 1.502-.744.957-1.668 2.149-3.632 2.149zM11.936 4.284C9.247 4.284 8.46 2.01 8.42.808A.774.774 0 0 1 9.156 0a.774.774 0 0 1 .79.75c.015.331.185 1.971 1.99 1.971 1.87 0 1.984-1.766 1.991-1.968a.78.78 0 0 1 .79-.753.774.774 0 0 1 .737.808c-.04 1.202-.828 3.476-3.518 3.476z"/>
        <path d="M4.13 11.436a.756.756 0 0 1-.527-.215L.237 7.948A.794.794 0 0 1 .21 6.844a.753.753 0 0 1 1.08-.028l2.8 2.723L5.4 8.066a.752.752 0 0 1 1.08-.053c.312.29.335.784.05 1.103l-1.836 2.065a.76.76 0 0 1-.537.255h-.028zM10.114 12.7v.005a1.077 1.077 0 0 1-.385-1.447 1.023 1.023 0 0 1 1.41-.39c.497.293.671.936.386 1.444-.19.343-.543.533-.898.533a.998.998 0 0 1-.513-.144zm2.251-.393c-.29-.503-.12-1.15.372-1.442a1.023 1.023 0 0 1 1.416.38 1.07 1.07 0 0 1-.377 1.447 1 1 0 0 1-.517.144c-.356 0-.703-.19-.894-.529zM8.268 9.468a1.043 1.043 0 0 1 1.026-1.062 1.046 1.046 0 0 1 1.043 1.05v.004a1.05 1.05 0 0 1-1.03 1.062h-.004c-.57 0-1.035-.47-1.035-1.054zm5.268-.02V9.43a1.042 1.042 0 0 1 1.022-1.07c.572-.008 1.04.461 1.047 1.045V9.447c0 .584-.463 1.058-1.035 1.058a1.047 1.047 0 0 1-1.034-1.058zM9.708 7.66a1.07 1.07 0 0 1 .37-1.446 1.024 1.024 0 0 1 1.414.372c.29.503.124 1.155-.364 1.451a1.034 1.034 0 0 1-1.42-.377zm3.013.36a1.067 1.067 0 0 1-.389-1.438c.282-.512.91-.69 1.407-.402.496.287.674.93.393 1.442-.19.343-.542.538-.902.538-.174 0-.347-.046-.51-.14z"/>
    </g>
</svg>
