<svg xmlns="http://www.w3.org/2000/svg" width="18" height="18" viewBox="0 0 18 18">
    <g fill="#509EF7" fill-rule="evenodd">
        <path d="M17.331 16.021H.573a.573.573 0 0 1 0-1.145H17.33a.573.573 0 0 1 0 1.145"/>
        <path d="M15.16 17.72H2.744a.573.573 0 0 1-.442-.208l-1.4-1.7a.573.573 0 1 1 .885-.728l1.227 1.491h12.148a.573.573 0 1 1 0 1.146M11.59 9.93a.79.79 0 0 1-.55-.227.79.79 0 0 1-.226-.549c0-.205.084-.407.227-.55a.806.806 0 0 1 1.098 0 .78.78 0 0 1 0 1.1.792.792 0 0 1-.549.226M10.675 12.164a.779.779 0 0 1-.55-.226.78.78 0 0 1 0-1.096.806.806 0 0 1 1.099 0 .785.785 0 0 1 .226.547.785.785 0 0 1-.226.549.779.779 0 0 1-.55.226M13.952 11.671a.79.79 0 0 1-.55-.227.791.791 0 0 1-.226-.549c0-.205.084-.406.227-.55.288-.288.813-.288 1.098 0a.777.777 0 0 1-.55 1.326M6.314 9.93a.776.776 0 0 1-.55-1.325c.29-.289.811-.289 1.096 0a.776.776 0 0 1 0 1.098.784.784 0 0 1-.546.227M7.23 12.164a.773.773 0 0 1-.776-.775c0-.205.08-.404.226-.55a.808.808 0 0 1 1.1 0 .79.79 0 0 1 .225.55.785.785 0 0 1-.226.549.78.78 0 0 1-.55.226M3.953 11.671a.776.776 0 0 1-.776-.776c0-.205.08-.406.226-.55.286-.288.807-.288 1.096 0a.77.77 0 0 1 0 1.096.773.773 0 0 1-.546.23M8.952 9.586a.777.777 0 0 1-.776-.776c0-.205.084-.404.227-.547a.805.805 0 0 1 1.099-.003.797.797 0 0 1 .226.55.785.785 0 0 1-.226.549.778.778 0 0 1-.55.227"/>
        <path d="M16.151 14.202a.573.573 0 0 1-.227-1.1c.47-.202.693-.788.498-1.306a.918.918 0 0 0-.63-.582.573.573 0 0 1-.417-.706 1.074 1.074 0 0 0-.17-.923.833.833 0 0 0-.74-.348.572.572 0 0 1-.616-.563 1.02 1.02 0 0 0-.404-.816.8.8 0 0 0-.788-.095.57.57 0 0 1-.767-.364.944.944 0 0 0-.592-.637.804.804 0 0 0-.78.161.572.572 0 0 1-.848-.126.855.855 0 0 0-.718-.41.854.854 0 0 0-.717.41.572.572 0 0 1-.848.126.803.803 0 0 0-.781-.161.943.943 0 0 0-.592.637.57.57 0 0 1-.767.364.798.798 0 0 0-.788.095c-.248.179-.4.485-.404.817a.572.572 0 0 1-.617.562.83.83 0 0 0-.74.348c-.193.256-.256.6-.17.923a.571.571 0 0 1-.417.706.917.917 0 0 0-.63.582c-.181.482 0 1.024.406 1.26H14.48a.573.573 0 0 1 0 1.146H1.753a.569.569 0 0 1-.227-.047C.502 13.712.002 12.473.41 11.392c.179-.476.514-.862.936-1.098a2.21 2.21 0 0 1 .438-1.4c.303-.4.729-.667 1.196-.764.125-.484.409-.913.809-1.201.4-.29.88-.413 1.352-.364a2.047 2.047 0 0 1 1.108-.892 1.94 1.94 0 0 1 1.394.072 1.969 1.969 0 0 1 1.309-.504c.485 0 .947.182 1.31.504.437-.194.929-.223 1.392-.072.463.151.854.47 1.109.892.473-.05.952.075 1.352.364.4.289.684.717.809 1.2.467.098.892.364 1.195.764.303.4.455.9.439 1.401a2.1 2.1 0 0 1 .936 1.098c.408 1.081-.092 2.32-1.116 2.763a.57.57 0 0 1-.227.047M9.055 4.788c-1.285 0-2.618-.659-3.972-1.966a.573.573 0 0 1 .795-.825C7.166 3.24 8.37 3.782 9.46 3.61c1.108-.176 1.874-1.067 2.22-1.558-.67-.682-1.438-1-2.15-.881a1.663 1.663 0 0 0-1.062.654c.69.082 1.37-.2 1.38-.205a.574.574 0 0 1 .457 1.051c-.066.028-1.614.687-2.93.004a.573.573 0 0 1-.274-.708C7.491.915 8.308.213 9.341.041c1.227-.206 2.502.374 3.497 1.588a.573.573 0 0 1 .065.629c-.046.087-1.144 2.14-3.253 2.482a3.68 3.68 0 0 1-.595.048"/>
    </g>
</svg>
