<svg xmlns="http://www.w3.org/2000/svg" width="14" height="18" viewBox="0 0 14 18">
    <g fill="#FFF" fill-rule="evenodd" stroke="#785EE5">
        <path d="M9.5 7.5h-5l.704 8.997.909-.667c.264-.193.575-.29.887-.29.312 0 .623.097.887.29l1.613.31V7.5z"/>
        <path d="M6.094 13.174c-.45.292-1.053.164-1.346-.287-.018-.028-.035-.058-.05-.088-.299-.585-.913-.94-1.57-.905-.536.027-.994-.385-1.022-.921v-.102c.035-.656-.32-1.27-.905-1.569-.48-.244-.67-.83-.425-1.308.015-.03.032-.06.05-.088.358-.551.358-1.26 0-1.812-.292-.45-.164-1.053.287-1.346.028-.018.058-.035.088-.05.585-.299.94-.913.905-1.57-.027-.536.385-.994.921-1.022h.102c.656.035 1.27-.32 1.569-.905.244-.48.83-.67 1.308-.425.03.015.06.032.088.05.551.358 1.26.358 1.812 0 .45-.292 1.053-.164 1.346.287.018.028.035.058.05.088.299.585.913.94 1.57.905.536-.027.994.385 1.022.921v.102c-.035.656.32 1.27.905 1.569.48.244.67.83.425 1.308-.015.03-.032.06-.05.088-.358.551-.358 1.26 0 1.812.292.45.164 1.053-.287 1.346-.028.018-.058.035-.088.05-.585.299-.94.913-.905 1.57.027.536-.385.994-.921 1.022h-.102c-.656-.035-1.27.32-1.569.905-.244.48-.83.67-1.308.425-.03-.015-.06-.032-.088-.05-.551-.358-1.26-.358-1.812 0z"/>
        <circle cx="7" cy="7" r="4"/>
    </g>
</svg>
