<?xml version="1.0" encoding="UTF-8"?>
<svg width="14px" height="18px" viewBox="0 0 14 18" version="1.1" xmlns="http://www.w3.org/2000/svg" xmlns:xlink="http://www.w3.org/1999/xlink">
    <!-- Generator: Sketch 64 (93537) - https://sketch.com -->
    <title>Group 17</title>
    <desc>Created with Sketch.</desc>
    <g id="Desktop" stroke="none" stroke-width="1" fill="none" fill-rule="evenodd">
        <g id="Product" transform="translate(-907.000000, -559.000000)" stroke="#509EF7">
            <g id="Group-10" transform="translate(904.000000, 378.000000)">
                <g id="Group-17" transform="translate(3.000000, 181.000000)">
                    <path d="M9.5,7.5 L4.5,7.5 L5.20431817,16.4967975 L6.1129545,15.8304642 C6.37694769,15.6368692 6.68847385,15.5400717 7,15.5400717 C7.31152615,15.5400717 7.62305231,15.6368692 7.8870455,15.8304642 L9.5,16.1398925 L9.5,7.5 Z" id="Rectangle" fill="#FFFFFF"></path>
                    <path d="M6.09413334,13.1735464 C5.64342363,13.4660704 5.04091366,13.3378355 4.74838966,12.8871258 C4.72999068,12.8587774 4.71308132,12.8294895 4.69773035,12.7993813 C4.39937202,12.2142047 3.78468023,11.8593123 3.12872327,11.8935147 C2.59213521,11.921493 2.1344637,11.5091834 2.10648533,10.9725954 C2.10472557,10.9388454 2.10472557,10.9050267 2.10648533,10.8712767 C2.14068774,10.2153198 1.78579526,9.60062798 1.20061867,9.30226965 C0.7219306,9.0582056 0.531730252,8.47229923 0.775794306,7.99361116 C0.791145281,7.96350296 0.808054642,7.93421509 0.826453618,7.90586666 C1.18405225,7.35489247 1.18405225,6.64510753 0.826453618,6.09413334 C0.533929613,5.64342363 0.662164462,5.04091366 1.11287417,4.74838966 C1.1412226,4.72999068 1.17051048,4.71308132 1.20061867,4.69773035 C1.78579526,4.39937202 2.14068774,3.78468023 2.10648533,3.12872327 C2.07850697,2.59213521 2.49081659,2.1344637 3.02740465,2.10648533 C3.0611546,2.10472557 3.09497332,2.10472557 3.12872327,2.10648533 C3.78468023,2.14068774 4.39937202,1.78579526 4.69773035,1.20061867 C4.9417944,0.7219306 5.52770077,0.531730252 6.00638884,0.775794306 C6.03649704,0.791145281 6.06578491,0.808054642 6.09413334,0.826453618 C6.64510753,1.18405225 7.35489247,1.18405225 7.90586666,0.826453618 C8.35657637,0.533929613 8.95908634,0.662164462 9.25161034,1.11287417 C9.27000932,1.1412226 9.28691868,1.17051048 9.30226965,1.20061867 C9.60062798,1.78579526 10.2153198,2.14068774 10.8712767,2.10648533 C11.4078648,2.07850697 11.8655363,2.49081659 11.8935147,3.02740465 C11.8952744,3.0611546 11.8952744,3.09497332 11.8935147,3.12872327 C11.8593123,3.78468023 12.2142047,4.39937202 12.7993813,4.69773035 C13.2780694,4.9417944 13.4682697,5.52770077 13.2242057,6.00638884 C13.2088547,6.03649704 13.1919454,6.06578491 13.1735464,6.09413334 C12.8159478,6.64510753 12.8159478,7.35489247 13.1735464,7.90586666 C13.4660704,8.35657637 13.3378355,8.95908634 12.8871258,9.25161034 C12.8587774,9.27000932 12.8294895,9.28691868 12.7993813,9.30226965 C12.2142047,9.60062798 11.8593123,10.2153198 11.8935147,10.8712767 C11.921493,11.4078648 11.5091834,11.8655363 10.9725954,11.8935147 C10.9388454,11.8952744 10.9050267,11.8952744 10.8712767,11.8935147 C10.2153198,11.8593123 9.60062798,12.2142047 9.30226965,12.7993813 C9.0582056,13.2780694 8.47229923,13.4682697 7.99361116,13.2242057 C7.96350296,13.2088547 7.93421509,13.1919454 7.90586666,13.1735464 C7.35489247,12.8159478 6.64510753,12.8159478 6.09413334,13.1735464 Z" id="Star" fill="#FFFFFF"></path>
                    <circle id="Oval" cx="7" cy="7" r="4"></circle>
                </g>
            </g>
        </g>
    </g>
</svg>