<?xml version="1.0" encoding="UTF-8"?>
<svg width="10px" height="12px" viewBox="0 0 10 12" version="1.1" xmlns="http://www.w3.org/2000/svg" xmlns:xlink="http://www.w3.org/1999/xlink">
    <!-- Generator: Sketch 63 (92445) - https://sketch.com -->
    <title>Group 30</title>
    <desc>Created with Sketch.</desc>
    <g id="Desktop" stroke="none" stroke-width="1" fill="none" fill-rule="evenodd">
        <g id="Landing-Category" transform="translate(-348.000000, -1730.000000)" fill="#FEF5ED" stroke="#F6BD84" stroke-width="0.666666667">
            <g id="Group-18" transform="translate(341.000000, 1724.000000)">
                <g id="Group-30" transform="translate(7.000000, 6.000000)">
                    <path d="M6.33333333,5 L3.05430948,5 L3.93771321,10.8304646 L5.00277997,10.4911217 L6.33333333,10.43932 L6.33333333,5 Z" id="Rectangle"></path>
                    <path d="M4.06275556,8.78236425 C3.76228242,8.97738026 3.36060911,8.89189036 3.16559311,8.59141722 C3.15332712,8.57251826 3.14205421,8.55299302 3.13182023,8.53292088 C2.93291468,8.14280316 2.52312015,7.90620817 2.08581551,7.92900978 C1.72809014,7.94766202 1.4229758,7.67278894 1.40432355,7.31506357 C1.40315038,7.2925636 1.40315038,7.27001779 1.40432355,7.24751782 C1.42712516,6.81021318 1.19053018,6.40041865 0.800412449,6.2015131 C0.481287066,6.03880373 0.354486835,5.64819949 0.517196204,5.32907411 C0.527430187,5.30900198 0.538703095,5.28947673 0.550969079,5.27057777 C0.789368166,4.90326165 0.789368166,4.43007168 0.550969079,4.06275556 C0.355953076,3.76228242 0.441442975,3.36060911 0.741916114,3.16559311 C0.760815069,3.15332712 0.780340317,3.14205421 0.800412449,3.13182023 C1.19053018,2.93291468 1.42712516,2.52312015 1.40432355,2.08581551 C1.38567131,1.72809014 1.66054439,1.4229758 2.01826976,1.40432355 C2.04076973,1.40315038 2.06331555,1.40315038 2.08581551,1.40432355 C2.52312015,1.42712516 2.93291468,1.19053018 3.13182023,0.800412449 C3.2945296,0.481287066 3.68513384,0.354486835 4.00425923,0.517196204 C4.02433136,0.527430187 4.04385661,0.538703095 4.06275556,0.550969079 C4.43007168,0.789368166 4.90326165,0.789368166 5.27057777,0.550969079 C5.57105091,0.355953076 5.97272422,0.441442975 6.16774023,0.741916114 C6.18000621,0.760815069 6.19127912,0.780340317 6.2015131,0.800412449 C6.40041865,1.19053018 6.81021318,1.42712516 7.24751782,1.40432355 C7.60524319,1.38567131 7.91035754,1.66054439 7.92900978,2.01826976 C7.93018296,2.04076973 7.93018296,2.06331555 7.92900978,2.08581551 C7.90620817,2.52312015 8.14280316,2.93291468 8.53292088,3.13182023 C8.85204627,3.2945296 8.9788465,3.68513384 8.81613713,4.00425923 C8.80590315,4.02433136 8.79463024,4.04385661 8.78236425,4.06275556 C8.54396517,4.43007168 8.54396517,4.90326165 8.78236425,5.27057777 C8.97738026,5.57105091 8.89189036,5.97272422 8.59141722,6.16774023 C8.57251826,6.18000621 8.55299302,6.19127912 8.53292088,6.2015131 C8.14280316,6.40041865 7.90620817,6.81021318 7.92900978,7.24751782 C7.94766202,7.60524319 7.67278894,7.91035754 7.31506357,7.92900978 C7.2925636,7.93018296 7.27001779,7.93018296 7.24751782,7.92900978 C6.81021318,7.90620817 6.40041865,8.14280316 6.2015131,8.53292088 C6.03880373,8.85204627 5.64819949,8.9788465 5.32907411,8.81613713 C5.30900198,8.80590315 5.28947673,8.79463024 5.27057777,8.78236425 C4.90326165,8.54396517 4.43007168,8.54396517 4.06275556,8.78236425 Z" id="Star"></path>
                    <circle id="Oval" cx="4.66666667" cy="4.66666667" r="2.66666667"></circle>
                </g>
            </g>
        </g>
    </g>
</svg>