<svg xmlns="http://www.w3.org/2000/svg" width="48" height="48" viewBox="0 0 48 48">
    <g fill="none" fill-rule="evenodd" stroke="#4C4C4C" stroke-linejoin="round" stroke-width="2">
        <path stroke-linecap="square" d="M36.7 36.3V43c0 1.7-1.3 3-3 3H10c-1.7 0-3-1.3-3-3V28.2M7.1 13.4V3c0-1.7 1.3-3 3-3h23.7c1.7 0 3 1.3 3 3v2.2" transform="translate(1 1)"/>
        <path stroke-linecap="square" d="M32.3 5.2L32.3 4.4 11.5 4.4 11.5 11.9M11.5 29.7L11.5 37.1 32.3 37.1 32.3 36.3" transform="translate(1 1)"/>
        <path stroke-linecap="round" d="M18.9 41.5L24.9 41.5" transform="translate(1 1)"/>
        <path stroke-linecap="square" d="M4.1 18.5L7.1 18.5M11.5 18.5L18.2 18.5M.4 23L11.5 23M24.1 10.4h20.8c.4 0 .7.3.7.7v19.3c0 .4-.3.7-.7.7H24.1c-.4 0-.7-.3-.7-.7V11.1c0-.4.3-.7.7-.7z" transform="translate(1 1)"/>
        <path stroke-linecap="round" d="M37.5 10.4L37.5 14.8 31.5 14.8 31.5 10.4" transform="translate(1 1)"/>
        <path stroke-linecap="square" d="M41.2 26.7L38.2 26.7" transform="translate(1 1)"/>
    </g>
</svg>
