<svg xmlns="http://www.w3.org/2000/svg" width="24" height="26" viewBox="0 0 24 26">
    <g fill="none" fill-rule="evenodd" stroke="#64D4C7" stroke-linecap="round" stroke-width="1.5">
        <path d="M11.625 1.09c4.91 0 9.305 4.03 9.305 8.81v1.42M11.625 9.31V1.09M12.045 18.55a2.08 2.08 0 0 1-.135-.75m-.285-8.5h-6.74a2 2 0 0 0-2 2v6.5m18.055 0v-6.5M2.875 17.8a2.26 2.26 0 1 0 4.5 0M7.39 17.8a2.26 2.26 0 0 0 4.5 0M16.42 17.685a.885.885 0 0 1 0 .115 2.19 2.19 0 0 1-.42 1.33 2.25 2.25 0 0 1-3.945-.58M20.93 17.8a2.255 2.255 0 0 1-4.5.12 1 1 0 0 1 0-.12.885.885 0 0 1 0-.115M2.875 15.105H20.93M22.7 21.5c-2.2 2.065-6.2 3.455-10.7 3.455-4.5 0-8.5-1.39-10.7-3.455M7.39 17.82v6.555M16.425 17.87v6.555"/>
    </g>
</svg>
