<svg xmlns="http://www.w3.org/2000/svg" width="18" height="17" viewBox="0 0 18 17">
    <g fill="#509EF7" fill-rule="nonzero">
        <path d="M1.194 5.764A.574.574 0 0 1 .62 5.19V.575C.62.257.877 0 1.194 0H16.71a.574.574 0 0 1 0 1.15H1.766v4.04a.574.574 0 0 1-.572.574zM10.804 16.418H7.1c-3.573 0-6.48-2.916-6.48-6.5v-.624a.574.574 0 1 1 1.146 0v.624c0 2.95 2.393 5.35 5.334 5.35h3.705c2.94 0 5.333-2.4 5.333-5.35v-.624a.574.574 0 1 1 1.146 0v.624c0 3.584-2.907 6.5-6.48 6.5zM16.71 5.764a.574.574 0 0 1-.572-.575V1.991a.574.574 0 1 1 1.146 0V5.19a.574.574 0 0 1-.573.575z"/>
        <path d="M16.71 3.567H2.595a.574.574 0 0 1 0-1.15H16.71a.574.574 0 0 1 0 1.15zM10.804 16.418a.574.574 0 0 1-.573-.576c0-3.17 1.928-5.653 4.912-6.327a.574.574 0 0 1 .252 1.122c-2.479.559-4.018 2.554-4.018 5.205a.573.573 0 0 1-.573.575zM7.1 16.418a.574.574 0 0 1-.573-.576c0-2.651-1.54-4.646-4.018-5.205a.575.575 0 0 1 .252-1.122c2.983.674 4.912 3.158 4.912 6.327a.574.574 0 0 1-.573.575zM16.09 8.602h-3.708c-1.001 0-1.815-.816-1.815-1.82v-.516c0-1.004.814-1.82 1.815-1.82h3.708c1 0 1.814.816 1.814 1.82v.516a1.82 1.82 0 0 1-1.814 1.82zm-3.708-3.007a.67.67 0 0 0-.669.67v.517c0 .37.3.67.669.67h3.708a.67.67 0 0 0 .668-.67v-.516c0-.37-.3-.67-.668-.67h-3.708zM5.523 8.602H1.814c-1 0-1.814-.816-1.814-1.82v-.516c0-1.004.814-1.82 1.814-1.82h3.709c1 0 1.814.816 1.814 1.82v.516a1.82 1.82 0 0 1-1.814 1.82zM1.814 5.595a.67.67 0 0 0-.668.67v.517c0 .37.3.67.668.67h3.709a.67.67 0 0 0 .668-.67v-.516c0-.37-.3-.67-.668-.67H1.814z"/>
    </g>
</svg>
