<svg xmlns="http://www.w3.org/2000/svg" width="20" height="20" viewBox="0 0 20 20">
    <g fill="none" fill-rule="evenodd" stroke="#785EE5">
        <path fill="#FFF" d="M8.706 18.82c-.644.417-1.505.234-1.923-.41-.026-.04-.05-.082-.072-.125-.426-.836-1.304-1.343-2.241-1.294-.767.04-1.42-.55-1.46-1.316-.003-.048-.003-.096 0-.145.048-.937-.459-1.815-1.295-2.241-.684-.349-.955-1.186-.607-1.87.022-.043.046-.084.073-.125.51-.787.51-1.801 0-2.588C.763 8.062.946 7.2 1.59 6.783c.04-.026.082-.05.125-.072.836-.426 1.343-1.304 1.294-2.241-.04-.767.55-1.42 1.316-1.46.048-.003.096-.003.145 0 .937.048 1.815-.459 2.241-1.295.349-.684 1.186-.955 1.87-.607.043.022.084.046.125.073.787.51 1.801.51 2.588 0 .644-.418 1.505-.235 1.923.409.026.04.05.082.072.125.426.836 1.304 1.343 2.241 1.294.767-.04 1.42.55 1.46 1.316.003.048.003.096 0 .145-.048.937.459 1.815 1.295 2.241.684.349.955 1.186.607 1.87-.022.043-.046.084-.073.125-.51.787-.51 1.801 0 2.588.418.644.235 1.505-.409 1.923-.04.026-.082.05-.125.072-.836.426-1.343 1.304-1.294 2.241.04.767-.55 1.42-1.316 1.46-.048.003-.096.003-.145 0-.937-.048-1.815.459-2.241 1.295-.349.684-1.186.955-1.87.607-.043-.022-.084-.046-.125-.073-.787-.51-1.801-.51-2.588 0z"/>
        <circle cx="10" cy="10" r="6" fill="#FFF"/>
        <path stroke-linecap="round" stroke-linejoin="round" d="M7 11L9 13 13 8"/>
    </g>
</svg>
