<?xml version="1.0" encoding="UTF-8"?>
<svg width="12px" height="9px" viewBox="0 0 12 9" version="1.1" xmlns="http://www.w3.org/2000/svg" xmlns:xlink="http://www.w3.org/1999/xlink">
    <!-- Generator: Sketch 61.2 (89653) - https://sketch.com -->
    <title>envelope-solid</title>
    <desc>Created with Sketch.</desc>
    <g id="Desktop" stroke="none" stroke-width="1" fill="none" fill-rule="evenodd">
        <g id="Article-View" transform="translate(-774.000000, -715.000000)" fill="#000000" fill-rule="nonzero">
            <g id="Group" transform="translate(232.000000, 698.000000)">
                <g id="envelope-solid" transform="translate(542.000000, 17.000000)">
                    <path d="M11.7726563,2.971875 C11.8640625,2.89921875 12,2.9671875 12,3.08203125 L12,7.875 C12,8.49609375 11.4960938,9 10.875,9 L1.125,9 C0.50390625,9 0,8.49609375 0,7.875 L0,3.084375 C0,2.9671875 0.13359375,2.9015625 0.22734375,2.97421875 C0.75234375,3.38203125 1.4484375,3.9 3.8390625,5.63671875 C4.33359375,5.99765625 5.16796875,6.75703125 6,6.75234375 C6.83671875,6.759375 7.6875,5.98359375 8.16328125,5.63671875 C10.5539063,3.9 11.2476562,3.3796875 11.7726563,2.971875 Z M6,6 C6.54375,6.009375 7.3265625,5.315625 7.7203125,5.0296875 C10.8304688,2.77265625 11.0671875,2.57578125 11.784375,2.01328125 C11.9203125,1.9078125 12,1.74375 12,1.5703125 L12,1.125 C12,0.50390625 11.4960938,2.84217094e-14 10.875,2.84217094e-14 L1.125,2.84217094e-14 C0.50390625,2.84217094e-14 0,0.50390625 0,1.125 L0,1.5703125 C0,1.74375 0.0796875,1.90546875 0.215625,2.01328125 C0.9328125,2.5734375 1.16953125,2.77265625 4.2796875,5.0296875 C4.6734375,5.315625 5.45625,6.009375 6,6 Z" id="Shape"></path>
                </g>
            </g>
        </g>
    </g>
</svg>