<?xml version="1.0" encoding="UTF-8"?>
<svg width="36px" height="36px" viewBox="0 0 36 36" version="1.1" xmlns="http://www.w3.org/2000/svg" xmlns:xlink="http://www.w3.org/1999/xlink">
    <!-- Generator: Sketch 63 (92445) - https://sketch.com -->
    <title>Group 6</title>
    <desc>Created with Sketch.</desc>
    <g id="Desktop" stroke="none" stroke-width="1" fill="none" fill-rule="evenodd">
        <g id="Article-Home" transform="translate(-702.000000, -113.000000)" fill="#DE5AA5">
            <g id="Group-6" transform="translate(702.000000, 113.000000)">
                <g id="Group-5">
                    <path d="M27.3004138,17.8435862 L27.1489655,17.8342759 C26.522069,17.7511034 26.0801379,17.1757241 26.1626897,16.5482069 C26.3284138,15.2888276 26.4767586,14.0741379 26.5996552,12.9686897 C26.954069,9.78951724 26.1887586,6.96537931 24.4446207,5.01641379 C22.8724138,3.25986207 20.5504138,2.29158621 17.9044138,2.29158621 C15.2590345,2.29158621 12.9364138,3.25986207 11.3642069,5.01641379 C9.62068966,6.96537931 8.85537931,9.78951724 9.2097931,12.9686897 C9.33206897,14.0741379 9.48103448,15.2888276 9.64675862,16.5482069 C9.72931034,17.1757241 9.28737931,17.7511034 8.65986207,17.8342759 C8.03482759,17.9155862 7.45758621,17.4742759 7.37441379,16.8473793 C7.20682759,15.5718621 7.056,14.3416552 6.93186207,13.221931 C6.5042069,9.38668966 7.47186207,5.92944828 9.65668966,3.48827586 C11.6689655,1.23889655 14.5986207,-2.66453526e-14 17.9044138,-2.66453526e-14 C21.2108276,-2.66453526e-14 24.1398621,1.23889655 26.1527586,3.48827586 C28.3369655,5.92944828 29.3052414,9.38668966 28.8775862,13.2225517 C28.7528276,14.3416552 28.6026207,15.5718621 28.4350345,16.8473793 C28.3586897,17.424 27.8664828,17.8435862 27.3004138,17.8435862" id="Fill-313"></path>
                    <path d="M17.9044138,18.8155862 C13.6588966,18.8155862 10.2041379,15.3608276 10.2041379,11.114069 C10.2041379,9.30537931 10.8446897,7.54758621 12.0072414,6.16468966 C12.4150345,5.67931034 13.1368966,5.61724138 13.6216552,6.02503448 C14.1064138,6.4322069 14.1691034,7.15468966 13.761931,7.63944828 C12.9451034,8.6102069 12.4957241,9.84413793 12.4957241,11.114069 C12.4957241,14.0971034 14.922,16.5233793 17.9044138,16.5233793 C20.8874483,16.5233793 23.3137241,14.0971034 23.3137241,11.114069 C23.3137241,8.13165517 20.8874483,5.70537931 17.9044138,5.70537931 C17.1751034,5.70537931 16.4668966,5.84813793 15.8002759,6.13055172 C15.2168276,6.3782069 14.5446207,6.10386207 14.2988276,5.52103448 C14.0524138,4.9382069 14.3248966,4.266 14.9077241,4.01958621 C15.8586207,3.618 16.8666207,3.4137931 17.9044138,3.4137931 C22.1505517,3.4137931 25.6053103,6.86855172 25.6053103,11.114069 C25.6053103,15.3608276 22.1505517,18.8155862 17.9044138,18.8155862" id="Fill-314"></path>
                    <path d="M13.6644828,21.1468966 C13.1964828,21.1468966 12.7570345,20.8576552 12.5875862,20.3927586 C12.3715862,19.7981379 12.6782069,19.1402069 13.2728276,18.9235862 C13.3094483,18.9105517 16.9510345,17.5804138 19.8223448,16.1726897 C20.3915172,15.8946207 21.0773793,16.1286207 21.3554483,16.6965517 C21.6341379,17.2651034 21.3995172,17.9515862 20.8315862,18.2302759 C17.847931,19.6932414 14.210069,21.0215172 14.0567586,21.0773793 C13.9270345,21.1245517 13.7948276,21.1468966 13.6644828,21.1468966" id="Fill-315"></path>
                    <path d="M17.9050345,15.326069 C16.7797241,15.326069 15.722069,14.8872414 14.9263448,14.0915172 C14.4794483,13.644 14.4794483,12.9184138 14.9269655,12.4708966 C15.3744828,12.0233793 16.1006897,12.0246207 16.5475862,12.4715172 C17.271931,13.1964828 18.5368966,13.1964828 19.2612414,12.4715172 C19.7093793,12.0246207 20.4343448,12.024 20.8818621,12.4708966 C21.3293793,12.9184138 21.33,13.644 20.8831034,14.0915172 C20.0873793,14.8872414 19.0297241,15.326069 17.9050345,15.326069" id="Fill-316"></path>
                    <path d="M15.858,11.0731034 C15.4483448,11.0731034 15.0511034,10.9055172 14.7593793,10.62 C14.4738621,10.3282759 14.3062759,9.93103448 14.3062759,9.52137931 C14.3062759,9.11172414 14.4738621,8.71448276 14.7593793,8.42275862 C15.3366207,7.84551724 16.3731724,7.84551724 16.9566207,8.42275862 C17.2421379,8.71448276 17.4097241,9.11172414 17.4097241,9.52137931 C17.4097241,9.93103448 17.2421379,10.3282759 16.9566207,10.62 C16.6648966,10.9055172 16.2676552,11.0731034 15.858,11.0731034" id="Fill-317"></path>
                    <path d="M19.9545517,11.0731034 C19.5448966,11.0731034 19.1414483,10.9055172 18.855931,10.62 C18.5642069,10.3282759 18.4028276,9.93103448 18.4028276,9.52137931 C18.4028276,9.11172414 18.5642069,8.71448276 18.855931,8.42275862 C19.4331724,7.84551724 20.4697241,7.84551724 21.0469655,8.42275862 C21.3386897,8.71448276 21.5062759,9.11172414 21.5062759,9.52137931 C21.5062759,9.93103448 21.3386897,10.3282759 21.0469655,10.62 C20.7614483,10.9055172 20.358,11.0731034 19.9545517,11.0731034" id="Fill-318"></path>
                    <path d="M20.8067586,35.8088276 C20.1742759,35.8088276 19.6609655,35.2961379 19.6609655,34.6630345 C19.6609655,28.0371724 21.2058621,23.9064828 25.3613793,19.4244828 C26.7566897,17.918069 28.5703448,18.0204828 29.6422759,18.9006207 C30.680069,19.7528276 31.1437241,21.4255862 30.0215172,22.9723448 L27.8112414,25.9752414 C27.4363448,26.4854483 26.7188276,26.594069 26.2092414,26.2185517 C25.6990345,25.8436552 25.5904138,25.1261379 25.9653103,24.6165517 L28.1712414,21.6198621 C28.4431034,21.2449655 28.4517931,20.888069 28.188,20.6714483 C27.9527586,20.4784138 27.5282069,20.4573103 27.0422069,20.9817931 C23.3317241,24.984 21.9525517,28.692 21.9525517,34.6630345 C21.9525517,35.2961379 21.4398621,35.8088276 20.8067586,35.8088276" id="Fill-319"></path>
                    <path d="M27.1185517,35.8088276 C26.486069,35.8088276 25.9727586,35.2961379 25.9727586,34.6630345 C25.9727586,31.2995172 27.1477241,29.2506207 29.1767586,26.847931 C32.3813793,23.0530345 33.5172414,20.2493793 33.5172414,16.1335862 C33.5172414,15.3391034 33.1528966,14.9834483 32.7922759,14.9834483 C32.3577931,14.9834483 32.0772414,15.4427586 32.0772414,16.1528276 C32.0772414,16.8430345 31.977931,17.7734483 31.9735862,17.8125517 C31.9053103,18.441931 31.3411034,18.8975172 30.7117241,18.8292414 C30.0823448,18.7615862 29.6273793,18.1967586 29.6950345,17.5673793 C29.6956552,17.5593103 29.7850345,16.7188966 29.7850345,16.1528276 C29.7850345,13.8804828 31.2976552,12.6918621 32.7922759,12.6918621 C34.2912414,12.6918621 35.8094483,13.8742759 35.8094483,16.1335862 C35.8094483,20.8086207 34.4861379,24.1131724 30.9277241,28.3264138 C29.1612414,30.4181379 28.2643448,31.9723448 28.2643448,34.6630345 C28.2643448,35.2961379 27.7516552,35.8088276 27.1185517,35.8088276" id="Fill-320"></path>
                    <path d="M15.0026897,35.8088276 C14.3695862,35.8088276 13.8562759,35.2961379 13.8562759,34.6630345 C13.8562759,28.692 12.4771034,24.984 8.76724138,20.9817931 C8.28186207,20.457931 7.85668966,20.4771724 7.62144828,20.6714483 C7.35765517,20.888069 7.36572414,21.2449655 7.64255172,21.626069 L9.84413793,24.6165517 C10.2190345,25.1261379 10.1097931,25.8436552 9.6002069,26.2185517 C9.08937931,26.5934483 8.37310345,26.4848276 7.9982069,25.9752414 L5.79227586,22.9785517 C4.66510345,21.4255862 5.12875862,19.7528276 6.16717241,18.9006207 C7.23724138,18.0211034 9.05275862,17.9186897 10.448069,19.4244828 C14.6029655,23.9064828 16.1484828,28.0371724 16.1484828,34.6630345 C16.1484828,35.2961379 15.6351724,35.8088276 15.0026897,35.8088276" id="Fill-321"></path>
                    <path d="M8.69089655,35.8088276 C8.0577931,35.8088276 7.54448276,35.2961379 7.54448276,34.6630345 C7.54448276,31.9723448 6.6482069,30.4181379 4.88172414,28.3264138 C1.32268966,24.1131724 -2.66453526e-14,20.8086207 -2.66453526e-14,16.1335862 C-2.66453526e-14,13.8742759 1.51758621,12.6918621 3.01717241,12.6918621 C4.51117241,12.6918621 6.0237931,13.8804828 6.0237931,16.1528276 C6.0237931,16.7188966 6.11317241,17.5593103 6.11441379,17.5673793 C6.18206897,18.1967586 5.72648276,18.7615862 5.09772414,18.8292414 C4.46772414,18.8975172 3.90351724,18.441931 3.83586207,17.8125517 C3.83151724,17.7734483 3.7322069,16.8430345 3.7322069,16.1528276 C3.7322069,15.4427586 3.45165517,14.9834483 3.01717241,14.9834483 C2.65593103,14.9834483 2.2922069,15.3391034 2.2922069,16.1335862 C2.2922069,20.2493793 3.42806897,23.0530345 6.63268966,26.847931 C8.66172414,29.2506207 9.83668966,31.2995172 9.83668966,34.6630345 C9.83668966,35.2961379 9.32337931,35.8088276 8.69089655,35.8088276" id="Fill-322"></path>
                </g>
            </g>
        </g>
    </g>
</svg>