<svg xmlns="http://www.w3.org/2000/svg" width="36" height="36" viewBox="0 0 36 36">
    <g fill="#785EE5" fill-rule="nonzero">
        <path d="M17.904 35.809C8.031 35.809 0 27.777 0 17.904c0-4.253 1.518-8.376 4.275-11.609a1.145 1.145 0 1 1 1.743 1.487 15.612 15.612 0 0 0-3.727 10.122c0 8.61 7.004 15.613 15.613 15.613 8.61 0 15.613-7.003 15.613-15.613 0-8.609-7.004-15.612-15.613-15.612A15.618 15.618 0 0 0 7.77 6.029a1.147 1.147 0 0 1-1.49-1.742A17.91 17.91 0 0 1 17.905 0C27.777 0 35.81 8.032 35.81 17.904c0 9.873-8.032 17.905-17.905 17.905z"/>
        <path d="M22.069 23.265c-2.467 0-4.836-1.384-7.41-5.022a1.146 1.146 0 1 1 1.87-1.324c3.51 4.962 5.906 4.796 9.945 2.552a1.144 1.144 0 0 1 1.558.446c.308.553.109 1.25-.445 1.558-1.96 1.089-3.764 1.79-5.518 1.79z"/>
        <path d="M17.82 32.594c-2.45 0-4.475-1.303-5.285-3.4-.766-1.984-.286-4.152 1.224-5.523a1.146 1.146 0 1 1 1.54 1.696c-.79.718-1.042 1.925-.627 3.002.225.582.981 1.932 3.148 1.932 4.354 0 8.566-2.538 10.243-6.173 1.476-3.198.733-6.785-2.093-10.1a1.146 1.146 0 0 1-.197-1.155 4.675 4.675 0 0 0-4.357-6.352 4.675 4.675 0 0 0-4.67 4.67 4.675 4.675 0 0 0 4.67 4.669 4.663 4.663 0 0 0 3.1-1.178 1.145 1.145 0 1 1 1.522 1.714 6.951 6.951 0 0 1-4.622 1.756 6.968 6.968 0 0 1-6.961-6.96 6.969 6.969 0 0 1 6.96-6.962 6.969 6.969 0 0 1 6.713 8.814c3.092 3.9 3.812 8.156 2.017 12.045-2.04 4.418-7.107 7.505-12.324 7.505z"/>
        <path d="M9.714 29.147c-.129 0-.26-.007-.396-.022-1.978-.21-3.906-2.367-3.757-6.708.071-2.088 1.425-3.132 2.653-3.218 1.244-.09 2.315.764 2.554 2.03l.3-.268c.562-.502 1.206-1.073 1.941-1.564-2.102-1.3-2.93-3.393-3.592-5.066-.892-2.255-1.353-3.046-2.927-3-.635-.007-1.158-.483-1.176-1.116A1.146 1.146 0 0 1 6.43 9.04c3.33-.074 4.318 2.428 5.118 4.448.881 2.227 1.716 4.336 5.156 4.765.176.01.354.028.536.055a1.147 1.147 0 0 1-.262 2.275 12.314 12.314 0 0 1-.45-.043c-1.488-.038-2.734 1.061-3.937 2.132-.249.222-.49.436-.722.63-.263.222-1.068.896-2.011.552-.899-.327-1.183-1.294-1.342-2.196-.032-.18-.09-.175-.143-.172-.197.014-.498.295-.523 1.01-.093 2.698.812 4.255 1.71 4.351.655.072 1.13-.329 2.21-1.407.93-.929 2.088-2.085 3.89-2.897a1.145 1.145 0 1 1 .94 2.09c-1.42.638-2.37 1.59-3.211 2.428-1.026 1.026-2.086 2.086-3.675 2.086zM23.91 13.037a1.146 1.146 0 0 1-1.133-1.325c.064-.406-.052-.677-.129-.733-.02-.016-.168-.018-.418.113a1.145 1.145 0 1 1-1.055-2.035c1.01-.523 2.033-.498 2.814.064.84.606 1.243 1.736 1.05 2.949a1.146 1.146 0 0 1-1.13.967zM20.433 26.152a1.145 1.145 0 0 1-.39-2.224c1.679-.608 2.124-2.155 2.142-2.22a1.153 1.153 0 0 1 1.401-.808c.608.162.972.777.816 1.385-.028.113-.737 2.768-3.58 3.798-.128.047-.26.069-.389.069zM19.622 17.868a1.146 1.146 0 0 1-1.07-1.56l.847-2.194a1.147 1.147 0 0 1 2.139.825l-.847 2.195c-.175.454-.61.734-1.07.734z"/>
    </g>
</svg>
