<?xml version="1.0" encoding="UTF-8"?>
<svg width="20px" height="13px" viewBox="0 0 20 13" version="1.1" xmlns="http://www.w3.org/2000/svg" xmlns:xlink="http://www.w3.org/1999/xlink">
    <!-- Generator: Sketch 64 (93537) - https://sketch.com -->
    <title>Group 19</title>
    <desc>Created with Sketch.</desc>
    <g id="Desktop" stroke="none" stroke-width="1" fill="none" fill-rule="evenodd">
        <g id="Product" transform="translate(-904.000000, -591.000000)">
            <g id="Group-10" transform="translate(904.000000, 378.000000)">
                <g id="Group-19" transform="translate(0.000000, 213.000000)">
                    <rect id="Rectangle" stroke="#DE5AA5" x="0.5" y="0.5" width="19" height="12" rx="2"></rect>
                    <rect id="Rectangle" fill="#DE5AA5" x="7" y="4" width="13" height="1"></rect>
                    <rect id="Rectangle-Copy-45" fill="#DE5AA5" x="7" y="2" width="13" height="1"></rect>
                    <rect id="Rectangle" fill="#DE5AA5" x="7" y="0" width="1" height="7"></rect>
                    <rect id="Rectangle-Copy-44" fill="#DE5AA5" x="0" y="6" width="20" height="1"></rect>
                    <rect id="Rectangle-Copy-44" fill="#DE5AA5" x="0" y="8" width="20" height="1"></rect>
                    <rect id="Rectangle-Copy-44" fill="#DE5AA5" x="0" y="10" width="20" height="1"></rect>
                    <path d="M3.76732944,4.62232215 L3.41221475,4.80901699 C3.25200282,4.89324539 3.05384478,4.83164857 2.96961638,4.67143663 C2.93607619,4.6076394 2.9245023,4.53456475 2.93668649,4.46352549 L3.00450736,4.06809947 C3.03232633,3.90590244 2.97855209,3.74040234 2.86070904,3.62553376 L2.57341523,3.3454915 C2.44380105,3.21914891 2.44114891,3.01165495 2.56749151,2.88204077 C2.61780179,2.83042773 2.68372338,2.796839 2.75505086,2.78647451 L3.15208115,2.72878263 C3.31493623,2.7051184 3.45571902,2.60283371 3.52855003,2.45526198 L3.70610737,2.0954915 C3.78621334,1.93317909 3.98273227,1.86653759 4.14504468,1.94664356 C4.20967834,1.97854217 4.26199401,2.03085785 4.29389263,2.0954915 L4.47144997,2.45526198 C4.54428098,2.60283371 4.68506377,2.7051184 4.84791885,2.72878263 L5.24494914,2.78647451 C5.42407153,2.81250251 5.54817904,2.97880977 5.52215104,3.15793215 C5.51178655,3.22925962 5.47819782,3.29518122 5.42658477,3.3454915 L5.13929096,3.62553376 C5.02144791,3.74040234 4.96767367,3.90590244 4.99549264,4.06809947 L5.06331351,4.46352549 C5.09391127,4.6419241 4.974095,4.81134913 4.79569639,4.84194688 C4.72465713,4.85413107 4.65158248,4.84255718 4.58778525,4.80901699 L4.23267056,4.62232215 C4.08700855,4.5457431 3.91299145,4.5457431 3.76732944,4.62232215 Z" id="Star" fill="#DE5AA5"></path>
                </g>
            </g>
        </g>
    </g>
</svg>