<svg xmlns="http://www.w3.org/2000/svg" width="20" height="13" viewBox="0 0 20 13">
    <g fill="none" fill-rule="evenodd">
        <rect width="19" height="12" x=".5" y=".5" stroke="#785EE5" rx="2"/>
        <path fill="#785EE5" d="M7 4H20V5H7zM7 2H20V3H7z"/>
        <path fill="#785EE5" d="M7 0H8V7H7z"/>
        <path fill="#785EE5" d="M0 6H20V7H0zM0 8H20V9H0zM0 10H20V11H0zM3.767 4.622l-.355.187c-.16.084-.358.023-.442-.138-.034-.063-.045-.136-.033-.207l.068-.396c.027-.162-.026-.328-.144-.442l-.288-.28c-.13-.127-.132-.334-.006-.464.05-.052.117-.085.188-.096l.397-.057c.163-.024.304-.126.377-.274l.177-.36c.08-.162.277-.228.439-.148.065.032.117.084.149.148l.177.36c.073.148.214.25.377.274l.397.057c.18.027.303.193.277.372-.01.071-.044.137-.095.187l-.288.28c-.118.115-.171.28-.144.443l.068.396c.03.178-.089.347-.267.378-.071.012-.144 0-.208-.033l-.355-.187c-.146-.076-.32-.076-.466 0z"/>
    </g>
</svg>
