<?xml version="1.0" encoding="UTF-8"?>
<svg width="24px" height="24px" viewBox="0 0 24 24" version="1.1" xmlns="http://www.w3.org/2000/svg" xmlns:xlink="http://www.w3.org/1999/xlink">
    <!-- Generator: Sketch 61.2 (89653) - https://sketch.com -->
    <title>Group 7</title>
    <desc>Created with Sketch.</desc>
    <g id="Desktop" stroke="none" stroke-width="1" fill="none" fill-rule="evenodd">
        <g id="Product" transform="translate(-1265.000000, -40.000000)" fill="#785EE5">
            <g id="Group-7" transform="translate(1265.000000, 40.000000)">
                <path d="M12.0080747,0.0740283186 C18.6309013,0.0740283186 23.999648,5.41901947 23.999648,12.0123292 C23.999648,18.6059575 18.6309013,23.9508425 12.0080747,23.9508425 C5.38546133,23.9508425 0.0168213333,18.6059575 0.0168213333,12.0123292 C0.0168213333,5.41901947 5.38546133,0.0740283186 12.0080747,0.0740283186 Z M11.488608,5.90093097 C11.108768,7.23197522 10.3795947,8.50578053 9.30610133,9.57452389 C7.86855467,11.0057097 6.061728,11.821285 4.242208,12.0108425 C4.74887467,12.4773558 5.118688,13.1004 5.266848,13.8249664 C5.58759467,15.3943115 4.76530133,16.9302053 3.36935467,17.5790549 C5.20327467,20.3940637 8.38706133,22.2566124 12.0080747,22.2566124 C15.6429547,22.2566124 18.8375147,20.380046 20.668128,17.5470903 C19.2736747,16.8387717 18.5095147,15.2397982 18.9191147,13.6691788 C19.3219947,12.1260637 20.727328,11.1081876 22.2592747,11.1264531 C22.1217813,9.5283292 21.6151147,8.03523186 20.825568,6.73116106 C19.0592747,7.56139115 16.7006613,7.75370973 14.3008747,7.10146195 C13.2669547,6.8203646 12.319968,6.40769204 11.488608,5.90093097 Z M12.0082773,15.9131257 C12.5684907,15.1299398 13.494784,15.1435327 14.5749973,16.6857982 C14.7332907,16.9216566 14.9369173,17.158046 15.3189973,17.158046 C14.158784,17.2367363 14.418304,18.6074973 12.0082773,18.6074973 C9.71643733,18.6074973 9.80635733,17.3153204 8.69755733,17.158046 C9.07963733,17.158046 9.282624,16.9216566 9.44155733,16.6857982 C10.5215573,15.1435327 11.4479573,15.1299398 12.0082773,15.9131257 Z M1.8881374,12.5621132 L1.733728,12.5712319 C1.80530133,13.896223 2.12999467,15.1539929 2.660128,16.2981345 C3.511328,15.9530018 4.02354133,15.0444 3.833248,14.1151965 C3.63218133,13.131515 2.71570133,12.4741699 1.733728,12.5712319 Z M22.2817813,12.5846124 C21.3915413,12.5566832 20.568288,13.1411788 20.334688,14.0352319 C20.097248,14.9457451 20.5507947,15.8732496 21.370208,16.2685062 C21.8903147,15.1361522 22.2093547,13.8931434 22.2817813,12.5846124 Z M12.008128,11.7360743 C12.6854613,11.7360743 13.2160213,12.1608531 13.2160213,12.702977 C13.2160213,12.8801097 13.0715947,13.0241097 12.8934613,13.0241097 C12.7155413,13.0241097 12.5712213,12.8801097 12.5712213,12.702977 C12.5712213,12.5497381 12.3304747,12.3782336 12.008128,12.3782336 C11.685888,12.3782336 11.445248,12.5497381 11.445248,12.702977 C11.445248,12.8801097 11.300928,13.0241097 11.1231147,13.0241097 C10.944768,13.0241097 10.800448,12.8801097 10.800448,12.702977 C10.800448,12.1608531 11.331008,11.7360743 12.008128,11.7360743 Z M17.0933333,8.88136991 C17.44672,8.88136991 17.7333333,9.16671504 17.7333333,9.51853805 C17.7333333,9.87036106 17.44672,10.1557062 17.0933333,10.1557062 C16.7399467,10.1557062 16.4533333,9.87036106 16.4533333,9.51853805 C16.4533333,9.16671504 16.7399467,8.88136991 17.0933333,8.88136991 Z" id="Combined-Shape"></path>
            </g>
        </g>
    </g>
</svg>