<?xml version="1.0" encoding="UTF-8"?>
<svg width="16px" height="16px" viewBox="0 0 16 16" version="1.1" xmlns="http://www.w3.org/2000/svg" xmlns:xlink="http://www.w3.org/1999/xlink">
    <!-- Generator: Sketch 64 (93537) - https://sketch.com -->
    <title>Shape</title>
    <desc>Created with Sketch.</desc>
    <g id="Desktop" stroke="none" stroke-width="1" fill="none" fill-rule="evenodd">
        <g id="Product" transform="translate(-904.000000, -379.000000)" fill="#DE5AA5" fill-rule="nonzero">
            <g id="Group-10" transform="translate(904.000000, 378.000000)">
                <path d="M15.4029907,15.8970743 C15.654884,16.1490759 15.654884,16.5566222 15.4038594,16.8077503 C15.2807432,16.9321892 15.1144014,17 14.9418054,17 C14.7695867,17 14.6036015,16.9324749 14.4798036,16.8086239 L12.9545415,15.2827063 C11.5453165,16.3982979 9.81644764,17 8.00081659,17 C6.18516737,17 4.45628203,16.3982859 3.04704934,15.2826728 L1.52101298,16.8086239 C1.39721511,16.9324749 1.23122993,17 1.05901116,17 C0.886792399,17 0.720807214,16.9324749 0.59700935,16.8086239 C0.345115969,16.5566222 0.345115969,16.1490759 0.59700935,15.8970743 L2.09586691,14.3975726 C0.741180766,12.9188871 0,11.0152875 0,9 C0,7.08367002 0.670069597,5.2657364 1.90397361,3.81892058 L1.67145062,3.58629767 L1.31599278,3.94190526 C1.19215156,4.06453547 1.02646519,4.13159507 0.854864434,4.13159507 C0.682443835,4.13159507 0.516582467,4.0648089 0.392862619,3.94103589 C0.140969238,3.68903426 0.140969238,3.2814879 0.392862619,3.02948627 L2.02603646,1.39561058 C2.28027843,1.14125936 2.69498154,1.14125936 2.9492235,1.39561058 C3.20111689,1.64761221 3.20111689,2.05515857 2.9492235,2.3071602 L2.5886239,2.66791477 L2.82162429,2.90101528 C4.26781304,1.66919586 6.08463255,1 8,1 C9.91536745,1 11.732187,1.66919586 13.1783757,2.90101528 L13.411247,2.66804395 L13.0499599,2.3071602 C12.7980665,2.05515857 12.7980665,1.64761221 13.0499599,1.39561058 C13.3042019,1.14125936 13.718905,1.14125936 13.9731469,1.39561058 L15.6063208,3.02948627 C15.8582142,3.2814879 15.8582142,3.68903426 15.6063208,3.94103589 C15.4833142,4.06409538 15.3165404,4.13159507 15.1451356,4.13159507 C14.9733693,4.13159507 14.8075472,4.0646859 14.6840818,3.94116727 L14.3286823,3.58616465 L14.0960264,3.81892058 C15.3299304,5.2657364 16,7.08367002 16,9 C16,11.0152875 15.2588192,12.9188871 13.9041331,14.3975726 L15.4029907,15.8970743 Z M1.30143541,9 C1.30143541,12.6983276 4.30751413,15.7056981 8,15.7056981 C11.6924859,15.7056981 14.6985646,12.6983276 14.6985646,9 C14.6985646,5.30167242 11.6924859,2.29430186 8,2.29430186 C4.30751413,2.29430186 1.30143541,5.30167242 1.30143541,9 Z M11.9160055,5.99002972 C12.2282757,5.80964558 12.6281998,5.91685025 12.8074271,6.22738459 L12.8706624,6.3369478 L12.8621354,6.35400903 C12.9532182,6.63674579 12.8382668,6.95452027 12.5691431,7.10998062 L8.32968249,9.55871834 C8.31077173,9.56906066 8.30697543,9.57113686 8.30241942,9.5732015 C8.25787072,9.59524038 8.25787072,9.59524038 8.25367521,9.59549837 C8.23538258,9.60341544 8.22757222,9.60679577 8.20832512,9.61097755 L8.22363564,9.60820321 C8.18733009,9.62079367 8.18733009,9.62079367 8.09635726,9.63612227 C8.12408432,9.63324341 8.13895708,9.6316992 8.14853309,9.63027151 C8.11273065,9.63880385 8.10810155,9.63925597 8.04817863,9.64510858 L8.07155508,9.64375261 C8.03631723,9.64689716 8.03631723,9.64689716 8,9.6475594 L7.99428389,9.6475594 C7.97866517,9.64768405 7.97866517,9.64768405 7.9316898,9.64338613 C7.94200077,9.64479902 7.94411082,9.64508815 7.94441374,9.64510225 C7.93768658,9.64457746 7.93690996,9.64448878 7.91370483,9.64100037 L7.92814035,9.6410239 C7.87261002,9.63620954 7.87261002,9.63620954 7.85855818,9.63203117 C7.85056654,9.63049092 7.85056654,9.63049092 7.78010029,9.60391116 L7.84059327,9.62794648 L7.82288101,9.6233758 L7.78339492,9.61091078 L7.78201406,9.61036305 C7.76042907,9.60280382 7.76042907,9.60280382 7.74550458,9.59612623 L7.73543011,9.59169884 L7.71202814,9.58079349 L7.69775653,9.57339724 L7.68508077,9.56608861 C7.66484558,9.55425749 7.65674332,9.54952027 7.6522388,9.54657535 C7.65399858,9.54763496 7.65947381,9.55097029 7.67080917,9.55787543 C7.64753181,9.54405904 7.64564082,9.54293664 7.63425561,9.53528543 C7.63065463,9.53273018 7.62855047,9.53111937 7.62575743,9.5289812 L4.28116147,7.1861043 C3.98854477,6.98144365 3.91769361,6.58004668 4.12144755,6.28847593 C4.3269717,5.994372 4.73497862,5.9222922 5.03031047,6.12885194 L8.03390966,8.23266669 L11.9160055,5.99002972 Z" id="Shape"></path>
            </g>
        </g>
    </g>
</svg>