<?xml version="1.0" encoding="UTF-8"?>
<svg width="36px" height="36px" viewBox="0 0 36 36" version="1.1" xmlns="http://www.w3.org/2000/svg" xmlns:xlink="http://www.w3.org/1999/xlink">
    <!-- Generator: Sketch 57.1 (83088) - https://sketch.com -->
    <title>Shape</title>
    <desc>Created with Sketch.</desc>
    <g id="Desktop" stroke="none" stroke-width="1" fill="none" fill-rule="evenodd">
        <g id="Landing-v2" transform="translate(-702.000000, -717.000000)" fill="#785EE5" fill-rule="nonzero">
            <path d="M736.656729,750.518417 C737.223489,751.085421 737.223489,752.0024 736.658684,752.567438 C736.381672,752.847426 736.007403,753 735.619062,753 C735.23157,753 734.858103,752.848069 734.579558,752.569404 L731.147718,749.136089 C727.976962,751.64617 724.087007,753 720.001837,753 C715.916627,753 712.026635,751.646143 708.855861,749.136014 L705.422279,752.569404 C705.143734,752.848069 704.770267,753 704.382775,753 C703.995283,753 703.621816,752.848069 703.343271,752.569404 C702.776511,752.0024 702.776511,751.085421 703.343271,750.518417 L706.715701,747.144538 C703.667657,743.817496 702,739.534397 702,735 C702,730.688258 703.507657,726.597907 706.283941,723.342571 L705.760764,722.81917 L704.960984,723.619287 C704.682341,723.895205 704.309547,724.046089 703.923445,724.046089 C703.535499,724.046089 703.162311,723.89582 702.883941,723.617331 C702.317181,723.050327 702.317181,722.133348 702.883941,721.566344 L706.558582,717.890124 C707.130626,717.317834 708.063708,717.317834 708.635753,717.890124 C709.202513,718.457127 709.202513,719.374107 708.635753,719.94111 L707.824404,720.752808 L708.348655,721.277284 C711.602579,718.505691 715.690423,717 720,717 C724.309577,717 728.397421,718.505691 731.651345,721.277284 L732.175306,720.753099 L731.36241,719.94111 C730.79565,719.374107 730.79565,718.457127 731.36241,717.890124 C731.934454,717.317834 732.867536,717.317834 733.439581,717.890124 L737.114222,721.566344 C737.680982,722.133348 737.680982,723.050327 737.114222,723.617331 C736.837457,723.894215 736.462216,724.046089 736.076555,724.046089 C735.690081,724.046089 735.316981,723.895543 735.039184,723.617626 L734.239535,722.81887 L733.716059,723.342571 C736.492343,726.597907 738,730.688258 738,735 C738,739.534397 736.332343,743.817496 733.284299,747.144538 L736.656729,750.518417 Z M704.92823,735 C704.92823,743.321237 711.691907,750.087821 720,750.087821 C728.308093,750.087821 735.07177,743.321237 735.07177,735 C735.07177,726.678763 728.308093,719.912179 720,719.912179 C711.691907,719.912179 704.92823,726.678763 704.92823,735 Z M728.811012,728.227567 C729.51362,727.821703 730.41345,728.062913 730.816711,728.761615 L730.95899,729.008133 L730.939805,729.04652 C731.144741,729.682678 730.8861,730.397671 730.280572,730.747456 L720.741786,736.257116 C720.699236,736.280386 720.690695,736.285058 720.680444,736.289703 C720.580209,736.339291 720.580209,736.339291 720.570769,736.339871 C720.529611,736.357685 720.512037,736.36529 720.468732,736.374699 L720.50318,736.368457 C720.421493,736.396786 720.421493,736.396786 720.216804,736.431275 C720.27919,736.424798 720.312653,736.421323 720.334199,736.418111 C720.253644,736.437309 720.243228,736.438326 720.108402,736.451494 L720.160999,736.448443 C720.081714,736.455519 720.081714,736.455519 720,736.457009 L719.987139,736.457009 C719.951997,736.457289 719.951997,736.457289 719.846302,736.447619 C719.869502,736.450798 719.874249,736.451448 719.874931,736.45148 C719.859795,736.450299 719.858047,736.4501 719.805836,736.442251 L719.838316,736.442304 C719.713373,736.431471 719.713373,736.431471 719.681756,736.42207 C719.663775,736.418605 719.663775,736.418605 719.505226,736.3588 L719.641335,736.41288 L719.601482,736.402596 L719.512639,736.374549 L719.509532,736.373317 C719.460965,736.356309 719.460965,736.356309 719.427385,736.341284 L719.404718,736.331322 L719.352063,736.306785 L719.319952,736.290144 L719.291432,736.273699 C719.245903,736.247079 719.227672,736.236421 719.217537,736.229795 C719.221497,736.232179 719.233816,736.239683 719.259321,736.25522 C719.206947,736.224133 719.202692,736.221607 719.177075,736.204392 C719.168973,736.198643 719.164239,736.195019 719.157954,736.190208 L711.632613,730.918735 C710.974226,730.458248 710.814811,729.555105 711.273257,728.899071 C711.735686,728.237337 712.653702,728.075157 713.318199,728.539917 L720.076297,733.2735 L728.811012,728.227567 Z" id="Shape"></path>
        </g>
    </g>
</svg>