<svg xmlns="http://www.w3.org/2000/svg" width="48" height="48" viewBox="0 0 48 48">
    <g fill="none" fill-rule="evenodd" stroke="#4C4C4C" stroke-linejoin="round" stroke-width="2" transform="translate(1 1)">
        <path stroke-linecap="round" d="M18.55 0.04L14.84 7.46 14.84 14.13 17.81 13.39 20.77 14.13 23.74 13.39 26.71 14.13 26.71 7.46 23.74 0.04"/>
        <path stroke-linecap="round" d="M0.04 7.42L8.2 0 33.42 0 41.59 7.42"/>
        <path stroke-linecap="square" d="M21.52 41.55H.74c-.409 0-.74-.331-.74-.74V8.16c0-.409.331-.74.74-.74h40.07c.409 0 .74.331.74.74v13.36"/>
        <circle cx="35.61" cy="35.61" r="10.39" stroke-linecap="round"/>
        <path stroke-linecap="round" d="M31.16 35.61L34.87 39.32 40.06 31.9"/>
    </g>
</svg>
