<svg xmlns="http://www.w3.org/2000/svg" width="13" height="18" viewBox="0 0 13 18">
    <g fill="#F6BD84" fill-rule="evenodd">
        <path d="M1.836 16.317c-.545 0-1.016-.205-1.345-.591-.513-.6-.573-1.483-.412-2.059L.928 9.93a.572.572 0 1 1 1.117.254l-.852 3.752-.009.032c-.073.252-.052.745.178 1.014.085.1.242.227.62.18a16.335 16.335 0 0 1 2.866-.072.573.573 0 0 1-.085 1.143 15.362 15.362 0 0 0-2.639.066 2.35 2.35 0 0 1-.288.018M10.74 10.153a.573.573 0 0 1-.556-.436l-.07-.283c-.19-.77-.717-1.188-1.823-1.45-.425-.098-.753-.243-1.001-.441a.573.573 0 0 1 .714-.896c.111.088.295.163.549.222.962.227 2.284.71 2.673 2.29l.07.284a.573.573 0 0 1-.557.71"/>
        <path d="M3.357 17.904c-1.232 0-1.884-.447-2.215-.822a1.933 1.933 0 0 1-.465-1.543.573.573 0 0 1 1.137.144.81.81 0 0 0 .188.642c.25.283.719.434 1.355.434 2.783 0 7.075-1.673 7.075-3.896 0-1.41-.828-1.707-1.522-1.707-.579 0-.89.263-1.049.484-.186.26-.251.593-.165.851.157.472.47.64.549.677.128.024.595.07.922-.462a.572.572 0 1 1 .976.602 2.037 2.037 0 0 1-2.22.961c-.12-.038-.955-.336-1.315-1.415-.201-.606-.077-1.327.324-1.884.446-.619 1.148-.96 1.978-.96 1.23 0 2.668.747 2.668 2.853 0 3.31-5.352 5.041-8.22 5.041"/>
        <path d="M6.17 14.739a.576.576 0 0 1-.148-.02c-1.305-.346-2.536-.276-3.34-.155a.572.572 0 0 1-.64-.707l.86-3.415a.573.573 0 0 1 1.112.28l-.66 2.619a9.25 9.25 0 0 1 2.962.271.573.573 0 0 1-.146 1.127M6.237 9.595c-.609 0-1.227-.247-1.751-.741a.574.574 0 0 1 .785-.835c.591.557 1.29.576 1.825.049a.573.573 0 0 1 .804.816c-.481.474-1.068.71-1.663.71M6.79 6.431c-.499 0-1.31-.291-1.888-.678a.573.573 0 1 1 .638-.952c.475.318 1.066.485 1.25.485.338 0 .874-.511.874-1.882a.573.573 0 0 1 1.146 0c0 2.394-1.32 3.027-2.02 3.027"/>
        <path d="M2.592 9.784a.573.573 0 0 1-.573-.573V4.408C2.019 1.38 4.211 0 6.249 0 7.266 0 8.72.484 9.461 1.85a.573.573 0 0 1-1.007.547c-.66-1.216-2.05-1.251-2.207-1.251-1.422 0-3.083.854-3.083 3.262v4.197c.667-.08 1.484-.342 1.484-1.14V4.652c0-1.893 1.434-2.525 1.495-2.551a.572.572 0 1 1 .45 1.054c-.026.012-.799.38-.799 1.497v2.813c0 1.12-.841 2.319-3.203 2.319M9.7 17.42c-1.084 0-1.944-.754-1.993-.798a.573.573 0 1 1 .765-.853c.038.033.99.855 1.842.322.255-.16.497-.362.753-.576l.077-.064a.573.573 0 1 1 .735.879l-.077.064c-.274.23-.558.467-.88.669a2.27 2.27 0 0 1-1.223.358M4.667 13.189a.573.573 0 0 1-.225-1.1c.06-.025 1.466-.619 2.71-.479a.573.573 0 0 1-.129 1.139c-.937-.106-2.12.39-2.132.394a.565.565 0 0 1-.224.046"/>
    </g>
</svg>
