<svg xmlns="http://www.w3.org/2000/svg" width="36" height="54" viewBox="0 0 36 54">
    <g fill="#785EE5" fill-rule="evenodd">
        <path d="M5.462 48.951c-1.622 0-3.022-.614-4.003-1.774C-.064 45.38-.243 42.73.234 41.001L2.76 29.79a1.702 1.702 0 0 1 2.04-1.295 1.719 1.719 0 0 1 1.284 2.057L3.548 41.807l-.025.097c-.218.757-.155 2.235.528 3.043.254.298.721.68 1.844.538 4.212-.53 8.35-.227 8.525-.214a1.715 1.715 0 0 1 1.572 1.841c-.07.948-.89 1.664-1.826 1.587-.04-.004-3.982-.289-7.848.197a6.93 6.93 0 0 1-.856.055M31.943 30.46a1.708 1.708 0 0 1-1.653-1.308l-.208-.851c-.563-2.307-2.133-3.564-5.421-4.346-1.265-.298-2.24-.732-2.978-1.326a1.728 1.728 0 0 1-.27-2.415 1.694 1.694 0 0 1 2.395-.273c.33.265.878.49 1.632.667 2.86.68 6.794 2.132 7.951 6.87l.208.852a1.721 1.721 0 0 1-1.247 2.08c-.137.034-.274.05-.41.05"/>
        <path d="M9.986 53.713c-3.664 0-5.605-1.341-6.588-2.467-1.108-1.268-1.6-2.912-1.384-4.63.118-.942.974-1.62 1.904-1.489.934.12 1.595.98 1.477 1.922-.053.419-.05 1.227.56 1.925.744.851 2.137 1.302 4.03 1.302 8.278 0 21.043-5.018 21.043-11.686 0-4.233-2.462-5.121-4.527-5.121-1.72 0-2.645.79-3.119 1.451-.555.778-.748 1.78-.493 2.554.467 1.416 1.397 1.922 1.633 2.03.382.071 1.77.207 2.745-1.385a1.694 1.694 0 0 1 2.346-.56c.8.499 1.05 1.558.555 2.366-1.947 3.18-5.167 3.275-6.601 2.883-.357-.114-2.842-1.01-3.911-4.247-.6-1.816-.231-3.98.962-5.65 1.327-1.857 3.416-2.88 5.883-2.88 3.661 0 7.936 2.241 7.936 8.559 0 9.929-15.919 15.123-24.451 15.123"/>
        <path d="M18.351 44.217a1.7 1.7 0 0 1-.438-.059c-3.882-1.038-7.545-.828-9.933-.466a1.692 1.692 0 0 1-1.515-.546 1.732 1.732 0 0 1-.39-1.574l2.558-10.247a1.703 1.703 0 0 1 2.069-1.247 1.72 1.72 0 0 1 1.236 2.086l-1.962 7.858c2.485-.163 5.572-.054 8.811.814a1.72 1.72 0 0 1 1.21 2.102 1.707 1.707 0 0 1-1.646 1.279M18.55 28.784c-1.81 0-3.648-.741-5.208-2.223a1.731 1.731 0 0 1-.073-2.43 1.696 1.696 0 0 1 2.41-.074c1.758 1.67 3.837 1.727 5.426.146a1.695 1.695 0 0 1 2.41.018c.66.676.653 1.764-.017 2.43-1.431 1.423-3.176 2.133-4.947 2.133M20.198 19.294c-1.486 0-3.9-.874-5.617-2.034a1.727 1.727 0 0 1-.468-2.385 1.697 1.697 0 0 1 2.364-.472c1.413.955 3.172 1.454 3.72 1.454 1.005 0 2.6-1.533 2.6-5.646 0-.95.762-1.719 1.704-1.719.94 0 1.704.77 1.704 1.719 0 7.184-3.93 9.083-6.007 9.083"/>
        <path d="M7.71 29.352c-.941 0-1.705-.77-1.705-1.719V13.224C6.005 4.138 12.525 0 18.585 0c3.03 0 7.351 1.453 9.558 5.549.45.835.143 1.878-.684 2.331a1.695 1.695 0 0 1-2.31-.689c-1.966-3.648-6.1-3.754-6.564-3.754-4.23 0-9.172 2.564-9.172 9.787v12.59c1.985-.241 4.415-1.026 4.415-3.42v-8.439c0-5.677 4.266-7.575 4.448-7.653a1.697 1.697 0 0 1 2.234.908 1.722 1.722 0 0 1-.899 2.254c-.076.036-2.375 1.141-2.375 4.491v8.44c0 3.362-2.502 6.957-9.527 6.957M28.849 52.263c-3.223 0-5.78-2.265-5.925-2.396a1.728 1.728 0 0 1-.133-2.427 1.695 1.695 0 0 1 2.407-.133c.113.1 2.947 2.564 5.48.966.759-.478 1.478-1.085 2.239-1.727l.23-.194a1.694 1.694 0 0 1 2.401.217 1.73 1.73 0 0 1-.216 2.421l-.228.192c-.817.689-1.66 1.401-2.62 2.006-1.243.784-2.482 1.075-3.635 1.075M13.883 39.567a1.703 1.703 0 0 1-1.57-1.045 1.723 1.723 0 0 1 .899-2.254c.176-.076 4.36-1.857 8.058-1.438a1.716 1.716 0 0 1 1.503 1.9 1.714 1.714 0 0 1-1.883 1.516c-2.789-.318-6.307 1.168-6.342 1.184a1.668 1.668 0 0 1-.665.137"/>
    </g>
</svg>
