<svg xmlns="http://www.w3.org/2000/svg" width="18" height="15" viewBox="0 0 18 15">
    <g fill="none" fill-rule="evenodd">
        <path fill="#DE5AA5" fill-rule="nonzero" d="M11.864.013l.06.023 5.538 2.727c.236.116.254.43.055.577l-.055.033-2.15 1.059 2.15 1.059c.236.116.254.43.055.576l-.055.033-2.578 1.269v3.2c0 .117-.06.226-.162.288l-5.539 3.41-.024.013-.028.013.052-.027c-.028.018-.058.03-.087.04l-.03.006c-.011.003-.022.004-.033.005L9 14.32c-.011 0-.022 0-.033-.002-.011 0-.023-.003-.034-.005l-.029-.007c-.03-.008-.059-.021-.087-.039l.054.028-.035-.016-.02-.012-5.538-3.409c-.101-.062-.163-.171-.163-.289V7.37L.538 6.1c-.236-.116-.254-.43-.055-.577l.055-.032 2.15-1.06-2.15-1.058c-.236-.116-.254-.43-.055-.577l.055-.033L6.076.036c.078-.038.167-.046.25-.023l.06.023L9 1.323 11.614.036c.078-.038.167-.046.25-.023zm-3.21 7.698L6.4 8.819l-.009.005-.015.008c-.019.008-.038.015-.058.02l-.022.005c-.018.004-.035.006-.053.006H6.22c-.019 0-.037-.002-.054-.005-.031-.006-.061-.016-.09-.03l.07.026-.012-.004-.058-.022L3.808 7.71v2.669l4.846 2.983V7.711zm5.538 0l-1.03.506-1.238.61c-.024.012-.049.021-.073.027l.073-.026c-.026.013-.054.022-.083.028-.021.005-.044.007-.066.008h-.02c-.017-.001-.035-.003-.052-.007l-.022-.005c-.019-.005-.038-.011-.056-.02-.003 0-.007-.003-.01-.004L9.345 7.71v5.652l4.846-2.983V7.71zM3.462 4.813l-1.996.982 2.62 1.29 2.145 1.056 1.994-.982-4.763-2.346zm11.076 0L9.774 7.159l1.995.982 1.374-.677 3.39-1.669-1.995-.982zM9 2.086L4.236 4.432 9 6.777l4.764-2.345L9 2.086zM6.23.722L1.467 3.068l1.996.983 4.764-2.346L6.231.722zm5.54 0l-1.997.983 4.765 2.345 1.995-.982L11.769.722z"/>
        <g stroke="#DE5AA5" stroke-linecap="round" stroke-width=".75">
            <path d="M.5 1.5L5.5 1.5M3 .5L3 2.5" transform="translate(6 3)"/>
        </g>
    </g>
</svg>
