<svg xmlns="http://www.w3.org/2000/svg" width="129" height="129" viewBox="0 0 129 129">
    <g fill="none" fill-rule="evenodd">
        <path fill="#80A09E" d="M80.683 37.478l8.473-6.458a87.6 87.6 0 0 0-.55-8.629l-5.21 3.189s2.593-3.28 4.836-6.046C87.214 12.69 85.52 7.22 83.942 4.14 61.468 27.156 68.508 44.215 60.385 75.625l11.914 3.52c11.99-12.944 16.233-29.18 16.799-43.463l-8.415 1.796z"/>
        <path stroke="#FFF" stroke-width=".673" d="M85.957 0c-15.447 34.796-.792 42.031-21.208 80.805"/>
        <path fill="#7B8D96" d="M41.987 83.66c-6.285 1.31-39.882-9.39-39.882-9.39C7.818 85.29 13.54 93.03 19.096 98.527l7.644.028-5.356 2.12c12.13 10.79 23.325 11.38 31.683 12.83L41.987 83.66z"/>
        <path stroke="#FFF" stroke-width=".673" d="M2.104 74.27c16.645 17.7 43.297 28.554 52.579 27.091"/>
        <path fill="#558E71" d="M35.265 47.272l-1.191 15.455-3.592-18.493a54.177 54.177 0 0 0-9.016-4.13c-.377 3.676-1.166 10.25-1.166 10.25l-3.442-11.6c-5.842-1.388-11.59-1.51-16.858-.25 7.485 34.83 27.538 38.775 51.555 65.499L64.48 91.697c-4.852-20-16.193-35.29-29.216-44.425"/>
        <path fill="#407062" d="M38.614 75.856c-9.247-3.511-19.219-3.593-21.147-14.857C15.539 49.735 8.285 43.97.001 38.504 10.26 83.7 27.539 77.279 51.555 104.003c2.805-8.999-3.693-24.636-12.94-28.147"/>
        <path fill="#558E71" d="M125.582 64.18L110.32 62.59l16.164-3.484c.457-3.09.742-6.102.923-9l-13.416.576 13.627-5.11c.286-8.911-.136-16.397.998-21.132-53.286 24.23-60.036 67.354-60.882 91.7l14.161.039c7.94-3.861 14.5-8.114 19.921-12.617l-5.353-8.089s4.867 3.405 8.2 5.604a71.904 71.904 0 0 0 6.79-7.108l-6.872-7.876 10.382 3.254c5.751-8.302 8.894-16.922 10.62-25.166"/>
        <path fill="#407062" d="M90.104 83.068c.304-9.555-.646-25.13 11.259-32.095 13.916-8.142 22.39-7.867 27.255-26.534-53.286 24.23-60.037 67.354-60.883 91.7 0 0 21.75-13.635 22.369-33.07"/>
        <path fill="#B6D39A" d="M45.069 32.451c-7.47-9.488-12.183-19.595-8.29-30.449 0 0 13.662 8.3 8.29 30.449M37.749 34.984c-11.525-3.608-21.123-9.285-24.043-20.44 0 0 15.961-.87 24.043 20.44M47.528 52.939c-10.432-1.655-19.16-3.875-23.107-13.155 0 0 13.4-4.256 23.107 13.155M50.131 44.142c-.053-12.076-.093-23.44 9.652-29.603 0 0 8.209 15.444-9.652 29.603"/>
        <path stroke="#B6D39A" stroke-width=".897" d="M44.005 28.722l11.453 40.109M35.824 32.861l13.67 15.083M50.379 43.624l.781 10.16M45.54 51.978l5.804 2.445"/>
        <path fill="#B9CABA" d="M92.862 73.875c6.238-5.649 10.653-12.044 9.244-19.955 0 0-10.355 4.11-9.244 19.955M97.182 76.175c8.339-1.136 15.595-3.919 18.901-11.242 0 0-10.866-2.459-18.901 11.242M88.1 89.464c7.294-.994 13.64-3.428 16.532-9.833 0 0-9.503-2.15-16.531 9.833M88.406 81.242c1.444-8.291 1.167-15.852-4.811-21.222 0 0-5.811 9.412 4.811 21.222"/>
        <path fill="#B9CABA" d="M83.29 94.391l-.45-.215 10.097-21.113.451.216z"/>
        <path fill="#B9CABA" d="M88.473 83.497l-.31-.392 9.58-7.537.31.393zM86.733 87.187l-.481-.136 1.83-6.504.324.695zM84.605 91.529l-.232-.443 4.256-2.227.232.443zM32.025 78.397c-3.837-6.484-8.654-11.502-15.845-11.684 0 0 1.75 9.818 15.845 11.684M34.815 75.019c.498-7.517-.642-14.38-6.473-18.592 0 0-4.103 9.089 6.473 18.592M44.842 85.365c.435-6.575-.562-12.576-5.661-16.26 0 0-3.589 7.949 5.661 16.26M37.686 83.624c-7.013-2.752-13.694-3.864-19.475.417 0 0 7.214 6.783 19.475-.417"/>
        <path fill="#B9CABA" d="M48.302 90.467l-.27.356-16.706-12.64.27-.356z"/>
        <path fill="#B9CABA" d="M39.677 83.97l-.4.2-4.893-9.752.4-.2zM42.6 86.157l-.204.398-5.377-2.771.668-.16zM46.026 88.801l-.43.124-1.19-4.132.43-.124z"/>
        <path fill="#313A4E" d="M78.831 58.997c-6-4.629-.306-7.039-3.125-13.214-3.6-7.887-12.99-9.083-16.869-7.542-5.3 2.105-7.423 10.16-4.806 17.823 1.957 5.73-10.205 8.978-3.617 18.347 4.46 6.343 11.435.492 13.984-.501l.974 3.433 13.49.829c3.157-3.373 5.473-14.929-.03-19.175"/>
        <path fill="#DB886A" d="M62.496 58.697l-.335 6.126a.535.535 0 0 1-.534.506l-1.917 5.803 6.145 5.158 6.811-6.512-1.614-4.449h-.012a.535.535 0 0 1-.533-.487L69.5 53.795l-7.003 4.902z"/>
        <path fill="#E49071" d="M58.535 43.782c-4.136 2.1-1.45 18.127 4.711 17.59 6.162-.537 6.827-7.26 6.827-7.26 2.12-.075 2.638-6.431-.678-4.292 0 0-3.407-9.82-10.86-6.038"/>
        <path fill="#121D4A" d="M83.351 105.275c5.033-1.949 14.443-2.862 16.338.928 2.785 5.57-11.325 17.452-31.375 18.937l-21.165-14.11-.198-5.64 16.986 7.242c6.829-2.577 16.876-6.374 19.414-7.357"/>
        <path fill="#E49071" d="M62.958 121.36c1.346.742 7.785 2.026 9.562 2.113 2.626.128 5.618-1.482 7.806-.952 2.189.53 5.577 1.087 5.206 2.619-.372 1.532-5.756 3.667-8.494 2.831-2.738-.835-16.941-.51-16.941-.51l2.861-6.102z"/>
        <path fill="#EBB556" d="M77.088 122.73c1.107.774.93 4.068-.477 5.137 4.747 1.543 9.283-.424 9.678-2.727.44-2.565-6.971-3.926-9.201-2.41"/>
        <path fill="#172769" d="M33.259 104.77c-2.785 3.342 4.236 14.615 12.776 18.142 8.54 3.527 16.924 6.004 16.924 6.004s.342-4.796 2.882-7.21c1.172-1.115-18.89-16.316-18.89-16.316s-10.908-3.961-13.692-.62"/>
        <path stroke="#172769" stroke-width=".673" d="M85.56 109.916c-2.766.836-11.372 7.153-14.064 7.153"/>
        <path fill="#DB6262" d="M79.129 83.832l5.012 7.612s-6.22 9.932-7.519 10.582c-1.3.65-7.333 1.56-7.333 1.56l2.97 5.402 5.961-3.447c9.097-5.016 12.745-12.36 12.745-13.813-.003-6.518-9.124-21.337-11.093-23.305-2.743-2.743-8.82-3.094-8.82-3.094l8.077 18.503zM53.549 83.832l-5.013 7.612s6.22 9.932 7.52 10.582c1.299.65 7.333 1.56 7.333 1.56l-2.97 5.402-5.962-3.447c-9.097-5.016-12.933-10.78-12.933-13.826.002-6.519 9.313-21.324 11.281-23.292 2.743-2.743 8.822-3.094 8.822-3.094l-8.078 18.503z"/>
        <path fill="#DB6262" d="M81.85 93.329c-.012-1.664-.302-3.542 0-5.366L71.052 65.33s-.614 5.52-4.712 5.52-4.712-5.52-4.712-5.52L50.83 87.963c.302 1.824.012 3.702 0 5.366-.009 1.138.97 7.038-.174 10.225-.196.546-1.656 2.163-2.284 2.442 1.615.39 10.512 6.584 10.512 6.584l7.456 1.783 7.156-1.636s9.392-6.745 9.73-7.402c-.956.08-1.114-1.432-1.2-1.77-.834-3.262-.168-9.21-.176-10.226"/>
        <path fill="#BD5656" d="M50.987 102.261c-.006.038-.016.072-.023.11.035.637.083 1.307-.309 1.183-.185.517-1.696 2.166-2.283 2.442.936.998 8.12 5.143 8.12 5.143s-5.092-5.22-5.505-8.878M83.224 105.324c-.455-.308-1.113-1.432-1.2-1.77a12.633 12.633 0 0 1-.303-1.868v.02c.103 3.657-4.071 8.21-4.072 8.21 0 0 4.94-3.775 5.575-4.592"/>
        <path fill="#DB6262" d="M82.886 98.672c0 8.666-7.881 15.691-16.548 15.691-8.666 0-16.547-7.025-16.547-15.691S57.672 82.98 66.338 82.98c8.667 0 16.548 7.026 16.548 15.692"/>
        <path fill="#BD5656" d="M78.644 91.492c-2.49-4.31-7.32-7.094-12.305-7.094-4.986 0-9.816 2.784-12.306 7.094l-.433-.25c2.578-4.461 7.578-7.344 12.739-7.344 5.16 0 10.16 2.883 12.738 7.343l-.433.25z"/>
        <path fill="#E49071" d="M76.56 102.788c-.462-.107-3.163-.76-3.163-.76s-3.066-.608-3.322-.154c-.587 1.038 2.15 1.038 2.15 1.038s.605.29.46.768c-.728.212-1.359.462-1.711.771 0 0-1.658 1.02-2.207 1.106-.548.087-1.577.577-1.456 1.404.031.219 2.047-.498 2.278-.567.148-.045 1.023-.484 1.815-.885l.034.082c-.611.55-1.584 1.383-1.95 1.44-.548.087-3.03.482-3.03 1.363 0 .221 2.832-.163 3.39-.387.382-.154 1.258-.79 2.033-1.327l.043.106a15.08 15.08 0 0 1-2.116 1.6c-1.208.737-2.104.594-2.22 1.835-.021.234 1.333-.134 2.437-.77a20.237 20.237 0 0 0 2.31-1.565l.12.204c-.282.214-.617.628-1.198 1.021-.993.672-2.275 1.372-2.12 1.557.169.203 1.196-.081 2.424-.644.9-.412 2.862-1.933 3.634-2.514l2.305-1.875c.125-.07.247-.142.371-.213-.253-.88-.803-1.945-1.312-2.634"/>
        <path fill="#DB6262" d="M75.808 101.705c.47.463 2.305 4.126 2.305 4.515 0 .388 6.655-5.507 6.655-5.507l-2.532-6.294s-3.303 5.312-6.428 7.286"/>
        <path fill="#E49071" d="M56.12 102.788c.462-.107 3.162-.76 3.162-.76s3.067-.608 3.323-.154c.586 1.038-2.15 1.038-2.15 1.038s-.606.29-.46.768c.728.212 1.359.462 1.71.771 0 0 1.659 1.02 2.207 1.106.548.087 1.577.577 1.457 1.404-.032.219-2.048-.498-2.279-.567-.147-.045-1.022-.484-1.815-.885l-.033.082c.61.55 1.584 1.383 1.95 1.44.547.087 3.029.482 3.029 1.363 0 .221-2.832-.163-3.39-.387-.381-.154-1.258-.79-2.032-1.327l-.043.106a15.08 15.08 0 0 0 2.116 1.6c1.208.737 2.103.594 2.219 1.835.022.234-1.333-.134-2.436-.77a20.237 20.237 0 0 1-2.31-1.565l-.12.204c.281.214.616.628 1.198 1.021.993.672 2.274 1.372 2.12 1.557-.17.203-1.196-.081-2.424-.644-.9-.412-2.862-1.933-3.635-2.514l-2.304-1.875c-.125-.07-.248-.142-.372-.213.254-.88.803-1.945 1.312-2.634"/>
        <path fill="#DB6262" d="M56.87 101.705c-.47.463-2.306 4.126-2.306 4.515 0 .388-6.654-5.507-6.654-5.507l2.531-6.294s3.304 5.312 6.429 7.286"/>
    </g>
</svg>
