<svg xmlns="http://www.w3.org/2000/svg" width="90" height="83" viewBox="0 0 90 83">
    <path fill="#B9CABA" fill-rule="nonzero" d="M51.136 39.152c-.613 0-1.022-.207-1.431-.619-.819-.824-.819-2.06 0-2.885l4.5-4.533c-1.841-2.679-3.069-5.77-3.069-8.86 0-4.122 1.841-8.037 5.319-11.54C63.409 3.71 84.682.206 85.5 0c.818 0 1.432.206 1.84.412.41.618.82 1.236.615 1.855 0 1.03-3.478 22.254-10.637 29.26-4.295 4.328-8.386 5.564-11.454 5.564-.819 0-1.841 0-2.66-.206-1.227-.206-1.84-1.443-1.636-2.473.205-1.236 1.432-1.854 2.455-1.648 3.477.824 6.954-.619 10.432-4.122 4.295-4.533 7.568-17.103 9-24.109-7.16 1.443-19.637 4.74-24.137 9.067-2.659 2.679-4.09 5.564-4.09 8.448 0 2.061.817 4.122 2.045 5.976l8.795-8.86c.818-.825 2.046-.825 2.864 0 .818.824.818 2.06 0 2.884L52.568 38.533c-.409.412-.818.619-1.432.619zM25.364 23.285c-4.5-4.533-6.75-17.31-6.955-18.752 0-.824.205-1.442.614-1.854.409-.412 1.022-.618 1.84-.618 1.432.206 13.91 2.472 18.614 6.8 4.091 4.12 4.705 8.86 1.841 12.981l3.273 3.297c.818.825.818 2.061 0 2.885-.41.412-1.023.618-1.432.618-.409 0-1.023-.206-1.432-.618l-8.182-8.242c-.818-.824-.818-2.06 0-2.885.819-.824 2.046-.824 2.864 0l2.046 2.06c1.227-2.266.613-4.739-1.841-7.212-2.25-2.266-9-4.12-13.296-5.151.818 4.533 2.66 11.127 5.114 13.6 1.023 1.03 2.045 1.648 3.068 2.06 1.023.413 1.636 1.649 1.227 2.68-.409.824-1.227 1.442-2.045 1.442h-.614c-1.636-.618-3.273-1.649-4.704-3.091zm64.022 28.848c.41.412.614 1.03.614 1.649 0 .618-.41 1.03-.818 1.442L69.955 69.648c-3.887 2.885-8.387 4.534-13.091 5.152l-28.841 3.297c-.818.206-1.841.206-2.864.206H13.91c-.818 2.473-3.068 4.121-5.727 4.121H2.045C.818 82.424 0 81.6 0 80.364c0-1.237.818-2.061 2.045-2.061h6.137c1.227 0 2.045-.824 2.045-2.06V63.878c0-1.237-.818-2.06-2.045-2.06H2.045C.818 61.818 0 60.993 0 59.757c0-1.237.818-2.061 2.045-2.061h6.137c1.84 0 3.682.824 4.704 2.473l7.16-8.243c3.477-4.12 8.59-6.388 13.909-6.388h21.272c2.25 0 4.091 1.855 4.091 4.122 0 2.266-.818 4.533-2.045 6.181 2.659-.206 5.318-.824 7.568-1.854l8.59-4.121c5.114-2.885 11.66-2.06 15.955 2.266zM67.5 66.352l17.182-12.776c-2.864-1.855-6.546-1.855-9.41-.206l-8.795 4.12c-3.068 1.443-6.34 2.268-9.818 2.268H36.82c-1.228 0-2.046-.825-2.046-2.061s.818-2.06 2.045-2.06h12.273c3.477 0 6.136-2.68 6.136-6.182H34.16c-4.295 0-8.182 1.854-10.84 4.945l-9 10.303v9.479h10.84c.818 0 1.636-.206 2.455-.206l28.84-3.297c4.091-.412 7.773-1.855 11.046-4.327z"/>
</svg>
