<svg xmlns="http://www.w3.org/2000/svg" width="65" height="120" viewBox="0 0 65 120">
    <g fill="none" fill-rule="evenodd">
        <path fill="#A8E1FC" d="M11.277 114.592c.083 1.03.687 3.25-.115 4.063-.968.98-2.521.356-3.493-.253-2.48-1.551-5.087-1.194-6.89-2.927-1.535-1.475-.585-1.663.984-1.864 1.644-.212 3.391-.103 5.008-.456l4.506 1.437z"/>
        <path fill="#FFB187" d="M6.929 114.974c1.077.24 2.03.732 3.063 1.045.26.078.574.29.81.341.38.081.783.05.72-.287-.294-1.626-.05-2.048 2.003-4.628 6.193-7.54 11.177-13.544 12.967-18.64.011-.032.236-.795.306-1.1.317-2.162.279-3.952.104-5.446-.004-.008-.004-.015-.004-.024-.252-2.114-.767-3.64-.925-4.782-.105-.799.352-2.363.976-4.044.852-2.297 2.01-4.815 2.459-5.914.012-.036.027-.067.04-.093l-.644.278-10.147 4.377c-.554.561-1.194 1.058-1.802 1.56-.224.187-.398.221-.538.183-.426-.1-.507-.856-.5-.03v.014c.012 1.01.21 2.189.392 3.37 0 .012.004.02.004.03.127.822.244 1.65.282 2.425 0 .024.004.047.004.062a9.051 9.051 0 0 1-.016 1.19c-.173 1.823-2.145 15.124-7.71 25.895-.83 1.569-2.254 2.347-3.451 2.765-1.655.578 1.041 1.328 1.607 1.453M18.812 25.896c1.756-.257 3.702-.43 5.296-1.245.531-.272 4.465-2.852 3.897-.495-.124.519-.696.647-1.516.626-.307.677-1.391 1.482-1.827 1.852-1.25 1.06-2.891 2.24-4.474 2.548-.75.146-1.507.109-2.255.191l.88-3.477z"/>
        <path fill="#F48C6C" d="M14.196 41.23c.195-6.837 11.325-14.31 14.752-19.616 1.438-2.227 4.521-5.419 7.492-3.809 2.314 1.253 2.479 4.429 1.811 6.697-1.327 4.508-7.05 10.268-10.748 12.814-3.163 2.177-5.105 7.256-9.377 8.26 0 0-4.087 1.13-3.93-4.346"/>
        <path fill="#A8E1FC" d="M59.947 114.657c.43.94 1.448 2.804.973 3.844-.573 1.252-2.495 1.428-3.616 1.189-2.862-.609-4.174.965-6.46-.046-1.948-.861-1.12-1.362.285-2.088 1.473-.763 3.553-1.853 4.953-2.74l3.865-.159z"/>
        <path fill="#FFB187" d="M54.93 115.508c2.159-1.568-9.947-25.266-10.975-26.802-1.554-2.32-1.97-2.746-3.625-5.013-1.745-2.388-.857-1.8-.573-4.815l5.187-9.966c.555 1.76 2.842 8.761 4.197 10.031 1.425 1.334 4.213 3.887 6.229 8.906 2.696 6.714 1.715 23.117 4.578 26.808.22 4.111-3.518.472-5.018.85"/>
        <path fill="#F48C6C" d="M15.817 77.77v.014c.008.14.205 1.82.391 3.37 0 .012.004.02.004.03.128 1.078.248 2.08.283 2.425 0 .024.004.047.004.062a.48.48 0 0 1 .004.063c0 .019 3.311 1.363 3.528 1.475 1.836.964 6.513 5.536 6.766 6.495.206-.879.306-1.646.326-2.42.027-1.05-.082-1.995-.221-3.025-.004-.008-.004-.015-.004-.024-.016-.088-.027-.178-.039-.267-.21-1.522-.689-2.993-.887-4.515-.105-.798.353-2.363.976-4.044.175-1.58 1.085-3.9 1.856-5.728.379-.895.724-1.673.933-2.189l-10.748 4.636c-2.06 2.092-2.494 1.329-2.673 3.672-.015.182-.027.383-.038.608-.023.472-.461-.968-.461-.638M39.757 78.878l5.187-9.966c.555 1.76 2.843 8.761 4.198 10.031 1.425 1.334 4.213 3.887 6.229 8.906.389.97.701 2.142.96 3.448-3.788-2.545-9.02-3.737-13.437-3.952-1.044-1.144-1.312-1.938-2.564-3.652-1.744-2.388-.856-1.8-.573-4.815"/>
        <path fill="#FFB187" d="M27.254 22.52c.228-.252.233-.53.12-.759 2.077-1.498 5.558-4.075 6.038-5.284.488-1.212.453-3.222-.798-6.565l4.063-2.684 1.452-.956c-.519 2.653 1.689 5.69 7.673 13.296 1.851 2.355 1.7 7.324.492 9.62-.674 1.279-2.425 1.279-4.489.705-3.688-1.026-8.378-3.884-9.726-4.539-1.174-.575-3.656-.796-5.618-2.01.271-.266.536-.54.793-.824"/>
        <path fill="#F48C6C" d="M41.203 18.322c-.767-2.423-3.113-4.59-5.008-6.186-.57-.48-1.432-.456-2.094-.218-.152.054-.429.17-.758.298a21.436 21.436 0 0 0-.73-2.304l4.063-2.684 1.452-.956c-.519 2.653 1.689 5.69 7.673 13.296 1.851 2.354 1.7 7.324.492 9.62-.674 1.279-2.425 1.279-4.489.705-1.43-.398-3.006-1.07-4.483-1.783 3.28-1.724 4.992-6.289 3.882-9.788"/>
        <path fill="#FFB187" d="M31.42 3.921c.379-.25.888-1.805 2.542-2.897 1.382.364 2.757.752 4.131 1.151.516.636.918 1.355 1.088 2.208.71 3.56-2.603 5.97-5.758 6.222-2.82.226-3.253-2.585-2.95-4.908-.355-.299-.54-.683-.545-.89-.007-.26.88-.48 1.492-.886"/>
        <path fill="#070041" d="M34.984 7.616c1.822 3.091 3.011 4.194 9.01 11.789 5.092 6.447-.509 11.905-2.573 11.332-.934 4.946-2.15 9.935 1.088 14.4 1.488 2.057 7.599 7.263 9.187 2.781 1.41-3.973-.31-8.648 2.665-12.114 1.79-2.088 3.52-4.95 3.501-7.778-.047-6.874-3.737-10.685-8.44-14.672-2.11-1.79-4.143-2.821-5.337-4.956-1.308-2.337-1.817-4.662-3.418-6.13-2.073-1.9-5.138-2.907-6.821-1.824-2.274 1.464.08 5.377 1.138 7.172"/>
        <path fill="#CCDFF8" d="M12.134 77.594s4.6 5.35 10.183 7.449c12.67 4.76 19.824.662 26.306.662 10.42 0 15.578-10.053 15.429-10.182-9.252-6.931-11.78-18.708-13.693-23.228-5.75-13.584-9.506-10.693-7.969-17.013.841-3.456 3.5-6.156 4.156-9.591 0 0 .322-1.992-.99-3.733-1.312-1.743-4.35-1.643-6.688-.454-2.673 1.359-3.978 3.051-7.207 2.165-1.544-.424-2.823-1.078-3.905-2.28-3.317 2.388-7.165 5.548-5.439 9.59 1.063 2.485 1.716 3.695 2.553 5.252.405.753.558 1.96.616 3.407.191 4.853-.64 7.922-3.169 14.033-2.046 4.944-10.183 23.923-10.183 23.923"/>
        <path fill="#90DBF8" d="M37.165 52.524c.974.166 4.146 2.396 2.348 3.023-.798.279-2.63-.445-3.2-1.001-.44-.43-.824-.924-.445-1.525l1.297-.497z"/>
        <path fill="#FFB187" d="M31.316 40.645c2.832-.903 4.684 8.777 5.277 10.341.363.957.917 1.849 1.205 2.83-.938 1.388-4.892-3.872-5.253-4.5-.681-1.185-1.392-2.032-1.82-3.345-.247-.753-.348-1.707-.86-2.322-.445-.537-1.315-.97-1.877-1.368l3.328-1.636z"/>
        <path fill="#90DBF8" d="M32.613 42.248c-.996 1.793-.271 3.268-2.849 3.25.054.247-.077.561-.01.81-1.085-.053-2.03-.06-2.97.501-.914.545-1.582.168-2.747.33-2.35.33-4.151.36-5.605-1.341-1.005-1.176-1.765-4.248-2.367-6.095-.296-.91 2.586-.371 3.53-.562 1.705-.346 4.21-1.483 5.896-1.908l7.122 5.015z"/>
        <path fill="#FFB187" d="M19.587 17.977c1.717 1.246 3.064 6.2.58 7.582-2.478 1.377-5.603-1.73-5.438-4.316.123-1.913 1.811-3.615 3.718-3.343l1.14.077z"/>
        <path fill="#E74F16" d="M18.277 16.411c3.517.774 3.006 4.345 1.319 6.682-3.671 5.084-10.783-2.205-6.627-5.381 1.039-.794 2.59-1.166 3.878-1.221l1.43-.08z"/>
        <path fill="#FFC9E1" d="M25.748 25.382c.101.991.374 3.041-.21 3.893-.631.923-2.514.146-2.862 1.208 1.21 4.32 2.363 6.289 4.064 7.768-2.771 2.037-8.395 3.935-11.863 2.956-.799-3.037-.643-10.052.04-12.556.619-2.275 1.495-2.775 4.017-2.918.773-.044 6.83-.198 6.814-.351"/>
        <path fill="#FFB187" d="M25.972 25.819c1.714-.455 3.628-.848 5.12-1.84.497-.329 4.112-3.338 3.816-.931-.065.53-.618.721-1.436.793-.227.708-1.213 1.63-1.605 2.048-1.122 1.194-2.617 2.553-4.156 3.038-.728.23-1.485.28-2.219.446l.48-3.554z"/>
        <path fill="#E74F16" d="M14.781 18.95c5.701 1.174 5.513 10.705-1.263 9.44-1.308-.243-2.374-.684-2.917-1.987.526.6 1.314.868 2.11.79a2.3 2.3 0 0 1-1.177-1.243c.49.428.912.501 1.175-.071-4.645-2.77.718-9.878 3.979-6.453l-1.907-.476z"/>
        <path fill="#F48C6C" d="M34.452 22.172c.845-.067.81 1.207.173 1.513-.278.134-.638.081-.943.085-.016 0-.016 0 0 .001.538-.192.742-1.223.081-1.5l.69-.099zM21.293 47.198c-.182 2.74-4.273 1.262-4.899-.477l4.899.477z"/>
        <path fill="#FFB187" d="M14.609 42.585c.544-.456 3.154 1.131 3.325 1.792 4.33-.395 13.586-9.937 19.166-18.576 1.438-2.228 4.52-5.419 7.492-3.809 2.313 1.253 2.479 4.428 1.811 6.696-1.328 4.509-7.05 10.269-10.749 12.814-6.022 4.146-16.454 7.537-19.787 5.708-1.994-1.093-2.25-3.792-1.258-4.625"/>
        <path fill="#F48C6C" d="M41.39 21.865c1.025-.407 2.12-.458 3.2.127 2.314 1.253 2.48 4.428 1.812 6.696-1.328 4.509-7.05 10.269-10.749 12.814-3.667 2.524-9.454 5.067-14.173 5.901 13.4-2.775 21.024-16.637 19.91-25.538"/>
    </g>
</svg>
