<svg xmlns="http://www.w3.org/2000/svg" width="155" height="90" viewBox="0 0 155 90">
    <defs>
        <path id="a" d="M106.47 45.86h37.279v43.56h-37.28z"/>
    </defs>
    <g fill="none" fill-rule="evenodd">
        <path fill="#7B095E" d="M73.474 89.482S100.47 20.841 141.635 0c0 0-1.55 12.056-2.67 13.951l-11.453 5.46 9.645-.982s-7.75 27.513-19.463 43.467c-11.712 15.955-20.84 27.586-20.84 27.586h-23.38z"/>
        <path fill="#2D337F" d="M102.193 55.453a.086.086 0 0 1-.08-.12c5.788-13.755 15.038-26.671 21.779-35.084 7.303-9.115 13.317-15.055 13.377-15.114a.086.086 0 1 1 .12.123c-.06.059-6.067 5.993-13.364 15.1-6.734 8.404-15.974 21.306-21.753 35.042a.086.086 0 0 1-.079.053"/>
        <path fill="#2D337F" d="M115.102 32.46a.086.086 0 0 1-.083-.11l3.171-11.44a.086.086 0 1 1 .166.046l-3.17 11.44a.086.086 0 0 1-.084.063M129.876 13.321a.086.086 0 0 1-.026-.168l5.903-1.875a.086.086 0 1 1 .052.164l-5.902 1.875a.084.084 0 0 1-.027.004"/>
        <path fill="#BA3144" d="M96.332 89.382s8.236-22.201 18.87-38.619 20.335-20.914 20.335-20.914l4.292 4.683-1.4-6.157s7.91-6.343 15.206-9.515c0 0-3.359 30.037-12.314 43.47s-22.87 27.22-22.87 27.22l-22.119-.168z"/>
        <path fill="#66094F" d="M105.642 85.93a.093.093 0 0 1-.052-.17c10.877-7.315 22.26-23.154 29.894-35.154 8.274-13.005 14.047-24.425 14.104-24.539a.093.093 0 1 1 .167.084c-.058.114-5.835 11.542-14.114 24.555-7.643 12.015-19.043 27.876-29.947 35.209a.094.094 0 0 1-.052.016"/>
        <path fill="#66094F" d="M134.403 52.555a.093.093 0 0 1-.093-.086l-1.15-14.232a.093.093 0 1 1 .186-.015l1.15 14.232a.093.093 0 0 1-.085.1h-.008M121.313 70.74a.093.093 0 0 1-.04-.178l13.09-6.078a.093.093 0 1 1 .08.17l-13.09 6.078a.09.09 0 0 1-.04.009"/>
        <path fill="#E3E3E3" d="M129.793 89.42s13.943-4.746 13.006-11.542c-.938-6.795-9.256-5.218-9.256-5.218s12.068-2.983 9.959-8.607c-2.11-5.624-10.964 0-10.964 0s11.432-7.498 6.98-13.24c-4.452-5.74-10.882-8.089-11.248 1.875l-.366 9.964s-2.563-11.21-6.546-7.972c-3.984 3.239-2.11 13.591 0 15.173 0 0-4.683-5.683-11.188-4.511-6.504 1.172-3.575 20.504 2.166 24.077h17.457z"/>
        <path fill="#DEA36C" d="M134.226 89.388s13.943-4.746 13.005-11.541c-.937-6.795-9.256-5.219-9.256-5.219s12.068-2.982 9.96-8.606c-2.11-5.624-10.964 0-10.964 0s11.432-7.499 6.98-13.24c-4.453-5.74-10.882-8.09-11.248 1.875l-.366 9.964s-2.563-11.211-6.547-7.972c-3.983 3.238-2.109 13.59 0 15.172 0 0-4.683-5.682-11.187-4.51-6.504 1.171-3.575 20.503 2.166 24.077h17.457z"/>
        <path fill="#2D337F" d="M124.638 89.338a.058.058 0 0 1-.025-.112c3.324-1.546 7.262-8.756 11.388-20.851 3.121-9.147 5.272-17.944 5.294-18.031a.058.058 0 1 1 .114.028c-.022.087-2.175 8.889-5.297 18.04-4.196 12.3-8.048 19.338-11.45 20.92a.058.058 0 0 1-.024.006"/>
        <path fill="#2D337F" d="M130.299 84.5c-.728 0-1.147-.049-1.164-.05a.059.059 0 1 1 .015-.117c.074.01 7.548.882 15.055-5.009a.059.059 0 0 1 .072.092c-5.794 4.547-11.573 5.085-13.978 5.085M135.09 71.204a.059.059 0 0 1-.006-.116c.029-.004 2.93-.373 6.238-2.266a.059.059 0 1 1 .058.102c-3.33 1.905-6.253 2.276-6.282 2.28h-.007M138.516 60.731a.059.059 0 0 1-.053-.035c-.029-.067-2.81-6.667-1.827-9.93a.058.058 0 1 1 .112.034c-.971 3.222 1.794 9.784 1.822 9.85a.059.059 0 0 1-.054.081M132.333 78.173a.058.058 0 0 1-.053-.033c-.047-.099-4.677-9.911-4.297-15.624a.059.059 0 0 1 .117.008c-.378 5.682 4.24 15.467 4.286 15.565a.059.059 0 0 1-.053.084"/>
        <path fill="#A22B3D" d="M46.41 89.407S21.52 86.644 24.92 69.38c3.398-17.264 22.158-8.292 22.158-8.292S22.065 49.804 30.358 40.22c8.292-9.584 15.36 2.515 15.36 2.515s-11.554-18.616-6.66-26.64C43.95 8.07 52.38 11.06 53.059 19.08c.68 8.02-1.495 22.566-1.495 22.566s5.982-14.144 14.41-8.16c8.428 5.985 3.027 21.356 1.085 25.355 0 0 13.189-13.66 19.17-2.785 5.981 10.875-4.214 29.816-12.507 33.124l-27.312.226z"/>
        <path fill="#343C93" d="M59.12 89.372a.056.056 0 0 1-.041-.02c-2.707-3.16-5.171-8.938-7.323-17.175-1.72-6.584-3.248-14.747-4.539-24.262-2.198-16.198-2.959-30.896-2.966-31.042a.055.055 0 1 1 .11-.006c.008.147.768 14.84 2.966 31.034 1.29 9.51 2.816 17.669 4.536 24.249 2.148 8.22 4.604 13.984 7.3 17.131a.055.055 0 0 1-.042.091"/>
        <path fill="#343C93" d="M56.374 85.106a.055.055 0 0 1-.012-.109c.031-.007 3.191-.751 7.142-3.423 3.646-2.465 8.73-7.123 12.246-15.313a.055.055 0 0 1 .073-.029c.028.012.04.045.029.073-3.528 8.217-8.631 12.89-12.29 15.364-3.968 2.681-7.144 3.428-7.176 3.435a.048.048 0 0 1-.012.002M47.755 51.384a.054.054 0 0 1-.026-.006c-.527-.284-12.924-6.978-14.259-10.34a.055.055 0 0 1 .103-.041c1.32 3.325 14.08 10.214 14.208 10.284a.055.055 0 0 1-.026.103M45.059 27.555a.055.055 0 0 1-.039-.016l-4.42-4.371a.055.055 0 0 1 .077-.078l4.42 4.37a.055.055 0 0 1-.038.095"/>
        <path fill="#DE6F63" d="M27.176 89.593S2.805 87.534 5.562 73.529c2.757-14.006 17.975-6.727 17.975-6.727S3.246 57.649 9.973 49.874s12.461 2.04 12.461 2.04-9.373-15.102-5.403-21.611c3.97-6.51 10.807-4.084 11.358 2.423.552 6.506-1.213 18.306-1.213 18.306s4.853-11.474 11.69-6.62c6.837 4.855-.1 23.06-3.959 24.825 0 0 15.538-15.338 20.39-6.516 4.853 8.823-3.418 24.188-10.145 26.872H27.176z"/>
        <path fill="#343C93" d="M35.647 89.372a.055.055 0 0 1-.045-.023c-3.045-4.329-5.668-9.984-7.797-16.808-1.703-5.458-3.095-11.671-4.138-18.468-1.775-11.573-1.923-20.95-1.924-21.043 0-.03.024-.056.055-.056.03 0 .055.024.055.054.002.094.15 9.464 1.924 21.03 1.637 10.67 5.033 25.444 11.915 35.227a.055.055 0 0 1-.045.087"/>
        <path fill="#343C93" d="M32.523 84.185a.055.055 0 0 1-.016-.108c.022-.006 2.187-.657 5.028-2.877 2.622-2.05 6.372-5.895 9.346-12.571a.055.055 0 1 1 .101.044c-2.985 6.7-6.751 10.56-9.385 12.618-2.856 2.231-5.037 2.886-5.058 2.892a.052.052 0 0 1-.016.002M24.675 59.667l-.01-.001c-.064-.013-6.388-1.363-8.682-4.626a.055.055 0 0 1 .09-.064c2.27 3.228 8.55 4.569 8.614 4.582a.055.055 0 0 1-.012.11M23.285 51.087a.055.055 0 0 1-.05-.079c.024-.05 2.357-5.029 2.483-11.41 0-.03.027-.053.057-.054.03 0 .054.026.054.056-.127 6.406-2.47 11.406-2.494 11.456a.055.055 0 0 1-.05.031M29.749 57.894a.055.055 0 0 1-.043-.09l5.898-7.362a.055.055 0 0 1 .078-.009.055.055 0 0 1 .008.078l-5.898 7.362a.055.055 0 0 1-.043.021"/>
        <path fill="#DAAD7F" d="M82.353 46.271s2.371.061 4.324 2.277c1.952 2.216 3.137 4.727 3.137 4.727s.17 1.843 2.092.906c1.922-.937 0-5.633 0-5.633s-5.927-4.896-8.019-5.245c-2.092-.348-1.534 2.968-1.534 2.968M84.095 40.304c-.52-.821-1.28-1.521-2.37-1.603-2.789-.21-3.416 4.812-3.416 4.812s-.01.65.09 1.483c2.314-.776 4.374-2.534 5.696-4.692"/>
        <path fill="#E7C193" d="M78.4 44.996c.167 1.4.645 3.318 2 3.537 2.162.349 4.742-5.37 4.742-5.37s-.234-1.577-1.047-2.859c-1.322 2.158-3.382 3.916-5.696 4.692"/>
        <path fill="#343C93" d="M48.58 56.333a.063.063 0 0 1-.043-.108l15.816-15.308a.063.063 0 0 1 .088.09L48.624 56.316a.063.063 0 0 1-.043.017"/>
        <path fill="#446D7B" d="M112.032 89.55H97.946l3.556-1.185S75.492 76.14 85.185 59.635c5.858-9.971 28.45 1.543 32.774 4.503 4.323 2.959 12.761 12.582 8.368 19.137-4.393 6.554-12.064 3.765-16.457.557 0 0 2.371 3.139 2.162 5.719"/>
        <path fill="#DE6F63" d="M89.884 48.862s17.945 5.436 26.87 10.456c8.926 5.021 10.805 8.02 10.805 8.02l-11.363 8.437-26.312-16.066-.995-8.177.995-2.67z"/>
        <path fill="#98BAC4" d="M99.228 67.64c6.416 2.51 11.855 6.694 17.991 10.46 3.068 1.952 6.415 4.183 10.041 3.068 3.923-1.28 4.821-4.853 4.449-8.584-1.796-3.292-4.897-6.312-8.288-8.446-5.601-3.526-26.916-14.474-32.774-4.502-9.694 16.504 16.318 28.729 16.318 28.729l-3.556 1.186h13.127c-.388-2.795-1.659-5.383-3.5-7.686-4.185-5.3-7.671-11.157-13.808-14.225"/>
        <path fill="#588595" d="M131.71 72.584c.371 3.731-.527 7.304-4.45 8.584-3.626 1.115-6.973-1.116-10.04-3.069-6.137-3.765-11.576-7.95-17.992-10.46 6.137 3.069 9.623 8.926 13.807 14.226 1.843 2.303 3.113 4.89 3.501 7.685h.958c.21-2.58-2.161-5.718-2.161-5.718 4.393 3.208 12.063 5.997 16.456-.557 2.265-3.38 1.83-7.189-.08-10.691"/>
        <path fill="#DAAD7F" d="M90.512 51.532S82.004 63.595 75.24 67.29c-6.764 3.696-16.875 5.927-16.875 5.927s15.442.065 22.174-2.72c6.732-2.784 11.366-17.363 11.366-17.363l-1.394-1.603z"/>
        <path fill="#E7C193" d="M86.119 66.803c2.231-2.65 4.323-5.3 5.439-8.507 1.437-3.902 1.739-8.105.63-11.999-1.215.414-1.955 3.003-1.955 3.003s-2.65 11.855-10.53 19.246c-7.88 7.392-17.363 12.482-17.363 12.482s1.353 0 3.522-.375c7.942-2.27 14.64-7.765 20.257-13.85"/>
        <path fill="#DAAD7F" d="M92.76 46.271a.993.993 0 0 0-.571.026c1.108 3.894.806 8.097-.631 11.999-1.116 3.207-3.208 5.857-5.44 8.507-5.616 6.085-12.314 11.58-20.256 13.85 4.196-.726 11.45-2.856 17.886-9.108 9.762-9.484 10.53-18.06 10.669-20.641.14-2.58-.105-4.245-1.656-4.633"/>
        <path fill="#171C4F" d="M74.125 41.56c2.929 1.674 5.718-.279 7.67-2.37 3.069 5.857 8.647 9.622 14.644 12.272 7.531 3.068 17.015 3.626 22.454-3.487 2.231-2.789 1.534-6.694 0-9.623-1.004-1.889-2.483-3.276-4.225-4.293-7.706-.423-12.736 7.844-17.88 7.78-5.649-.07-11.715-7.74-19.037-6.276-2.285.457-4.2 2.512-4.821 4.539a2.61 2.61 0 0 0 1.195 1.458"/>
        <path fill="#111538" d="M117.01 34.447a10.99 10.99 0 0 0-2.342-.388c1.742 1.017 3.221 2.404 4.224 4.293 1.535 2.93 2.232 6.834 0 9.623-5.438 7.113-14.922 6.555-22.453 3.487-5.997-2.65-11.575-6.415-14.644-12.273-1.952 2.092-4.741 4.045-7.67 2.371a2.61 2.61 0 0 1-1.195-1.458c-.568 1.852-.056 3.681 2.24 4.247 4.812 1.186 6.556-2.928 6.556-2.928s.248 3.164 11.436 11.296c18.292 13.296 28.203 1.12 30.054-2.72 2.185-4.532 2.859-13.04-6.206-15.55"/>
        <path fill="#E7C193" d="M42.025 63.67c-.606 1.362-1.442 3.36-1.442 4.028 0 1.046 2.022 2.3 2.161.418.06-.798.42-1.96.815-3.034a5.838 5.838 0 0 1-1.534-1.411"/>
        <path fill="#DAAD7F" d="M43.559 65.082c.536-1.458 1.138-2.753 1.138-2.753h-2.058s-.27.568-.614 1.342a5.835 5.835 0 0 0 1.534 1.411M47.281 58.926c-.64-.537-1.19-.902-1.19-.902s-6.415-.158-6.834 0c-.254.096-.121 1.074.162 2.085 2.547.356 5.412-.08 7.862-1.183"/>
        <path fill="#E7C193" d="M47.281 58.926c-2.45 1.104-5.315 1.539-7.862 1.183.184.652.43 1.318.675 1.77.628 1.156 6.206 2.123 8.507.729 1.523-.923-.069-2.632-1.32-3.682"/>
        <path fill="#171C4F" d="M40.861 58.075c1.674-.558 3.347.418 4.882-.558 1.532-1.022 3.063-3.33 1.81-5.104-.65-.167-1.401-.104-2.16.279-2.789 1.408-3.904 4.054-3.904 4.054s-3.76.073-3.487 2.445c.142 1.23.816 2.065 1.565 2.622-.037-.133-.069-.266-.1-.391-.419-1.255.14-2.79 1.394-3.347"/>
        <path fill="#111538" d="M47.554 52.414c1.252 1.773-.279 4.081-1.812 5.103-1.534.976-3.207 0-4.88.558-1.256.558-1.814 2.092-1.395 3.347.031.126.063.258.1.391a6.232 6.232 0 0 0 2.34 1.035l-.836-1.844s-1.186-.628-.698-1.604c.488-.976 1.325.209 1.325.209s4.742.558 6.973-2.44c1.625-2.184.624-4.306-1.117-4.755"/>
        <path fill="#E7C193" d="M41.072 69.453c5.16 1.813 10.041-1.255 13.25-5.16.696-.837 1.254-1.535 1.812-2.232.187-.25.374-.5.55-.75.05-.108.076-.168.076-.168s-8.647 8.298-15.062 5.788c-6.169-2.414-8.275-11.853-8.428-12.576.133 5.77 2.028 13.084 7.802 15.098"/>
        <path fill="#DAAD7F" d="M56.134 62.061c-.558.697-1.116 1.395-1.813 2.232-3.208 3.904-8.089 6.973-13.249 5.16-5.774-2.014-7.669-9.329-7.802-15.098l-.01-.046s-.416 4.3 0 6.695c.327 1.875 2.232 10.32 10.913 9.762 7.982-.513 11.926-8.216 12.51-9.455-.175.25-.361.5-.549.75"/>
        <path fill="#66094F" d="M44.131 78.222c-1.382-2.559-2.154-4.806-2.154-4.806s-5.44-3.277-3.417 3.696c.532 1.835 1.542 3.226 2.741 4.28 1.156-.794 2.056-1.93 2.83-3.17"/>
        <path fill="#E7C193" d="M49.256 84.49c-2.126-1.392-3.875-3.955-5.125-6.268-.518.83-1.094 1.614-1.764 2.28 1.876 1.882 4.367 3.114 6.89 3.987"/>
        <path fill="#DAAD7F" d="M42.367 80.501c-.33.328-.684.628-1.066.89 3.356 2.948 8.193 3.252 8.193 3.252-.08-.049-.159-.102-.238-.154-2.522-.873-5.013-2.105-6.889-3.988"/>
        <path fill="#E7C193" d="M41.63 68.755c1.18.273 1.888-.46 2.354-1.39-.644-.042-1.498-.16-2.205-.47a14.67 14.67 0 0 1-1.537-.806c-.184 1.123.19 2.307 1.388 2.666"/>
        <path fill="#DAAD7F" d="M34.783 77.908c-2.515 3.764-5.846 7.78-5.846 7.78s.133-.036.371-.11c2.084-2.197 4.113-4.441 5.943-6.85a6.645 6.645 0 0 1-.468-.82"/>
        <path fill="#E7C193" d="M35.251 78.727c-1.83 2.41-3.86 4.654-5.943 6.852 1.25-.384 5.431-1.781 8.766-4.242-1.12-.686-2.116-1.548-2.823-2.61"/>
        <path fill="#66094F" d="M40.654 74.194c-1.523-.507-2.326-1.939-2.506-3.484a28.154 28.154 0 0 1-.634 2.012c.725.942 1.8 1.568 3.14 1.472"/>
        <path fill="#7B095E" d="M43.984 67.364c-.466.93-1.173 1.664-2.354 1.391-1.199-.36-1.572-1.543-1.388-2.666-.616-.366-1.062-.674-1.062-.674s-.245 2.442-1.032 5.295c.18 1.545.983 2.977 2.506 3.484-1.339.096-2.415-.53-3.14-1.472-.38 1.061-.84 2.115-1.395 3.065-.394.677-.85 1.394-1.336 2.121.692 1.446 1.896 2.575 3.291 3.429 1.447-1.068 2.735-2.335 3.554-3.807 3.069-5.509 3.32-10.15 3.32-10.15s-.401.02-.964-.016"/>
        <path fill="#D49255" d="M153.759 89.83H.349a.349.349 0 1 1 0-.696h153.41a.349.349 0 0 1 0 .697"/>
    </g>
</svg>
