<?xml version="1.0" encoding="UTF-8"?>
<svg width="9px" height="12px" viewBox="0 0 9 12" version="1.1" xmlns="http://www.w3.org/2000/svg" xmlns:xlink="http://www.w3.org/1999/xlink">
    <!-- Generator: Sketch 63 (92445) - https://sketch.com -->
    <title>Combined Shape</title>
    <desc>Created with Sketch.</desc>
    <g id="Desktop" stroke="none" stroke-width="1" fill="none" fill-rule="evenodd">
        <g id="Address---Add" transform="translate(-263.000000, -192.000000)" stroke="#785EE5" stroke-width="0.75">
            <path d="M267.5,192.375 C268.639087,192.375 269.670337,192.836706 270.416815,193.583185 C271.163294,194.329663 271.625,195.360913 271.625,196.5 C271.625,198.056106 270.217176,200.361826 267.499499,203.435612 C264.782646,200.361536 263.375,198.056007 263.375,196.5 C263.375,195.360913 263.836706,194.329663 264.583185,193.583185 C265.329663,192.836706 266.360913,192.375 267.5,192.375 Z M267.5,194.625 C266.982233,194.625 266.513483,194.834867 266.174175,195.174175 C265.834867,195.513483 265.625,195.982233 265.625,196.5 C265.625,197.017767 265.834867,197.486517 266.174175,197.825825 C266.513483,198.165133 266.982233,198.375 267.5,198.375 C268.017767,198.375 268.486517,198.165133 268.825825,197.825825 C269.165133,197.486517 269.375,197.017767 269.375,196.5 C269.375,195.982233 269.165133,195.513483 268.825825,195.174175 C268.486517,194.834867 268.017767,194.625 267.5,194.625 Z" id="Combined-Shape"></path>
        </g>
    </g>
</svg>