<svg xmlns="http://www.w3.org/2000/svg" width="21" height="36" viewBox="0 0 21 36">
    <g fill="#F6BD84" fill-rule="nonzero">
        <path d="M8.858 12.001c-.934 0-2.447-.542-3.52-1.261a1.146 1.146 0 1 1 1.275-1.904c.843.566 1.926.873 2.245.873.392 0 1.512-.618 1.512-3.363a1.145 1.145 0 1 1 2.291 0c0 4.473-2.487 5.655-3.803 5.655z"/>
        <path d="M1.146 19.49A1.146 1.146 0 0 1 0 18.346V8.191C0 2.563 4.075 0 7.862 0c1.896 0 4.602.902 5.986 3.445a1.146 1.146 0 0 1-2.014 1.095C10.645 2.354 8.144 2.29 7.862 2.29c-2.57 0-5.57 1.545-5.57 5.899v8.934c1.17-.157 2.54-.632 2.54-1.987V8.638c0-3.536 2.689-4.721 2.803-4.77a1.146 1.146 0 0 1 .898 2.109c-.13.06-1.41.71-1.41 2.662v6.5c0 2.103-1.57 4.352-5.977 4.352zM13.738 35.81a1.145 1.145 0 0 1-.366-2.233c.043-.014 4.62-1.626 4.62-5.39 0-1.327-.597-2.073-1.578-3.144a1.146 1.146 0 0 1 1.69-1.548c1.192 1.302 2.178 2.553 2.178 4.692 0 5.418-5.927 7.477-6.179 7.562-.121.041-.244.06-.365.06z"/>
        <path d="M13.095 20.774a1.146 1.146 0 0 1-.085-2.289c.009 0 1.461-.159 1.461-.876 0-.232-.805-.565-1.392-.81-1.233-.511-2.923-1.213-3.73-2.98a1.146 1.146 0 1 1 2.085-.95c.432.946 1.448 1.368 2.523 1.815 1.25.518 2.805 1.164 2.805 2.926 0 2.287-2.34 3.068-3.58 3.161l-.087.003z"/>
        <path d="M11.731 24.04c-.172 0-.336-.01-.49-.035-2.034-.313-4.117-3.597-4.707-4.595a1.146 1.146 0 0 1 1.973-1.167c1.03 1.74 2.5 3.408 3.083 3.498.672.108 2.588-.533 3.99-.998l.863-.283c2.03-.66 3.623.207 3.798.308a1.146 1.146 0 1 1-1.145 1.985c-.023-.012-.873-.462-1.947-.114l-.848.279c-1.802.597-3.39 1.123-4.57 1.123zM3.84 35.81c-.55 0-1.035-.397-1.129-.957-.427-2.548-.14-4.164.793-8.13.509-2.17-.054-4.233-.523-5.596a1.146 1.146 0 0 1 2.168-.745c.56 1.63 1.23 4.117.585 6.865-.921 3.918-1.107 5.178-.764 7.226a1.146 1.146 0 0 1-1.13 1.336z"/>
    </g>
</svg>
