<svg xmlns="http://www.w3.org/2000/svg" width="16" height="20" viewBox="0 0 16 20">
    <g fill="none" fill-rule="evenodd" stroke="#785EE5" stroke-width="1.125">
        <path d="M7.66 3.16h.18A2.16 2.16 0 0 1 10 5.32v.912a.785.785 0 0 1-1.125.708l-.476-.228a1.5 1.5 0 0 0-1.298 0l-.476.228A.785.785 0 0 1 5.5 6.232V5.32a2.16 2.16 0 0 1 2.16-2.16z"/>
        <path d="M7.66 3.16h.18A2.16 2.16 0 0 1 10 5.32v.912a.785.785 0 0 1-1.125.708l-.476-.228a1.5 1.5 0 0 0-1.298 0l-.476.228A.785.785 0 0 1 5.5 6.232V5.32a2.16 2.16 0 0 1 2.16-2.16zM2.488 15.4h.762c2 .48 3.5.72 4.5.72s2.5-.24 4.5-.72h.762a1.15 1.15 0 0 1 1.113 1.44l-.13.497a1.5 1.5 0 0 1-1.213 1.103c-2.326.373-4.003.56-5.032.56s-2.706-.187-5.032-.56a1.5 1.5 0 0 1-1.214-1.103l-.129-.497a1.15 1.15 0 0 1 1.113-1.44zM3.25 13.96c2 .48 3.5.72 4.5.72s2.5-.24 4.5-.72M7.75 14.68v1.44"/>
        <path d="M1.75 11.8c.437 0 .814.307.903.734l.368 1.765a.915.915 0 0 1-.896 1.101A1.125 1.125 0 0 1 1 14.275V12.55a.75.75 0 0 1 .75-.75zM13.75 11.8a.75.75 0 0 1 .75.75v1.725c0 .621-.504 1.125-1.125 1.125a.915.915 0 0 1-.896-1.101l.368-1.765a.922.922 0 0 1 .903-.734zM5.716 1.78l.159-.06a5.23 5.23 0 0 1 3.75 0l.159.06a3.37 3.37 0 0 1 2.091 2.46l.375 1.8.375 1.8a9.63 9.63 0 0 1 .06 3.612l-.435 2.508-4.5.72-4.5-.72-.435-2.508a9.63 9.63 0 0 1 .06-3.612l.375-1.8.375-1.8a3.37 3.37 0 0 1 2.091-2.46zM5.762 17.332c.943-.808 1.606-1.212 1.988-1.212.382 0 1.045.404 1.988 1.211a.75.75 0 0 1 .262.57v.019c0 .22-.132.42-.335.505-.904.383-1.543.575-1.915.575-.372 0-1.01-.192-1.915-.575a.549.549 0 0 1-.335-.505v-.019a.75.75 0 0 1 .262-.57z"/>
        <path d="M8.925 8.716l.325-.156a.523.523 0 0 1 .75.472v.856a.75.75 0 0 1-.425.676l-.325.156a.523.523 0 0 1-.75-.472v-.856a.75.75 0 0 1 .425-.676zM6.575 8.716L6.25 8.56a.523.523 0 0 0-.75.472v.856a.75.75 0 0 0 .425.676l.325.156a.523.523 0 0 0 .75-.472v-.856a.75.75 0 0 0-.425-.676z"/>
    </g>
</svg>
