<?xml version="1.0" encoding="UTF-8"?>
<svg width="34px" height="54px" viewBox="0 0 34 54" version="1.1" xmlns="http://www.w3.org/2000/svg" xmlns:xlink="http://www.w3.org/1999/xlink">
    <!-- Generator: Sketch 57.1 (83088) - https://sketch.com -->
    <title>18_infant copy</title>
    <desc>Created with Sketch.</desc>
    <g id="Desktop" stroke="none" stroke-width="1" fill="none" fill-rule="evenodd">
        <g id="Landing-v2" transform="translate(-703.000000, -3423.000000)" fill="#64D4C7" fill-rule="nonzero">
            <g id="18_infant-copy" transform="translate(703.000000, 3423.000000)">
                <path d="M16.7317517,53.2055904 C10.240331,53.2055904 5.49064828,49.7277814 4.02466207,43.9009987 C2.79691034,39.0204457 1.02984828,27.4194486 0.149131034,19.6457938 C-0.496165517,13.947204 0.966068966,8.81026513 4.26758621,5.1830514 C7.30929655,1.84081327 11.7353931,0 16.7317517,0 C21.7271724,0 26.1542069,1.84081327 29.1959172,5.1830514 C32.4974345,8.81026513 33.958731,13.947204 33.3143724,19.646716 C32.4345931,27.4203709 30.6665931,39.0213679 29.4388414,43.9019209 C27.9728552,49.7277814 23.2231724,53.2055904 16.7317517,53.2055904 Z M16.7317517,3.4049512 C12.7342897,3.4049512 9.22455172,4.84274073 6.84877241,7.4536337 C4.21318621,10.3495023 3.05671724,14.545745 3.59133793,19.2704375 C4.45892414,26.936189 6.19128276,38.3352131 7.3862069,43.0848064 C8.46013793,47.3529847 11.8657655,49.8015615 16.7317517,49.8015615 C21.5977379,49.8015615 25.0024276,47.3529847 26.0772966,43.0838842 C27.2712828,38.3352131 29.0036414,26.9352668 29.8721655,19.2695153 C30.4067862,14.545745 29.2503172,10.3495023 26.614731,7.45271145 C24.2389517,4.84274073 20.7292138,3.4049512 16.7317517,3.4049512 Z" id="Shape"></path>
                <path d="M16.7317517,27.9561988 C10.3153655,27.9561988 5.09484138,22.8229489 5.09484138,16.5129066 C5.09484138,13.8254668 6.06278621,11.2136516 7.81953103,9.15887606 C8.43481379,8.43859792 9.52656552,8.34545055 10.2590897,8.95136955 C10.9906759,9.5563663 11.0854069,10.6307889 10.4701241,11.3501448 C9.23674483,12.7925455 8.55768276,14.6259808 8.55768276,16.5129066 C8.55768276,20.9452456 12.2240552,24.5503253 16.7317517,24.5503253 C21.2385103,24.5503253 24.9039448,20.9443234 24.9039448,16.5129066 C24.9039448,12.0814899 21.2385103,8.47733247 16.7317517,8.47733247 C15.6287448,8.47733247 14.5585655,8.68945023 13.5502897,9.10815224 C12.6695724,9.47613045 11.6537931,9.0694177 11.2814345,8.20342388 C10.9090759,7.33743006 11.3208276,6.33863208 12.2015448,5.97249837 C13.6393931,5.37580189 15.1625931,5.07238126 16.7317517,5.07238126 C23.1472,5.07238126 28.3667862,10.2047088 28.3667862,16.5138289 C28.3667862,22.8238712 23.1472,27.9561988 16.7317517,27.9561988 Z" id="Path"></path>
                <path d="M8.01649655,32.2769453 C7.31211034,32.2769453 6.6489931,31.8508653 6.392,31.1619437 C6.06184828,30.2793494 6.52143448,29.3008409 7.41903448,28.9771308 C7.49688276,28.948541 15.2845241,26.124608 19.6280828,24.0301757 C20.4881655,23.6188517 21.5245793,23.9656181 21.9457103,24.8094779 C22.3668414,25.6542599 22.0113655,26.6733474 21.1531586,27.0883604 C16.6473379,29.2602619 8.94035862,32.0546828 8.61489655,32.1736532 C8.41793103,32.2437443 8.21533793,32.2769453 8.01649655,32.2769453 Z" id="Path"></path>
                <path d="M9.64193103,42.9427798 C8.93754483,42.9427798 8.27536552,42.5166997 8.01743448,41.8287004 C7.68634483,40.9461061 8.14593103,39.9675976 9.04353103,39.6420429 C9.14857931,39.6042306 19.5905655,35.8128562 24.5494069,33.4205368 C25.4066759,33.0082905 26.4449655,33.3559792 26.8660966,34.199839 C27.2872276,35.0436988 26.9326897,36.0637085 26.0744828,36.4777993 C20.9552552,38.9475878 10.676469,42.6799382 10.240331,42.8376431 C10.0433655,42.9086565 9.84077241,42.9427798 9.64193103,42.9427798 Z" id="Path"></path>
                <path d="M16.7317517,22.7713029 C15.0312828,22.7713029 13.4330483,22.1201936 12.2315586,20.9369453 C11.5553103,20.2720023 11.5562483,19.1938907 12.2324966,18.5298699 C12.9087448,17.8649268 14.0051862,17.8658491 14.6804966,18.5307921 C15.7750621,19.6070592 17.6846897,19.6079815 18.7801931,18.5307921 C19.4564414,17.8658491 20.5538207,17.8658491 21.229131,18.5298699 C21.9053793,19.1938907 21.9063172,20.2720023 21.230069,20.9378676 C20.0295172,22.1201936 18.4322207,22.7713029 16.7317517,22.7713029 C16.7317517,22.7713029 16.7317517,22.7713029 16.7317517,22.7713029 Z" id="Path"></path>
                <path d="M13.6347034,16.4520381 C13.0250483,16.4520381 12.4153931,16.2030303 11.9839448,15.7787947 C11.5431172,15.3545592 11.2898759,14.755096 11.2898759,14.1464102 C11.2898759,13.5377245 11.5431172,12.9474837 11.9839448,12.5140257 C12.8562207,11.6563321 14.4225655,11.6563321 15.2948414,12.5140257 C15.735669,12.9474837 15.979531,13.5377245 15.979531,14.1464102 C15.979531,14.755096 15.735669,15.3545592 15.2948414,15.7787947 C14.8633931,16.2030303 14.2528,16.4520381 13.6347034,16.4520381 Z" id="Path"></path>
                <path d="M19.8250483,16.4520381 C19.2060138,16.4520381 18.6048,16.2030303 18.1639724,15.7787947 C17.7325241,15.3545592 17.4802207,14.755096 17.4802207,14.1464102 C17.4802207,13.5377245 17.7334621,12.9474837 18.1639724,12.5140257 C19.0362483,11.6563321 20.6119724,11.6563321 21.4842483,12.5140257 C21.9156966,12.9474837 22.1689379,13.5377245 22.1689379,14.1464102 C22.1689379,14.755096 21.9147586,15.3545592 21.4842483,15.7787947 C21.0443586,16.2030303 20.4431448,16.4520381 19.8250483,16.4520381 Z" id="Path"></path>
            </g>
        </g>
    </g>
</svg>