<?xml version="1.0" encoding="UTF-8"?>
<svg width="41px" height="54px" viewBox="0 0 41 54" version="1.1" xmlns="http://www.w3.org/2000/svg" xmlns:xlink="http://www.w3.org/1999/xlink">
    <!-- Generator: Sketch 57.1 (83088) - https://sketch.com -->
    <title>24_baby</title>
    <desc>Created with Sketch.</desc>
    <g id="Desktop" stroke="none" stroke-width="1" fill="none" fill-rule="evenodd">
        <g id="Landing-v2" transform="translate(-883.000000, -3422.000000)" fill="#F6BD84" fill-rule="nonzero">
            <g id="24_baby" transform="translate(883.000000, 3422.000000)">
                <path d="M22.9453448,41.6488966 L18.2203448,41.6488966 C17.4280345,41.6488966 16.739069,41.1070345 16.551,40.338 C15.9439655,37.8567931 13.4162069,37.664069 12.6555517,37.664069 C11.7058966,37.664069 10.8493448,36.8959655 10.8493448,35.9463103 L10.8493448,31.3125517 C10.8493448,30.3628966 11.6183793,29.5938621 12.5680345,29.5938621 L28.5976552,29.5938621 C29.5473103,29.5938621 30.3163448,30.3628966 30.3163448,31.3125517 L30.3163448,35.9463103 C30.3163448,36.4136897 30.1264138,36.8605862 29.7893793,37.1855172 C29.4523448,37.5104483 28.9952069,37.6771034 28.5296897,37.664069 C27.7494828,37.664069 25.2217241,37.8567931 24.6146897,40.338 C24.4256897,41.1070345 23.7367241,41.6488966 22.9453448,41.6488966 Z M19.4353448,38.2115172 L21.7303448,38.2115172 C22.7842759,35.9304828 24.867931,34.7778621 26.8789655,34.3858966 L26.8789655,33.0331034 L14.2867241,33.0331034 L14.2867241,34.3858966 C16.2977586,34.7778621 18.3814138,35.9304828 19.4353448,38.2115172 Z" id="Shape"></path>
                <g id="Group" transform="translate(7.448276, 33.517241)">
                    <path d="M15.7121379,7.51251724 C15.7102759,7.51251724 15.7084138,7.51251724 15.7074828,7.51251724 C14.8332414,7.50972414 14.0651379,6.8282069 13.9701724,5.95862069 C13.9627241,5.89531034 13.959,5.83106897 13.959,5.76962069 C13.959,4.90375862 14.6097931,4.15893103 15.4905517,4.06117241 C15.9365172,4.01555172 16.361069,4.13844828 16.6962414,4.38424138 C17.1403448,4.6952069 17.4308276,5.21006897 17.4308276,5.79382759 C17.4308276,5.79568966 17.4308276,5.79755172 17.4308276,5.79941379 C17.4280345,6.74627586 16.659,7.51251724 15.7121379,7.51251724 Z" id="Path"></path>
                    <path d="M20.1764483,20.195069 C19.3627241,20.195069 18.5611034,19.980931 17.8581724,19.5731379 C15.6451034,18.2948276 14.8835172,15.4523793 16.1618276,13.2374483 C16.8386897,12.0643448 17.0025517,10.9014828 16.6506207,9.78237931 C16.3647931,8.87648276 16.8684828,7.91193103 17.7743793,7.62796552 C18.6765517,7.34586207 19.6448276,7.84582759 19.9287931,8.75172414 C20.5721379,10.7972069 20.2984138,12.9432414 19.1383448,14.9561379 C18.8068966,15.5296552 19.0033448,16.2651724 19.5777931,16.5975517 C20.1345517,16.9187586 20.898,16.7111379 21.2182759,16.1581034 C24.2013103,10.989931 22.2116897,6.20068966 19.602,3.6692069 C18.9204828,3.00724138 18.9037241,1.9197931 19.5647586,1.23827586 C20.2257931,0.556758621 21.3141724,0.540931034 21.9947586,1.20196552 C25.4926552,4.59372414 28.1675172,10.9964483 24.1957241,17.874931 C23.3717586,19.305931 21.8308966,20.195069 20.1764483,20.195069 Z" id="Path"></path>
                    <path d="M6.15972414,20.195069 C4.50527586,20.195069 2.96441379,19.305931 2.13951724,17.873069 C-1.83134483,10.9955172 0.843517241,4.5927931 4.34141379,1.20196552 C5.022,0.541862069 6.10944828,0.556758621 6.77141379,1.23827586 C7.43244828,1.9197931 7.41568966,3.00724138 6.73417241,3.6692069 C4.12355172,6.20068966 2.13486207,10.989931 5.11696552,16.1562414 C5.43817241,16.7111379 6.20441379,16.9159655 6.75651724,16.5984828 C7.33189655,16.2661034 7.52927586,15.5305862 7.19875862,14.9561379 C6.03775862,12.9432414 5.76403448,10.7972069 6.40737931,8.75172414 C6.6932069,7.84582759 7.65775862,7.34586207 8.5617931,7.62796552 C9.46768966,7.91286207 9.97137931,8.87741379 9.68555172,9.78237931 C9.33362069,10.9014828 9.49841379,12.0643448 10.1752759,13.2374483 C11.4526552,15.4523793 10.691069,18.2948276 8.47613793,19.574069 C7.776,19.980931 6.97344828,20.195069 6.15972414,20.195069 Z" id="Path"></path>
                </g>
                <path d="M14.148,33.0321724 C13.1983448,33.0321724 12.4293103,32.2622069 12.4293103,31.3125517 L12.4293103,24.2078276 C6.98648276,23.5281724 2.94393103,20.4715862 1.20662069,15.6488276 C0.787655172,14.4831724 0.846310345,13.2234828 1.3742069,12.1015862 C1.90210345,10.9806207 2.835,10.1315172 4.00065517,9.71255172 C5.16444828,9.29265517 6.42413793,9.35131034 7.54789655,9.88013793 C8.66886207,10.4071034 9.51703448,11.34 9.93693103,12.5065862 C10.3344828,13.6126552 11.2748276,15.0827586 14.823931,15.0827586 L26.3398966,15.0827586 C29.889931,15.0827586 30.8293448,13.6126552 31.2268966,12.5075172 C31.6467931,11.340931 32.4949655,10.4080345 33.615931,9.88106897 C34.7387586,9.35410345 35.9975172,9.29451724 37.1641034,9.71441379 C38.3288276,10.1333793 39.2617241,10.9824828 39.7896207,12.1034483 C40.3165862,13.2253448 40.3761724,14.4850345 39.9572069,15.6506897 C38.2208276,20.4734483 34.1773448,23.5300345 28.7345172,24.2096897 L28.7345172,27.1163793 C28.7345172,28.0660345 27.9654828,28.835069 27.0158276,28.835069 C26.0661724,28.835069 25.2971379,28.0660345 25.2971379,27.1163793 L25.2971379,22.6241379 C25.2971379,21.6986897 26.0298621,20.9389655 26.9543793,20.9063793 C31.8236897,20.7332069 35.2927241,18.4540345 36.720931,14.4859655 C36.8298621,14.1843103 36.8149655,13.8575172 36.6781034,13.5670345 C36.5421724,13.2765517 36.3001034,13.0568276 35.9984483,12.9488276 C35.694931,12.8398966 35.369069,12.8547931 35.0804483,12.9907241 C34.7890345,13.1275862 34.5693103,13.3696552 34.4613103,13.6713103 C33.6652759,15.8825172 31.6095517,18.5201379 26.3389655,18.5201379 L14.8248621,18.5201379 C9.55427586,18.5201379 7.49948276,15.8825172 6.70251724,13.6713103 C6.59451724,13.3696552 6.37386207,13.1275862 6.08337931,12.9907241 C5.79289655,12.8538621 5.46889655,12.8380345 5.16631034,12.9478966 C4.86372414,13.0568276 4.62165517,13.2765517 4.48572414,13.5670345 C4.3497931,13.8575172 4.33396552,14.1843103 4.44289655,14.4859655 C5.87110345,18.4531034 9.34013793,20.7332069 14.2094483,20.9063793 C15.1339655,20.9389655 15.8666897,21.6986897 15.8666897,22.6241379 L15.8666897,31.3153448 C15.8666897,32.2622069 15.0976552,33.0321724 14.148,33.0321724 Z" id="Path"></path>
                <path d="M20.6168276,14.2997586 C16.6757586,14.2997586 13.4683448,11.0932759 13.4683448,7.15127586 C13.4683448,3.20741379 16.6748276,0 20.6168276,0 C23.381069,0.000931034483 25.8473793,1.54458621 27.053069,4.02858621 C27.4683103,4.88234483 27.1117241,5.91113793 26.2579655,6.32544828 C25.4042069,6.73975862 24.3763448,6.38410345 23.9611034,5.53034483 C23.3335862,4.23993103 22.0515517,3.43737931 20.6149655,3.43737931 C18.5694828,3.43737931 16.9047931,5.103 16.9047931,7.15127586 C16.9047931,9.19768966 18.5694828,10.8623793 20.6158966,10.8623793 C22.1102069,10.8623793 23.4546207,9.97137931 24.0383793,8.59158621 C24.408,7.71827586 25.4172414,7.31048276 26.2914828,7.67917241 C27.1647931,8.0487931 27.5744483,9.05803448 27.2038966,9.93227586 C26.081069,12.5847931 23.4946552,14.2997586 20.6168276,14.2997586 Z" id="Path"></path>
            </g>
        </g>
    </g>
</svg>