<?xml version="1.0" encoding="UTF-8"?>
<svg width="36px" height="54px" viewBox="0 0 36 54" version="1.1" xmlns="http://www.w3.org/2000/svg" xmlns:xlink="http://www.w3.org/1999/xlink">
    <!-- Generator: Sketch 57.1 (83088) - https://sketch.com -->
    <title>Group 2</title>
    <desc>Created with Sketch.</desc>
    <g id="Desktop" stroke="none" stroke-width="1" fill="none" fill-rule="evenodd">
        <g id="Landing-v2" transform="translate(-518.000000, -3423.000000)" fill="#785EE5">
            <g id="Group-2" transform="translate(518.000000, 3423.000000)">
                <path d="M5.46152413,48.951 C3.83967797,48.951 2.44029336,48.3365172 1.45906259,47.1773793 C-0.0640143358,45.3786207 -0.243091259,42.7288966 0.23413951,41.0008966 L2.7587549,29.7903103 C2.96829336,28.8648621 3.87752413,28.2848276 4.7987549,28.4961724 C5.71629336,28.7056552 6.29137028,29.6273793 6.0827549,30.5528276 L3.54798566,41.8071724 L3.52306259,41.904 C3.30521643,42.660931 3.36798566,44.1394138 4.05106259,44.9466207 C4.30490874,45.2454828 4.77198566,45.6262759 5.89537028,45.4847586 C10.1073703,44.955931 14.2455241,45.2575862 14.4199857,45.2706207 C15.3578318,45.3423103 16.0621395,46.1662759 15.9919857,47.1122069 C15.9218318,48.06 15.1012164,48.7759655 14.1661395,48.6986897 C14.1264472,48.6949655 10.1839857,48.410069 6.31813951,48.896069 C6.02737028,48.9323793 5.74029336,48.951 5.46152413,48.951" id="Fill-109"></path>
                <path d="M31.9427549,30.4597241 C31.1775241,30.4597241 30.480601,29.9355517 30.2895241,29.1516207 L30.0818318,28.3006552 C29.5187549,25.9944828 27.948601,24.7366552 24.660601,23.9545862 C23.3959857,23.6566552 22.4212164,23.2227931 21.6827549,22.6287931 C20.9470626,22.0366552 20.8261395,20.9557241 21.4132164,20.2136897 C21.9993703,19.4707241 23.0729087,19.3496897 23.807678,19.9408966 C24.1372164,20.2062414 24.6855241,20.4306207 25.439678,20.6075172 C28.3002934,21.2881034 32.2344472,22.7395862 33.3910626,27.4785517 L33.5987549,28.3295172 C33.8239857,29.2512414 33.2655241,30.1822759 32.351678,30.4103793 C32.2150626,30.4438966 32.0775241,30.4597241 31.9427549,30.4597241" id="Fill-110"></path>
                <path d="M9.98552413,53.7132414 C6.32183182,53.7132414 4.38060105,52.3716207 3.39752413,51.246 C2.28983182,49.977931 1.79783182,48.3337241 2.01383182,46.6159655 C2.13198566,45.6737586 2.98767797,44.9959655 3.91813951,45.1272414 C4.85229336,45.2464138 5.51321643,46.1066897 5.39506259,47.0488966 C5.3424472,47.4678621 5.34521643,48.276 5.9544472,48.9742759 C6.69937028,49.8252414 8.09229336,50.2758621 9.98552413,50.2758621 C18.2627549,50.2758621 31.0279857,45.2575862 31.0279857,38.5895172 C31.0279857,34.3570345 28.5661395,33.4688276 26.5012164,33.4688276 C24.780601,33.4688276 23.855678,34.2583448 23.3821395,34.9203103 C22.8273703,35.6977241 22.6335241,36.7004483 22.8892164,37.4741379 C23.3562934,38.8902414 24.2858318,39.3957931 24.5221395,39.5037931 C24.9042934,39.5754828 26.292601,39.7114138 27.2673703,38.1193448 C27.7621395,37.3121379 28.8107549,37.0579655 29.6129087,37.5597931 C30.4132164,38.0578966 30.6624472,39.1174138 30.167678,39.9246207 C28.2209087,43.1041034 25.0012164,43.2 23.5667549,42.8080345 C23.2095241,42.6935172 20.724601,41.7978621 19.655678,38.5606552 C19.055678,36.7451379 19.4249087,34.5804828 20.6175241,32.9102069 C21.9449087,31.0537241 24.0338318,30.0314483 26.5012164,30.0314483 C30.1621395,30.0314483 34.4369087,32.2724483 34.4369087,38.5895172 C34.4369087,48.519 18.5184472,53.7132414 9.98552413,53.7132414" id="Fill-111"></path>
                <path d="M18.3513703,44.2166897 C18.2064472,44.2166897 18.059678,44.1971379 17.9129087,44.1580345 C14.0313703,43.119931 10.367678,43.3303448 7.97967797,43.6915862 C7.41752413,43.7791034 6.84798566,43.5714828 6.46490874,43.146 C6.0827549,42.7195862 5.93598566,42.1283793 6.07537028,41.5716207 L8.63321643,31.3246552 C8.86306259,30.4047931 9.78890874,29.8461724 10.7018318,30.078 C11.6147549,30.3098276 12.167678,31.2436552 11.9378318,32.1644483 L9.97629336,40.0223793 C12.4612164,39.8585172 15.5479857,39.9683793 18.7870626,40.8361034 C19.6972164,41.0791034 20.2390626,42.0203793 19.9972164,42.9383793 C19.7950626,43.7083448 19.104601,44.2166897 18.3513703,44.2166897" id="Fill-112"></path>
                <path d="M18.5507549,28.7838621 C16.740601,28.7838621 14.9018318,28.0427586 13.3418318,26.5614828 C12.6569087,25.9097586 12.623678,24.8232414 13.2689087,24.1305517 C13.9141395,23.4397241 14.9922934,23.408069 15.6781395,24.057 C17.436601,25.7272759 19.5162934,25.784069 21.1049087,24.2031724 C21.7750626,23.5384138 22.8541395,23.5458621 23.5141395,24.2208621 C24.1750626,24.8967931 24.167678,25.9851724 23.4975241,26.6508621 C22.0667549,28.0744138 20.3221395,28.7838621 18.5507549,28.7838621" id="Fill-113"></path>
                <path d="M20.1975241,19.2938276 C18.7122934,19.2938276 16.2975241,18.4195862 14.580601,17.2595172 C13.7978318,16.7316207 13.5892164,15.6646552 14.112601,14.8751379 C14.6369087,14.0865517 15.695678,13.8761379 16.476601,14.4031034 C17.8898318,15.3583448 19.6492164,15.8573793 20.1975241,15.8573793 C21.2018318,15.8573793 22.7969087,14.3239655 22.7969087,10.2106552 C22.7969087,9.26193103 23.5593703,8.49196552 24.5009087,8.49196552 C25.4415241,8.49196552 26.2049087,9.26193103 26.2049087,10.2106552 C26.2049087,17.3954483 22.2753703,19.2938276 20.1975241,19.2938276" id="Fill-114"></path>
                <path d="M7.70921643,29.3517931 C6.76860105,29.3517931 6.00521643,28.5827586 6.00521643,27.6331034 L6.00521643,13.2244138 C6.00521643,4.13844828 12.5258318,4.4408921e-14 18.5849087,4.4408921e-14 C21.6144472,4.4408921e-14 25.9362934,1.45334483 28.1433703,5.54896552 C28.5929087,6.38410345 28.2864472,7.42686207 27.4593703,7.88027586 C26.6322934,8.33462069 25.5975241,8.02458621 25.1489087,7.19131034 C23.1827549,3.54258621 19.0492164,3.43737931 18.5849087,3.43737931 C14.3544472,3.43737931 9.41321643,6.00051724 9.41321643,13.2244138 L9.41321643,25.8147931 C11.3978318,25.5727241 13.8282934,24.7878621 13.8282934,22.3941724 L13.8282934,13.9552759 C13.8282934,8.27782759 18.0938318,6.38037931 18.275678,6.30217241 C19.1424472,5.93068966 20.1421395,6.33568966 20.5104472,7.20993103 C20.879678,8.08324138 20.4772164,9.09248276 19.6113703,9.46396552 C19.5347549,9.50027586 17.2362934,10.6054138 17.2362934,13.9552759 L17.2362934,22.3941724 C17.2362934,25.757069 14.7338318,29.3517931 7.70921643,29.3517931" id="Fill-115"></path>
                <path d="M28.848601,52.2626897 C25.6261395,52.2626897 23.0682934,49.9984138 22.9242934,49.8671379 C22.2227549,49.2340345 22.1627549,48.1475172 22.7913703,47.439931 C23.4181395,46.7332759 24.4953703,46.6736897 25.1978318,47.3067931 C25.3113703,47.4064138 28.1452164,49.8708621 30.6781395,48.2732069 C31.4369087,47.7946552 32.1559857,47.1876207 32.916601,46.5461379 L33.1473703,46.3515517 C33.8710626,45.7426552 34.9455241,45.8404138 35.5482934,46.5694138 C36.1510626,47.2974828 36.0541395,48.3812069 35.3322934,48.9901034 L35.1042934,49.1818966 C34.2873703,49.8708621 33.443678,50.5831034 32.484601,51.1882759 C31.2412164,51.9722069 30.0024472,52.2626897 28.848601,52.2626897" id="Fill-116"></path>
                <path d="M13.8827549,39.5671034 C13.2199857,39.5671034 12.5895241,39.176069 12.3135241,38.5215517 C11.9452164,37.6491724 12.3467549,36.6408621 13.211678,36.2684483 C13.3879857,36.1921034 17.5722934,34.4110345 21.2701395,34.83 C22.2052164,34.9361379 22.8781395,35.7871034 22.7729087,36.7302414 C22.667678,37.6724483 21.816601,38.3493103 20.8898318,38.2459655 C18.1012164,37.9284828 14.5833703,39.4144138 14.5482934,39.4302414 C14.3313703,39.5242759 14.1052164,39.5671034 13.8827549,39.5671034" id="Fill-117"></path>
            </g>
        </g>
    </g>
</svg>