<?xml version="1.0" encoding="UTF-8"?>
<svg width="54px" height="54px" viewBox="0 0 54 54" version="1.1" xmlns="http://www.w3.org/2000/svg" xmlns:xlink="http://www.w3.org/1999/xlink">
    <!-- Generator: Sketch 57.1 (83088) - https://sketch.com -->
    <title>20_baby_avatar copy</title>
    <desc>Created with Sketch.</desc>
    <g id="Desktop" stroke="none" stroke-width="1" fill="none" fill-rule="evenodd">
        <g id="Landing-v2" transform="translate(-1061.000000, -3423.000000)" fill="#509EF7" fill-rule="nonzero">
            <g id="20_baby_avatar-copy" transform="translate(1061.000000, 3423.000000)">
                <path d="M26.8556897,42.6423103 C23.732069,42.6423103 20.6093793,41.4552414 18.2315172,39.0773793 C17.5602414,38.4051724 17.5602414,37.3177241 18.2315172,36.6473793 C18.9037241,35.9742414 19.9911724,35.9751724 20.6624483,36.6464483 C24.0774828,40.0605517 29.6329655,40.0614828 33.0498621,36.6464483 C33.7211379,35.9751724 34.8085862,35.9742414 35.4798621,36.6473793 C36.1511379,37.3186552 36.1511379,38.4061034 35.478931,39.0773793 C33.102931,41.4533793 29.9783793,42.6423103 26.8556897,42.6423103 Z" id="Path"></path>
                <path d="M16.929,27.5483793 C16.3145172,27.5483793 15.7093448,27.3063103 15.281069,26.8687241 C14.8434828,26.4404483 14.6014138,25.8352759 14.6014138,25.2207931 C14.6014138,24.6063103 14.8434828,24.0104483 15.281069,23.5728621 C16.146931,22.7163103 17.7017586,22.7163103 18.5676207,23.5728621 C19.0052069,24.0104483 19.2565862,24.6063103 19.2565862,25.2207931 C19.2565862,25.8352759 19.0052069,26.4404483 18.5676207,26.8687241 C18.1393448,27.3063103 17.5341724,27.5483793 16.929,27.5483793 Z" id="Path"></path>
                <path d="M36.7888966,27.5483793 C36.1744138,27.5483793 35.5776207,27.3063103 35.1400345,26.8687241 C34.7117586,26.4404483 34.4613103,25.8352759 34.4613103,25.2207931 C34.4613103,24.6063103 34.7126897,24.0104483 35.1400345,23.5728621 C36.0058966,22.7163103 37.5616552,22.707 38.4358966,23.5728621 C38.8641724,24.0104483 39.1155517,24.6156207 39.1155517,25.2207931 C39.1155517,25.8352759 38.8632414,26.4404483 38.4358966,26.8687241 C37.9983103,27.3063103 37.4024483,27.5483793 36.7888966,27.5483793 Z" id="Path"></path>
                <path d="M26.8566207,53.7123103 C12.0475862,53.7123103 0,41.6656552 0,26.8566207 C0,16.442069 6.1047931,6.87755172 15.551069,2.48865517 C16.4113448,2.09110345 17.4345517,2.46258621 17.8339655,3.32286207 C18.2343103,4.18406897 17.8600345,5.20541379 16.9997586,5.60575862 C8.76103448,9.43324138 3.43737931,17.7743793 3.43737931,26.8566207 C3.43737931,39.770069 13.9431724,50.2758621 26.8566207,50.2758621 C39.771,50.2758621 50.2758621,39.770069 50.2758621,26.8566207 C50.2758621,13.9431724 39.771,3.43737931 26.8566207,3.43737931 C22.7684483,3.43737931 20.9063793,6.35803448 20.9063793,9.07106897 C20.9063793,10.4676207 21.4026207,11.7477931 22.3038621,12.6741724 C23.3512759,13.7504483 24.9256552,14.3193103 26.8566207,14.3193103 C30.3256552,14.3193103 32.0136207,13.0493793 32.0136207,10.4368966 C32.0136207,9.61665517 31.7594483,8.23965517 30.051931,8.23965517 C29.2335517,8.23965517 28.6060345,8.52175862 28.3332414,9.0152069 C28.1097931,9.41741379 28.1479655,9.91458621 28.4365862,10.3801034 C28.9384138,11.1854483 28.6926207,12.2458966 27.8872759,12.7477241 C27.081,13.2495517 26.0214828,13.0028276 25.5196552,12.1974828 C24.5644138,10.664069 24.4917931,8.85041379 25.326931,7.34586207 C26.2114138,5.75286207 27.9785172,4.80227586 30.051,4.80227586 C33.2295517,4.80227586 35.450069,7.11962069 35.450069,10.4368966 C35.450069,12.1546552 34.830931,17.7576207 26.8566207,17.7576207 C23.2172069,17.7576207 21.033,16.2968276 19.8403448,15.0715862 C18.3106552,13.5 17.469,11.3688621 17.469,9.07106897 C17.469,4.6737931 20.7592759,0 26.8566207,0 C41.6656552,0 53.7132414,12.0475862 53.7132414,26.8566207 C53.7132414,41.6656552 41.6656552,53.7123103 26.8566207,53.7123103 Z" id="Path"></path>
            </g>
        </g>
    </g>
</svg>