<?xml version="1.0" encoding="UTF-8"?>
<svg width="32px" height="54px" viewBox="0 0 32 54" version="1.1" xmlns="http://www.w3.org/2000/svg" xmlns:xlink="http://www.w3.org/1999/xlink">
    <!-- Generator: Sketch 57.1 (83088) - https://sketch.com -->
    <title>07_pregnancy</title>
    <desc>Created with Sketch.</desc>
    <g id="Desktop" stroke="none" stroke-width="1" fill="none" fill-rule="evenodd">
        <g id="Landing-v2" transform="translate(-336.000000, -3423.000000)" fill="#DE5AA5" fill-rule="nonzero">
            <g id="07_pregnancy" transform="translate(336.000000, 3423.000000)">
                <path d="M13.2867931,18.0015517 C11.8865172,18.0015517 9.61665517,17.1878276 8.00596552,16.1096897 C7.21737931,15.5817931 7.00603448,14.5138966 7.53393103,13.7253103 C8.06089655,12.9367241 9.1287931,12.7244483 9.91924138,13.2542069 C11.1845172,14.1023793 12.8082414,14.5641724 13.2867931,14.5641724 C13.8752069,14.5641724 15.5547931,13.6368621 15.5547931,9.51889655 C15.5547931,8.56924138 16.3238276,7.8002069 17.2734828,7.8002069 C18.2231379,7.8002069 18.9921724,8.57017241 18.9921724,9.51889655 C18.9912414,16.2288621 15.2605862,18.0015517 13.2867931,18.0015517 Z" id="Path"></path>
                <path d="M1.71868966,29.2363448 C0.769034483,29.2363448 0,28.4663793 0,27.5176552 L0,12.2868621 C0,3.84517241 6.11224138,0 11.7924828,0 C14.6377241,0 18.6961034,1.35372414 20.7713793,5.16817241 C21.2238621,6.00237931 20.9156897,7.04606897 20.0824138,7.49855172 C19.2482069,7.95289655 18.2045172,7.6437931 17.7511034,6.80958621 C15.9681724,3.53141379 12.2151724,3.43644828 11.7934138,3.43644828 C7.93893103,3.43644828 3.43737931,5.7537931 3.43737931,12.285 L3.43737931,25.6863103 C5.19424138,25.4498276 7.24717241,24.7375862 7.24717241,22.7051379 L7.24717241,12.9572069 C7.24717241,7.65310345 11.2813448,5.87482759 11.4526552,5.80127586 C12.3278276,5.43072414 13.3352069,5.83572414 13.7076207,6.70996552 C14.0791034,7.58327586 13.6731724,8.59251724 12.7998621,8.96493103 C12.6043448,9.05617241 10.6845517,10.0300345 10.6845517,12.9581379 L10.6845517,22.707931 C10.6836207,25.8632069 8.32810345,29.2363448 1.71868966,29.2363448 Z" id="Path"></path>
                <path d="M20.6065862,53.7141724 C19.8887586,53.7141724 19.2193448,53.2616897 18.9782069,52.542931 C18.6746897,51.6435517 19.1578966,50.6687586 20.0572759,50.3661724 C20.1224483,50.3438276 26.9869655,47.925931 26.9869655,42.2801379 C26.9869655,40.2895862 26.0931724,39.1704828 24.6212069,37.5644483 C23.9806552,36.8643103 24.0272069,35.7768621 24.7273448,35.1363103 C25.4284138,34.4957586 26.514931,34.5432414 27.1554828,35.2424483 C28.944,37.1948276 30.4234138,39.0717931 30.4234138,42.281069 C30.4234138,50.408069 21.5329655,53.4963103 21.1549655,53.6238621 C20.9724828,53.6853193 20.7881379,53.7141724 20.6065862,53.7141724 Z" id="Path"></path>
                <path d="M19.6429655,31.1607931 C18.7528966,31.1607931 17.9987586,30.4736897 17.9307931,29.5715172 C17.8591034,28.6237241 18.5694828,27.7988276 19.5154138,27.728069 C19.5284483,27.7271379 21.707069,27.4897241 21.707069,26.4134483 C21.707069,26.0661724 20.4995172,25.5652759 19.6187586,25.1993793 C17.7687931,24.4312759 15.2335862,23.3792069 14.0241724,20.7294828 C13.6303448,19.8654828 14.0102069,18.846 14.8742069,18.4521724 C15.7382069,18.0592759 16.7558276,18.4391379 17.1515172,19.3022069 C17.7995172,20.7229655 19.3226897,21.356069 20.9352414,22.0254828 C22.8103448,22.8028966 25.1435172,23.7721034 25.1435172,26.4143793 C25.1435172,29.8452414 21.6316552,31.0164828 19.7733103,31.157069 C19.7295517,31.158931 19.6867241,31.1607931 19.6429655,31.1607931 Z" id="Path"></path>
                <path d="M17.5965517,36.0608276 C17.3386552,36.0608276 17.0928621,36.044069 16.8619655,36.0077586 C13.8109655,35.5375862 10.6864138,30.6124138 9.801,29.1143793 C9.31872414,28.296 9.58965517,27.243931 10.4061724,26.7607241 C11.2236207,26.2775172 12.2766207,26.5493793 12.7598276,27.3649655 C14.3053448,29.9755862 16.5091034,32.4763448 17.3852069,32.6113448 C18.3925862,32.7733448 21.2676207,31.8115862 23.3708276,31.1151724 L24.6640345,30.6896897 C27.7103793,29.7 30.0984828,31.0006552 30.3610345,31.1524138 C31.184069,31.6272414 31.4652414,32.6793103 30.9904138,33.5004828 C30.5155862,34.3216552 29.4625862,34.6028276 28.6432759,34.128931 C28.6088276,34.1112414 27.3351724,33.4371724 25.7235517,33.9585517 L24.4517586,34.3765862 C21.7480345,35.2731724 19.3664483,36.0608276 17.5965517,36.0608276 Z" id="Path"></path>
                <path d="M5.75937931,53.7141724 C4.93448276,53.7141724 4.20734483,53.1192414 4.06675862,52.2794483 C3.42527586,48.4575517 3.85634483,46.034069 5.25568966,40.0847586 C6.01913793,36.828931 5.17468966,33.7351034 4.47175862,31.6905517 C4.16358621,30.7930345 4.6412069,29.8154483 5.53872414,29.5063448 C6.43437931,29.2009655 7.41382759,29.6757931 7.72293103,30.5733103 C8.56272414,33.0191379 9.56824138,36.7488621 8.60089655,40.8705517 C7.21924138,46.7481724 6.93993103,48.6381724 7.45572414,51.7096552 C7.61306897,52.6462759 6.98182759,53.5316897 6.0452069,53.6899655 C5.94931034,53.7067241 5.85341379,53.7141724 5.75937931,53.7141724 Z" id="Path"></path>
            </g>
        </g>
    </g>
</svg>