<svg xmlns="http://www.w3.org/2000/svg" width="20" height="18" viewBox="0 0 20 18">
    <path fill="#785EE5" stroke="#785EE5" stroke-width=".3" d="M11.227 8.83c-.122 0-.204-.04-.286-.123-.164-.165-.164-.412 0-.577l.9-.907c-.368-.536-.614-1.154-.614-1.772 0-.824.368-1.607 1.064-2.308C13.68 1.742 17.936 1.041 18.1 1c.164 0 .286.041.368.082.082.124.164.248.123.371 0 .206-.696 4.451-2.127 5.852-.86.866-1.678 1.113-2.291 1.113-.164 0-.368 0-.532-.041-.246-.041-.368-.289-.327-.495.04-.247.286-.37.49-.33.696.166 1.391-.123 2.087-.824.859-.906 1.514-3.42 1.8-4.821-1.432.288-3.927.948-4.827 1.813-.532.536-.819 1.113-.819 1.69 0 .412.164.824.41 1.195l1.759-1.772c.163-.165.409-.165.572 0 .164.165.164.412 0 .577l-3.272 3.297c-.082.082-.164.123-.287.123zM6.073 5.657c-.9-.907-1.35-3.462-1.391-3.75 0-.165.04-.289.123-.371.081-.083.204-.124.368-.124.286.041 2.782.495 3.722 1.36.819.824.941 1.772.369 2.596l.654.66c.164.165.164.412 0 .577-.082.082-.204.123-.286.123-.082 0-.205-.04-.287-.123L7.71 4.956c-.164-.164-.164-.412 0-.577.164-.164.41-.164.573 0l.409.413c.245-.454.123-.948-.368-1.443-.45-.453-1.8-.824-2.66-1.03.164.906.532 2.225 1.023 2.72.205.206.41.33.614.412.205.082.327.33.245.536-.081.165-.245.288-.409.288h-.122c-.328-.123-.655-.33-.941-.618zm12.804 5.77c.082.082.123.206.123.33 0 .123-.082.205-.164.288l-3.845 2.885c-.777.577-1.677.906-2.618 1.03l-5.768.66c-.164.04-.369.04-.573.04h-2.25c-.164.495-.614.825-1.146.825H1.41c-.245 0-.409-.165-.409-.412 0-.248.164-.412.41-.412h1.226c.246 0 .41-.165.41-.413v-2.472c0-.248-.164-.412-.41-.412H1.41c-.245 0-.409-.165-.409-.412 0-.248.164-.413.41-.413h1.226c.369 0 .737.165.941.495l1.432-1.649c.696-.824 1.718-1.277 2.782-1.277h4.254c.45 0 .819.37.819.824 0 .453-.164.907-.41 1.236.532-.04 1.064-.164 1.514-.37l1.718-.825c1.023-.577 2.332-.412 3.191.454zM14.5 14.27l3.436-2.555c-.572-.37-1.309-.37-1.881-.041l-1.76.824c-.613.289-1.268.454-1.963.454H8.364c-.246 0-.41-.165-.41-.413 0-.247.164-.412.41-.412h2.454c.696 0 1.227-.535 1.227-1.236H7.832c-.86 0-1.637.37-2.168.989l-1.8 2.06v1.896h2.168c.163 0 .327-.04.49-.04l5.769-.66c.818-.083 1.554-.371 2.209-.866z"/>
</svg>
