<?xml version="1.0" encoding="UTF-8"?>
<svg width="18px" height="17px" viewBox="0 0 18 17" version="1.1" xmlns="http://www.w3.org/2000/svg" xmlns:xlink="http://www.w3.org/1999/xlink">
    <!-- Generator: Sketch 64 (93537) - https://sketch.com -->
    <title>Shape</title>
    <desc>Created with Sketch.</desc>
    <g id="Desktop" stroke="none" stroke-width="1" fill="none" fill-rule="evenodd">
        <g id="Product" transform="translate(-905.000000, -529.000000)" fill="#DE5AA5" fill-rule="nonzero">
            <g id="Group-10" transform="translate(904.000000, 378.000000)">
                <g id="care" transform="translate(1.000000, 151.000000)">
                    <path d="M10.2272727,7.83030303 C10.1045455,7.83030303 10.0227273,7.78909091 9.94090909,7.70666667 C9.77727273,7.54181818 9.77727273,7.29454545 9.94090909,7.12969697 L10.8409091,6.2230303 C10.4727273,5.68727273 10.2272727,5.06909091 10.2272727,4.45090909 C10.2272727,3.62666667 10.5954545,2.84363636 11.2909091,2.1430303 C12.6818182,0.741818182 16.9363636,0.0412121212 17.1,1.28785871e-14 C17.2636364,1.28785871e-14 17.3863636,0.0412121212 17.4681818,0.0824242424 C17.55,0.206060606 17.6318182,0.32969697 17.5909091,0.453333333 C17.5909091,0.659393939 16.8954545,4.90424242 15.4636364,6.30545455 C14.6045455,7.17090909 13.7863636,7.41818182 13.1727273,7.41818182 C13.0090909,7.41818182 12.8045455,7.41818182 12.6409091,7.3769697 C12.3954545,7.33575758 12.2727273,7.08848485 12.3136364,6.88242424 C12.3545455,6.63515152 12.6,6.51151515 12.8045455,6.55272727 C13.5,6.71757576 14.1954545,6.42909091 14.8909091,5.72848485 C15.75,4.82181818 16.4045455,2.30787879 16.6909091,0.906666667 C15.2590909,1.19515152 12.7636364,1.85454545 11.8636364,2.72 C11.3318182,3.25575758 11.0454545,3.83272727 11.0454545,4.40969697 C11.0454545,4.82181818 11.2090909,5.23393939 11.4545455,5.60484848 L13.2136364,3.83272727 C13.3772727,3.66787879 13.6227273,3.66787879 13.7863636,3.83272727 C13.95,3.99757576 13.95,4.24484848 13.7863636,4.40969697 L10.5136364,7.70666667 C10.4318182,7.78909091 10.35,7.83030303 10.2272727,7.83030303 Z M5.07272727,4.6569697 C4.17272727,3.75030303 3.72272727,1.19515152 3.68181818,0.906666667 C3.68181818,0.741818182 3.72272727,0.618181818 3.80454545,0.535757576 C3.88636364,0.453333333 4.00909091,0.412121212 4.17272727,0.412121212 C4.45909091,0.453333333 6.95454545,0.906666667 7.89545455,1.77212121 C8.71363636,2.59636364 8.83636364,3.54424242 8.26363636,4.36848485 L8.91818182,5.02787879 C9.08181818,5.19272727 9.08181818,5.44 8.91818182,5.60484848 C8.83636364,5.68727273 8.71363636,5.72848485 8.63181818,5.72848485 C8.55,5.72848485 8.42727273,5.68727273 8.34545455,5.60484848 L6.70909091,3.95636364 C6.54545455,3.79151515 6.54545455,3.54424242 6.70909091,3.37939394 C6.87272727,3.21454545 7.11818182,3.21454545 7.28181818,3.37939394 L7.69090909,3.79151515 C7.93636364,3.33818182 7.81363636,2.84363636 7.32272727,2.34909091 C6.87272727,1.89575758 5.52272727,1.52484848 4.66363636,1.31878788 C4.82727273,2.22545455 5.19545455,3.54424242 5.68636364,4.03878788 C5.89090909,4.24484848 6.09545455,4.36848485 6.3,4.45090909 C6.50454545,4.53333333 6.62727273,4.78060606 6.54545455,4.98666667 C6.46363636,5.15151515 6.3,5.27515152 6.13636364,5.27515152 L6.01363636,5.27515152 C5.68636364,5.15151515 5.35909091,4.94545455 5.07272727,4.6569697 Z M17.8772727,10.4266667 C17.9590909,10.5090909 18,10.6327273 18,10.7563636 C18,10.88 17.9181818,10.9624242 17.8363636,11.0448485 L13.9909091,13.929697 C13.2136364,14.5066667 12.3136364,14.8363636 11.3727273,14.96 L5.60454545,15.6193939 C5.44090909,15.6606061 5.23636364,15.6606061 5.03181818,15.6606061 L2.78181818,15.6606061 C2.61818182,16.1551515 2.16818182,16.4848485 1.63636364,16.4848485 L0.409090909,16.4848485 C0.163636364,16.4848485 0,16.32 0,16.0727273 C0,15.8254545 0.163636364,15.6606061 0.409090909,15.6606061 L1.63636364,15.6606061 C1.88181818,15.6606061 2.04545455,15.4957576 2.04545455,15.2484848 L2.04545455,12.7757576 C2.04545455,12.5284848 1.88181818,12.3636364 1.63636364,12.3636364 L0.409090909,12.3636364 C0.163636364,12.3636364 0,12.1987879 0,11.9515152 C0,11.7042424 0.163636364,11.5393939 0.409090909,11.5393939 L1.63636364,11.5393939 C2.00454545,11.5393939 2.37272727,11.7042424 2.57727273,12.0339394 L4.00909091,10.3854545 C4.70454545,9.56121212 5.72727273,9.10787879 6.79090909,9.10787879 L11.0454545,9.10787879 C11.4954545,9.10787879 11.8636364,9.47878788 11.8636364,9.93212121 C11.8636364,10.3854545 11.7,10.8387879 11.4545455,11.1684848 C11.9863636,11.1272727 12.5181818,11.0036364 12.9681818,10.7975758 L14.6863636,9.97333333 C15.7090909,9.39636364 17.0181818,9.56121212 17.8772727,10.4266667 Z M13.5,13.270303 L16.9363636,10.7151515 C16.3636364,10.3442424 15.6272727,10.3442424 15.0545455,10.6739394 L13.2954545,11.4981818 C12.6818182,11.7866667 12.0272727,11.9515152 11.3318182,11.9515152 L7.36363636,11.9515152 C7.11818182,11.9515152 6.95454545,11.7866667 6.95454545,11.5393939 C6.95454545,11.2921212 7.11818182,11.1272727 7.36363636,11.1272727 L9.81818182,11.1272727 C10.5136364,11.1272727 11.0454545,10.5915152 11.0454545,9.89090909 L6.83181818,9.89090909 C5.97272727,9.89090909 5.19545455,10.2618182 4.66363636,10.88 L2.86363636,12.9406061 L2.86363636,14.8363636 L5.03181818,14.8363636 C5.19545455,14.8363636 5.35909091,14.7951515 5.52272727,14.7951515 L11.2909091,14.1357576 C12.1090909,14.0533333 12.8454545,13.7648485 13.5,13.270303 Z" id="Shape"></path>
                </g>
            </g>
        </g>
    </g>
</svg>