<?xml version="1.0" encoding="UTF-8"?>
<svg width="16px" height="10px" viewBox="0 0 16 10" version="1.1" xmlns="http://www.w3.org/2000/svg" xmlns:xlink="http://www.w3.org/1999/xlink">
    <!-- Generator: Sketch 63 (92445) - https://sketch.com -->
    <title>Path</title>
    <desc>Created with Sketch.</desc>
    <g id="Desktop" stroke="none" stroke-width="1" fill="none" fill-rule="evenodd">
        <g id="Landing-Category" transform="translate(-399.000000, -1731.000000)" fill="#F6BD84" fill-rule="nonzero">
            <g id="Group-20" transform="translate(395.000000, 1724.000000)">
                <path d="M14.0362602,15.6666667 L10.6379126,15.6666667 C10.4835647,16.4274134 9.81130943,17 9.00538485,17 C8.19946027,17 7.52720497,16.4274134 7.37285712,15.6666667 L5.00734298,15.6666667 C4.82333818,15.6666667 4.67417282,15.5174282 4.67417282,15.3333333 C4.67417282,15.1492384 4.82333818,15 5.00734298,15 L7.37285712,15 C7.52720497,14.2392532 8.19946027,13.6666667 9.00538485,13.6666667 C9.81130943,13.6666667 10.4835647,14.2392532 10.6379126,15 L14.0362602,15 C14.1906081,14.2392532 14.8628634,13.6666667 15.668788,13.6666667 C16.4747126,13.6666667 17.1469679,14.2392532 17.3013157,15 L19.0004895,15 C19.1844943,15 19.3336597,14.8507616 19.3336597,14.6666667 L19.3336597,12.9870832 C19.3336597,12.885822 19.2876523,12.790051 19.2086193,12.7267936 L16.3095185,10.4063771 C16.2504431,10.3590936 16.1770422,10.3333333 16.1013887,10.3333333 L15.2625791,10.3333333 L14.7628238,12.3333333 L17.0014686,12.3333333 C17.1854734,12.3333333 17.3346388,12.4825718 17.3346388,12.6666667 C17.3346388,12.8507616 17.1854734,13 17.0014686,13 L14.3361073,13 C14.1193565,13 13.960315,12.7962037 14.0128848,12.5858215 L14.6775348,9.92591937 C14.6786033,9.92120849 14.6797716,9.91653559 14.6810372,9.91190293 L15.1385775,8.08084521 C15.1451844,8.05440501 15.1485252,8.02725394 15.1485252,8 C15.1485252,7.81590508 14.9993598,7.66666667 14.815355,7.66666667 L7.67270423,7.66666667 C7.48869943,7.66666667 7.33953407,7.51742825 7.33953407,7.33333333 C7.33953407,7.14923842 7.48869943,7 7.67270423,7 L14.815355,7 C15.3673694,7 15.8148655,7.44771525 15.8148655,8 C15.8148655,8.08176181 15.804843,8.16321502 15.7850226,8.24253563 L15.4291641,9.66666667 L16.1013887,9.66666667 C16.3283491,9.66666667 16.5485517,9.74394742 16.725778,9.88579786 L19.6248788,12.2062144 C19.8619779,12.3959866 20,12.6832995 20,12.9870832 L20,14.6666667 C20,15.2189514 19.5525039,15.6666667 19.0004895,15.6666667 L17.3013157,15.6666667 C17.1469679,16.4274134 16.4747126,17 15.668788,17 C14.8628634,17 14.1906081,16.4274134 14.0362602,15.6666667 Z" id="Path"></path>
            </g>
        </g>
    </g>
</svg>