<?xml version="1.0" encoding="UTF-8"?>
<svg width="18px" height="12px" viewBox="0 0 18 12" version="1.1" xmlns="http://www.w3.org/2000/svg" xmlns:xlink="http://www.w3.org/1999/xlink">
    <!-- Generator: Sketch 63 (92445) - https://sketch.com -->
    <title>Shape</title>
    <desc>Created with Sketch.</desc>
    <g id="Desktop" stroke="none" stroke-width="1" fill="none" fill-rule="evenodd">
        <g id="Address---Add" transform="translate(-92.000000, -192.000000)" fill="#565656" fill-rule="nonzero">
            <path d="M103.290793,202.4 L99.4676517,202.4 C99.2940103,203.312896 98.5377231,204 97.631058,204 C96.7243928,204 95.9681056,203.312896 95.7944643,202.4 L93.1332608,202.4 C92.9262555,202.4 92.7584444,202.220914 92.7584444,202 C92.7584444,201.779086 92.9262555,201.6 93.1332608,201.6 L95.7944643,201.6 C95.9681056,200.687104 96.7243928,200 97.631058,200 C98.5377231,200 99.2940103,200.687104 99.4676517,201.6 L103.290793,201.6 C103.464434,200.687104 104.220721,200 105.127386,200 C106.034052,200 106.790339,200.687104 106.96398,201.6 L108.875551,201.6 C109.082556,201.6 109.250367,201.420914 109.250367,201.2 L109.250367,199.1845 C109.250367,199.062986 109.198609,198.948061 109.109697,198.872152 L105.848208,196.087652 C105.781748,196.030912 105.699172,196 105.614062,196 L104.670401,196 L104.108177,198.4 L106.626652,198.4 C106.833658,198.4 107.001469,198.579086 107.001469,198.8 C107.001469,199.020914 106.833658,199.2 106.626652,199.2 L103.628121,199.2 C103.384276,199.2 103.205354,198.955444 103.264495,198.702986 L104.012227,195.511103 C104.013429,195.50545 104.014743,195.499843 104.016167,195.494284 L104.5309,193.297014 C104.538332,193.265286 104.542091,193.232705 104.542091,193.2 C104.542091,192.979086 104.37428,192.8 104.167274,192.8 L96.1317923,192.8 C95.9247869,192.8 95.7569758,192.620914 95.7569758,192.4 C95.7569758,192.179086 95.9247869,192 96.1317923,192 L104.167274,192 C104.788291,192 105.291724,192.537258 105.291724,193.2 C105.291724,193.298114 105.280448,193.395858 105.25815,193.491043 L104.85781,195.2 L105.614062,195.2 C105.869393,195.2 106.117121,195.292737 106.3165,195.462957 L109.577989,198.247457 C109.844725,198.475184 110,198.819959 110,199.1845 L110,201.2 C110,201.862742 109.496567,202.4 108.875551,202.4 L106.96398,202.4 C106.790339,203.312896 106.034052,204 105.127386,204 C104.220721,204 103.464434,203.312896 103.290793,202.4 Z M93.5080773,196 C93.3010719,196 93.1332608,195.820914 93.1332608,195.6 C93.1332608,195.379086 93.3010719,195.2 93.5080773,195.2 L100.897586,195.2 C101.104591,195.2 101.272402,195.379086 101.272402,195.6 C101.272402,195.820914 101.104591,196 100.897586,196 L93.5080773,196 Z M92.3748164,199.2 C92.167811,199.2 92,199.020914 92,198.8 C92,198.579086 92.167811,198.4 92.3748164,198.4 L98.7555072,198.4 C98.9625126,198.4 99.1303237,198.579086 99.1303237,198.8 C99.1303237,199.020914 98.9625126,199.2 98.7555072,199.2 L92.3748164,199.2 Z M97.631058,203.2 C98.2520741,203.2 98.7555072,202.662742 98.7555072,202 C98.7555072,201.337258 98.2520741,200.8 97.631058,200.8 C97.0100418,200.8 96.5066087,201.337258 96.5066087,202 C96.5066087,202.662742 97.0100418,203.2 97.631058,203.2 Z M105.127386,203.2 C105.748403,203.2 106.251836,202.662742 106.251836,202 C106.251836,201.337258 105.748403,200.8 105.127386,200.8 C104.50637,200.8 104.002937,201.337258 104.002937,202 C104.002937,202.662742 104.50637,203.2 105.127386,203.2 Z" id="Shape"></path>
        </g>
    </g>
</svg>