<svg xmlns="http://www.w3.org/2000/svg" width="24" height="15" viewBox="0 0 24 15">
    <path fill="#785EE5" fill-rule="nonzero" d="M15.054 13H9.957a2.5 2.5 0 0 1-4.898 0H1.511a.5.5 0 0 1 0-1h3.548a2.5 2.5 0 0 1 4.898 0h5.097a2.5 2.5 0 0 1 4.898 0h2.549a.5.5 0 0 0 .5-.5V8.98a.5.5 0 0 0-.188-.39l-4.349-3.48a.5.5 0 0 0-.312-.11h-1.258l-.75 3h3.358a.5.5 0 0 1 0 1h-3.998a.5.5 0 0 1-.485-.621l.997-3.99a.497.497 0 0 1 .006-.021l.686-2.747A.5.5 0 0 0 16.223 1H5.509a.5.5 0 0 1 0-1h10.714a1.5 1.5 0 0 1 1.455 1.864L17.144 4h1.008c.34 0 .67.116.937.329l4.348 3.48A1.5 1.5 0 0 1 24 8.981V11.5a1.5 1.5 0 0 1-1.5 1.5h-2.548a2.5 2.5 0 0 1-4.898 0zM2.011 5a.5.5 0 0 1 0-1h9.852a.5.5 0 0 1 0 1H2.011zM.5 9a.5.5 0 0 1 0-1h8.507a.5.5 0 0 1 0 1H.5zm7.008 5a1.5 1.5 0 1 0 0-3 1.5 1.5 0 0 0 0 3zm9.995 0a1.5 1.5 0 1 0 0-3 1.5 1.5 0 0 0 0 3z"/>
</svg>
