<?xml version="1.0" encoding="UTF-8"?>
<svg width="24px" height="15px" viewBox="0 0 24 15" version="1.1" xmlns="http://www.w3.org/2000/svg" xmlns:xlink="http://www.w3.org/1999/xlink">
    <!-- Generator: Sketch 64 (93537) - https://sketch.com -->
    <title>Shape</title>
    <desc>Created with Sketch.</desc>
    <g id="Desktop" stroke="none" stroke-width="1" fill="none" fill-rule="evenodd">
        <g id="Product" transform="translate(-904.000000, -410.000000)" fill="#F6BD84" fill-rule="nonzero">
            <g id="Group-10" transform="translate(904.000000, 378.000000)">
                <path d="M15.0543904,45 L9.95686887,45 C9.72534709,46.1411202 8.71696415,47 7.50807728,47 C6.2991904,47 5.29080746,46.1411202 5.05928568,45 L1.51101447,45 C1.23500727,45 1.01125923,44.7761424 1.01125923,44.5 C1.01125923,44.2238576 1.23500727,44 1.51101447,44 L5.05928568,44 C5.29080746,42.8588798 6.2991904,42 7.50807728,42 C8.71696415,42 9.72534709,42.8588798 9.95686887,44 L15.0543904,44 C15.2859121,42.8588798 16.2942951,42 17.503182,42 C18.7120688,42 19.7204518,42.8588798 19.9519736,44 L22.5007343,44 C22.7767415,44 23.0004895,43.7761424 23.0004895,43.5 L23.0004895,40.9806248 C23.0004895,40.828733 22.9314785,40.6850765 22.8129289,40.5901904 L18.4642777,37.1095656 C18.3756646,37.0386404 18.2655633,37 18.1520831,37 L16.8938686,37 L16.1442357,40 L19.5022029,40 C19.7782101,40 20.0019581,40.2238576 20.0019581,40.5 C20.0019581,40.7761424 19.7782101,41 19.5022029,41 L15.504161,41 C15.1790347,41 14.9404725,40.6943056 15.0193272,40.3787322 L16.0163022,36.3888791 C16.017905,36.3818127 16.0196574,36.3748034 16.0215558,36.3678544 L16.7078663,33.6212678 C16.7177765,33.5816075 16.7227878,33.5408809 16.7227878,33.5 C16.7227878,33.2238576 16.4990397,33 16.2230325,33 L5.50905634,33 C5.23304914,33 5.0093011,32.7761424 5.0093011,32.5 C5.0093011,32.2238576 5.23304914,32 5.50905634,32 L16.2230325,32 C17.0510541,32 17.7222982,32.6715729 17.7222982,33.5 C17.7222982,33.6226427 17.7072646,33.7448225 17.6775339,33.8638034 L17.1437462,36 L18.1520831,36 C18.4925236,36 18.8228276,36.1159211 19.0886669,36.3286968 L23.4373182,39.8093216 C23.7929668,40.0939799 24,40.5249493 24,40.9806248 L24,43.5 C24,44.3284271 23.3287559,45 22.5007343,45 L19.9519736,45 C19.7204518,46.1411202 18.7120688,47 17.503182,47 C16.2942951,47 15.2859121,46.1411202 15.0543904,45 Z M2.0107697,37 C1.73476251,37 1.51101447,36.7761424 1.51101447,36.5 C1.51101447,36.2238576 1.73476251,36 2.0107697,36 L11.8634478,36 C12.139455,36 12.3632031,36.2238576 12.3632031,36.5 C12.3632031,36.7761424 12.139455,37 11.8634478,37 L2.0107697,37 Z M0.499755234,41 C0.22374804,41 0,40.7761424 0,40.5 C0,40.2238576 0.22374804,40 0.499755234,40 L9.00734298,40 C9.28335017,40 9.50709821,40.2238576 9.50709821,40.5 C9.50709821,40.7761424 9.28335017,41 9.00734298,41 L0.499755234,41 Z M7.50807728,46 C8.33609886,46 9.00734298,45.3284271 9.00734298,44.5 C9.00734298,43.6715729 8.33609886,43 7.50807728,43 C6.68005569,43 6.00881157,43.6715729 6.00881157,44.5 C6.00881157,45.3284271 6.68005569,46 7.50807728,46 Z M17.503182,46 C18.3312035,46 19.0024477,45.3284271 19.0024477,44.5 C19.0024477,43.6715729 18.3312035,43 17.503182,43 C16.6751604,43 16.0039163,43.6715729 16.0039163,44.5 C16.0039163,45.3284271 16.6751604,46 17.503182,46 Z" id="Shape"></path>
            </g>
        </g>
    </g>
</svg>