<?xml version="1.0" encoding="UTF-8"?>
<svg width="12px" height="10px" viewBox="0 0 12 10" version="1.1" xmlns="http://www.w3.org/2000/svg" xmlns:xlink="http://www.w3.org/1999/xlink">
    <!-- Generator: Sketch 61.2 (89653) - https://sketch.com -->
    <title>twitter-brands</title>
    <desc>Created with Sketch.</desc>
    <g id="Desktop" stroke="none" stroke-width="1" fill="none" fill-rule="evenodd">
        <g id="Article-View" transform="translate(-834.000000, -714.000000)" fill="#1DA1F2" fill-rule="nonzero">
            <g id="Group" transform="translate(232.000000, 698.000000)">
                <g id="twitter-brands" transform="translate(602.000000, 16.000000)">
                    <path d="M10.7664844,2.43084375 C10.7741016,2.5374375 10.7741016,2.64405469 10.7741016,2.75064844 C10.7741016,6.00189844 8.2995,9.74810156 3.77664844,9.74810156 C2.38324219,9.74810156 1.08883594,9.34453125 0,8.64405469 C0.197976562,8.66688281 0.3883125,8.6745 0.59390625,8.6745 C1.74363281,8.6745 2.80202344,8.2861875 3.64720312,7.62375 C2.56598437,7.60089844 1.65989062,6.89278125 1.34770313,5.91815625 C1.5,5.94098437 1.65227344,5.95621875 1.8121875,5.95621875 C2.03299219,5.95621875 2.25382031,5.92575 2.45939062,5.87247656 C1.33249219,5.64403125 0.487289063,4.65419531 0.487289063,3.45876563 L0.487289063,3.42832031 C0.8146875,3.6110625 1.19542969,3.72527344 1.59895312,3.74048437 C0.936515625,3.29885156 0.502523438,2.54505469 0.502523438,1.69225781 C0.502523438,1.23541406 0.624328125,0.816632812 0.837539063,0.451148437 C2.04820313,1.94353125 3.86800781,2.91813281 5.90859375,3.02475 C5.87053125,2.84200781 5.84767969,2.65167187 5.84767969,2.4613125 C5.84767969,1.10596875 6.94413281,0.001921875 8.30707031,0.001921875 C9.0151875,0.001921875 9.65477344,0.298875 10.1040234,0.778570312 C10.6598438,0.671976562 11.1928359,0.466382813 11.6649375,0.184664062 C11.4821719,0.755742187 11.0938594,1.2354375 10.5837187,1.53998437 C11.0786484,1.48671094 11.5583437,1.349625 11.9999531,1.15928906 C11.6649844,1.64657812 11.2461797,2.08057031 10.7664844,2.43084375 Z" id="Path"></path>
                </g>
            </g>
        </g>
    </g>
</svg>