<svg xmlns="http://www.w3.org/2000/svg" width="36" height="36" viewBox="0 0 36 36">
    <path fill="#785EE5" fill-rule="evenodd" d="M30.502 21.053a2.908 2.908 0 0 0 1.553 3.35 15.232 15.232 0 0 0 1.368-5.526 2.923 2.923 0 0 0-2.921 2.176zm-12.49 12.332a15.44 15.44 0 0 0 12.99-7.064 5.088 5.088 0 0 1-2.623-5.817c.604-2.315 2.712-3.842 5.01-3.814a15.227 15.227 0 0 0-2.15-6.593c-2.65 1.245-6.188 1.534-9.788.555a16.357 16.357 0 0 1-4.218-1.8 12.7 12.7 0 0 1-3.274 5.51c-2.156 2.147-4.866 3.37-7.596 3.654.76.7 1.315 1.635 1.537 2.721a5.09 5.09 0 0 1-2.846 5.632 15.438 15.438 0 0 0 12.958 7.016zM3.99 24.447a2.908 2.908 0 0 0 1.76-3.274 2.922 2.922 0 0 0-3.15-2.316 15.226 15.226 0 0 0 1.39 5.59zM18.012.111C27.946.111 36 8.129 36 18.018c0 9.89-8.053 17.908-17.987 17.908C8.078 35.926.025 27.91.025 18.018.025 8.128 8.078.111 18.012.111zm3.85 24.918c.238.353.543.708 1.116.708-1.74.118-1.35 2.174-4.966 2.174-3.437 0-3.302-1.938-4.966-2.174.573 0 .878-.355 1.116-.708 1.62-2.314 3.01-2.334 3.85-1.16.84-1.174 2.23-1.154 3.85 1.16zM26.6 14.278c0 .528-.43.956-.96.956a.958.958 0 0 1-.96-.956c0-.528.43-.956.96-.956s.96.428.96.956zm-8.588 3.326c1.016 0 1.812.637 1.812 1.45a.483.483 0 0 1-.967 0c0-.23-.361-.487-.845-.487-.483 0-.844.258-.844.487a.483.483 0 0 1-.967 0c0-.813.796-1.45 1.811-1.45z"/>
</svg>
