<svg xmlns="http://www.w3.org/2000/svg" width="16" height="16" viewBox="0 0 16 16">
    <path fill="#785EE5" fill-rule="nonzero" d="M15.403 14.897a.649.649 0 1 1-.923.912l-1.525-1.526A7.94 7.94 0 0 1 8 16a7.94 7.94 0 0 1-4.954-1.717l-1.526 1.526a.652.652 0 0 1-.924 0 .644.644 0 0 1 0-.912l1.499-1.5A7.943 7.943 0 0 1 0 8a7.94 7.94 0 0 1 1.904-5.181l-.233-.233-.355.356a.655.655 0 0 1-.923-.001.644.644 0 0 1 0-.912L2.026.396a.654.654 0 0 1 .923 0 .644.644 0 0 1 0 .911l-.36.36.233.234A7.943 7.943 0 0 1 8 0c1.915 0 3.732.67 5.178 1.901l.233-.233-.361-.36a.644.644 0 0 1 0-.912.654.654 0 0 1 .923 0l1.633 1.633a.644.644 0 0 1-.46 1.103.65.65 0 0 1-.462-.19l-.355-.356-.233.233A7.94 7.94 0 0 1 16 8a7.943 7.943 0 0 1-2.096 5.398l1.499 1.5zM1.301 8c0 3.698 3.007 6.706 6.699 6.706 3.692 0 6.699-3.008 6.699-6.706 0-3.698-3.007-6.706-6.699-6.706-3.692 0-6.699 3.008-6.699 6.706zm10.615-3.01a.653.653 0 0 1 .891.237l.064.11-.009.017a.645.645 0 0 1-.293.756L8.33 8.559a.463.463 0 0 1-.027.014c-.044.022-.044.022-.048.022-.019.008-.026.012-.046.016l.016-.003c-.037.013-.037.013-.128.028l.053-.006c-.036.009-.04.01-.1.015l.023-.001L8 8.648h-.006c-.015 0-.015 0-.062-.005a.733.733 0 0 0-.018-.002h.014c-.055-.005-.055-.005-.07-.009l-.078-.028.06.024-.017-.005-.04-.012h-.001c-.022-.008-.022-.008-.036-.015l-.01-.004-.024-.011-.014-.008-.013-.007-.033-.02.019.012-.037-.023-.008-.006L4.28 6.186a.644.644 0 0 1-.16-.898.653.653 0 0 1 .91-.16l3.003 2.105 3.882-2.243z"/>
</svg>
