<svg xmlns="http://www.w3.org/2000/svg" width="12" height="20" viewBox="0 0 12 20">
    <g fill="none" fill-rule="evenodd">
        <path stroke="#785EE5" stroke-linecap="round" stroke-width="1.174" d="M7.4 11.29h-.014l-2.041.002c-2.117-.006-3.847-1.626-3.853-3.648V4.738C1.498 2.517 3.402.733 5.736.728h.948c2.331.005 4.235 1.79 4.239 4.012v3.133C10.917 9.735 9.349 11.24 7.4 11.29zM6.402 11.647c1.817 3.627-3.142 3.627-.041 7.254M7.481 2.708s1.54.252 1.609 2.356"/>
        <path stroke="#785EE5" stroke-linecap="round" stroke-linejoin="round" stroke-width="1.174" d="M7.106 11.337l.83 1.093h-3.13l.914-1.09"/>
        <path fill="#785EE5" fill-rule="nonzero" d="M7.49 4.886a.587.587 0 1 0 0 1.174.587.587 0 0 0 0-1.174zM5.032 4.886a.587.587 0 1 0 0 1.174.587.587 0 0 0 0-1.174z"/>
        <path stroke="#785EE5" stroke-linecap="round" stroke-linejoin="round" stroke-width="1.174" d="M7.403 7.543a1.23 1.23 0 1 1-2.46 0"/>
    </g>
</svg>
