<svg xmlns="http://www.w3.org/2000/svg" width="20" height="17" viewBox="0 0 20 17">
    <g fill="none" fill-rule="evenodd" stroke="#DE5AA5" stroke-width="1.125">
        <path d="M8.894 9.846v5.404c0 .518-.42.938-.938.938H2.26a.937.937 0 0 1-.937-.938V9.539c0-.518.42-.938.937-.938h5.696c.102 0 .203.017.3.049M15.408 8.601h2.332c.518 0 .938.42.938.938v5.711c0 .518-.42.938-.938.938h-5.696a.938.938 0 0 1-.919-.938V9.576"/>
        <path d="M8.859 2.31l3.742-.773a1.875 1.875 0 0 1 2.215 1.457l.773 3.743a1.875 1.875 0 0 1-1.458 2.215l-3.742.772a1.875 1.875 0 0 1-2.215-1.457L7.4 4.525A1.875 1.875 0 0 1 8.86 2.309z"/>
        <path stroke-linecap="round" stroke-linejoin="round" d="M5.346 13.956h-.81a.435.435 0 0 1-.435-.438v-2.502c0-.24.195-.435.435-.435h.612a.63.63 0 0 1 .63.627.63.63 0 0 1-.63.63H4.1"/>
        <path stroke-linecap="round" stroke-linejoin="round" d="M5.001 11.838h.304c.584 0 1.058.473 1.058 1.057 0 .585-.473 1.06-1.058 1.061h-.304M13.094 6.846L11.069 3.66l-.308 3.757M12.336 5.661l-1.47.33"/>
        <path fill-rule="nonzero" stroke-linecap="round" stroke-linejoin="round" d="M16.311 13.818a1.781 1.781 0 1 1 0-2.865"/>
    </g>
</svg>
