<?xml version="1.0" encoding="UTF-8"?>
<svg width="24px" height="15px" viewBox="0 0 24 15" version="1.1" xmlns="http://www.w3.org/2000/svg" xmlns:xlink="http://www.w3.org/1999/xlink">
    <!-- Generator: Sketch 61.2 (89653) - https://sketch.com -->
    <title>Shape</title>
    <desc>Created with Sketch.</desc>
    <g id="Desktop" stroke="none" stroke-width="1" fill="none" fill-rule="evenodd">
        <g id="Product" transform="translate(-929.000000, -44.000000)" fill="#000000" fill-rule="nonzero">
            <path d="M944.05439,57 L938.956869,57 C938.725347,58.1411202 937.716964,59 936.508077,59 C935.29919,59 934.290807,58.1411202 934.059286,57 L930.511014,57 C930.235007,57 930.011259,56.7761424 930.011259,56.5 C930.011259,56.2238576 930.235007,56 930.511014,56 L934.059286,56 C934.290807,54.8588798 935.29919,54 936.508077,54 C937.716964,54 938.725347,54.8588798 938.956869,56 L944.05439,56 C944.285912,54.8588798 945.294295,54 946.503182,54 C947.712069,54 948.720452,54.8588798 948.951974,56 L951.500734,56 C951.776741,56 952.00049,55.7761424 952.00049,55.5 L952.00049,52.9806248 C952.00049,52.828733 951.931478,52.6850765 951.812929,52.5901904 L947.464278,49.1095656 C947.375665,49.0386404 947.265563,49 947.152083,49 L945.893869,49 L945.144236,52 L948.502203,52 C948.77821,52 949.001958,52.2238576 949.001958,52.5 C949.001958,52.7761424 948.77821,53 948.502203,53 L944.504161,53 C944.179035,53 943.940473,52.6943056 944.019327,52.3787322 L945.016302,48.3888791 C945.017905,48.3818127 945.019657,48.3748034 945.021556,48.3678544 L945.707866,45.6212678 C945.717777,45.5816075 945.722788,45.5408809 945.722788,45.5 C945.722788,45.2238576 945.49904,45 945.223033,45 L934.509056,45 C934.233049,45 934.009301,44.7761424 934.009301,44.5 C934.009301,44.2238576 934.233049,44 934.509056,44 L945.223033,44 C946.051054,44 946.722298,44.6715729 946.722298,45.5 C946.722298,45.6226427 946.707265,45.7448225 946.677534,45.8638034 L946.143746,48 L947.152083,48 C947.492524,48 947.822828,48.1159211 948.088667,48.3286968 L952.437318,51.8093216 C952.792967,52.0939799 953,52.5249493 953,52.9806248 L953,55.5 C953,56.3284271 952.328756,57 951.500734,57 L948.951974,57 C948.720452,58.1411202 947.712069,59 946.503182,59 C945.294295,59 944.285912,58.1411202 944.05439,57 Z M931.01077,49 C930.734763,49 930.511014,48.7761424 930.511014,48.5 C930.511014,48.2238576 930.734763,48 931.01077,48 L940.863448,48 C941.139455,48 941.363203,48.2238576 941.363203,48.5 C941.363203,48.7761424 941.139455,49 940.863448,49 L931.01077,49 Z M929.499755,53 C929.223748,53 929,52.7761424 929,52.5 C929,52.2238576 929.223748,52 929.499755,52 L938.007343,52 C938.28335,52 938.507098,52.2238576 938.507098,52.5 C938.507098,52.7761424 938.28335,53 938.007343,53 L929.499755,53 Z M936.508077,58 C937.336099,58 938.007343,57.3284271 938.007343,56.5 C938.007343,55.6715729 937.336099,55 936.508077,55 C935.680056,55 935.008812,55.6715729 935.008812,56.5 C935.008812,57.3284271 935.680056,58 936.508077,58 Z M946.503182,58 C947.331204,58 948.002448,57.3284271 948.002448,56.5 C948.002448,55.6715729 947.331204,55 946.503182,55 C945.67516,55 945.003916,55.6715729 945.003916,56.5 C945.003916,57.3284271 945.67516,58 946.503182,58 Z" id="Shape"></path>
        </g>
    </g>
</svg>