<svg xmlns="http://www.w3.org/2000/svg" width="24" height="24" viewBox="0 0 24 24">
    <path fill="#785EE5" fill-rule="nonzero" d="M23.104 22.346c.378.378.378.989.002 1.366a.978.978 0 0 1-1.386.001l-2.288-2.289A11.911 11.911 0 0 1 12.002 24c-2.724 0-5.318-.903-7.431-2.576l-2.29 2.289a.978.978 0 0 1-1.385 0 .966.966 0 0 1 0-1.367l2.248-2.25A11.915 11.915 0 0 1 0 12c0-2.874 1.005-5.601 2.856-7.772l-.349-.349-.533.534a.982.982 0 0 1-1.385-.001.966.966 0 0 1 0-1.368L3.04.594a.98.98 0 0 1 1.385 0 .966.966 0 0 1 0 1.367l-.541.54.35.35A11.914 11.914 0 0 1 12 0c2.873 0 5.598 1.004 7.768 2.852l.349-.35-.542-.541a.966.966 0 0 1 0-1.368.98.98 0 0 1 1.385 0l2.45 2.451a.966.966 0 0 1 0 1.368.979.979 0 0 1-1.384 0l-.533-.533-.349.35A11.911 11.911 0 0 1 24 12c0 3.023-1.112 5.878-3.144 8.096l2.248 2.25zM1.952 12c0 5.547 4.51 10.059 10.048 10.059 5.539 0 10.048-4.512 10.048-10.059S17.538 1.941 12 1.941C6.461 1.941 1.952 6.453 1.952 12zm15.922-4.515a.98.98 0 0 1 1.337.356l.095.164-.013.026a.968.968 0 0 1-.44 1.134l-6.358 3.673a.694.694 0 0 1-.041.022c-.067.033-.067.033-.073.033a.3.3 0 0 1-.069.023l.023-.004c-.054.02-.054.02-.19.042.041-.004.063-.006.078-.009-.054.013-.06.014-.15.023l.034-.002c-.053.004-.053.004-.107.005h-.009c-.023 0-.023 0-.093-.006l.019.003-.046-.006h.021c-.083-.008-.083-.008-.104-.014-.012-.002-.012-.002-.118-.042l.09.036-.026-.007-.059-.019h-.002l-.055-.022-.015-.006-.035-.017-.021-.01-.02-.012a1.612 1.612 0 0 1-.02-.012c-.036-.02-.039-.023-.056-.034l-.012-.01L6.422 9.28a.967.967 0 0 1-.24-1.346.98.98 0 0 1 1.363-.24l4.506 3.156 5.823-3.364z"/>
</svg>
