<svg xmlns="http://www.w3.org/2000/svg" xmlns:xlink="http://www.w3.org/1999/xlink" width="18" height="18" viewBox="0 0 18 18">
    <defs>
        <path id="a" d="M0 0h18v18H0"/>
    </defs>
    <g fill="none" fill-rule="evenodd">
        <path stroke="#FFF" stroke-linecap="round" stroke-linejoin="round" d="M13.5 2.25v7.5a1.5 1.5 0 0 1-1.5 1.5H6.75l-2.25 3-2.25-3a1.5 1.5 0 0 1-1.5-1.5v-7.5a1.5 1.5 0 0 1 1.5-1.5H12a1.5 1.5 0 0 1 1.5 1.5z"/>
        <path stroke="#FFF" stroke-linecap="round" stroke-linejoin="round" d="M13.5 3.75h2.25a1.5 1.5 0 0 1 1.5 1.5v7.5a1.5 1.5 0 0 1-1.5 1.5l-2.25 3-2.25-3H6c-.446 0-.847-.195-1.122-.504"/>
        <mask id="b" fill="#fff">
            <use xlink:href="#a"/>
        </mask>
        <path fill="#FFF" d="M7.875 6a.75.75 0 1 1-1.5 0 .75.75 0 0 1 1.5 0M4.875 6a.75.75 0 1 1-1.5 0 .75.75 0 0 1 1.5 0M10.875 6a.75.75 0 1 1-1.5 0 .75.75 0 0 1 1.5 0" mask="url(#b)"/>
    </g>
</svg>
