<svg xmlns="http://www.w3.org/2000/svg" width="15" height="16" viewBox="0 0 15 16">
    <g fill="#000" fill-rule="nonzero">
        <path d="M6.176 16a1.773 1.773 0 0 1-1.764-1.778c0-.98.791-1.778 1.764-1.778.974 0 1.765.798 1.765 1.778S7.15 16 6.176 16zm0-2.667c-.486 0-.882.4-.882.89 0 .489.396.888.882.888.487 0 .883-.399.883-.889a.887.887 0 0 0-.883-.889zM12.353 16a1.773 1.773 0 0 1-1.765-1.778c0-.98.792-1.778 1.765-1.778.973 0 1.765.798 1.765 1.778S13.326 16 12.353 16zm0-2.667c-.486 0-.882.4-.882.89 0 .489.396.888.882.888s.882-.399.882-.889a.887.887 0 0 0-.882-.889zM14.593 2.193a1.189 1.189 0 0 0-.917-.415H2.874l-.088-.53C2.671.548 2.03 0 1.324 0H.44C.198 0 0 .2 0 .444 0 .69.198.89.441.89h.883a.64.64 0 0 1 .592.506l1.474 8.913c.116.7.758 1.248 1.463 1.248h8.823c.244 0 .442-.2.442-.445a.443.443 0 0 0-.442-.444H4.853a.64.64 0 0 1-.592-.506l-.218-1.316 8.793-.77c.683-.06 1.308-.641 1.421-1.324l.592-3.58a1.21 1.21 0 0 0-.255-.979zm-.615.833l-.592 3.58c-.047.28-.345.558-.627.583l-8.862.776-.877-5.3h10.656c.103 0 .19.036.243.101a.318.318 0 0 1 .058.259h.001z"/>
    </g>
</svg>
