<svg xmlns="http://www.w3.org/2000/svg" width="18" height="20" viewBox="0 0 18 20">
    <g fill="none" fill-rule="evenodd" stroke="#64D4C7" stroke-linecap="round" stroke-width="1.125">
        <path d="M8.969 1.067c3.682 0 6.979 3.023 6.979 6.608V8.74M8.969 7.232V1.067M9.284 14.162a1.56 1.56 0 0 1-.102-.562M8.97 7.225H3.914a1.5 1.5 0 0 0-1.5 1.5V13.6m13.541 0V8.725M2.406 13.6a1.695 1.695 0 1 0 3.375 0M5.793 13.6a1.695 1.695 0 0 0 3.375 0M12.565 13.514a.664.664 0 0 1 0 .086 1.642 1.642 0 0 1-.315.998 1.687 1.687 0 0 1-2.959-.435M15.947 13.6a1.691 1.691 0 0 1-3.374.09.75.75 0 0 1 0-.09.664.664 0 0 1 0-.086M2.406 11.579h13.541M17.275 16.375c-1.65 1.549-4.65 2.591-8.025 2.591s-6.375-1.042-8.025-2.591M5.793 13.615v4.916M12.569 13.652v4.917"/>
    </g>
</svg>
