<svg xmlns="http://www.w3.org/2000/svg" width="18" height="18" viewBox="0 0 18 18">
    <g fill="#DE5AA5" fill-rule="nonzero">
        <path d="M15.81 8.32H6.08a.573.573 0 0 1 0-1.145h9.729a.573.573 0 0 1 0 1.146z"/>
        <path d="M10.614 12.854H5.946a3.795 3.795 0 0 1-3.788-3.79V7.748c0-.317.257-.573.573-.573h1.235a.573.573 0 0 1 0 1.146h-.662v.744a2.648 2.648 0 0 0 2.643 2.643h4.667a.573.573 0 0 1 0 1.146zM12.68 12.854a.573.573 0 0 1 0-1.146h1.294a2.65 2.65 0 0 0 2.644-2.643V7.747c0-3.319-2.477-6.155-5.76-6.597-.105-.013-.193.005-.247.052-.064.056-.077.143-.077.207v4.485a.573.573 0 1 1-1.146 0V1.409c0-.425.166-.805.469-1.07.307-.268.716-.383 1.154-.324 3.85.518 6.752 3.842 6.752 7.733v1.317a3.796 3.796 0 0 1-3.788 3.79H12.68zM5.021 17.904a1.757 1.757 0 0 1-1.755-1.755.573.573 0 1 1 1.146 0 .61.61 0 1 0 .425-.58.572.572 0 1 1-.348-1.092 1.757 1.757 0 0 1 2.287 1.672c0 .968-.787 1.755-1.755 1.755z"/>
        <path d="M5.857 15.886a.573.573 0 0 1-.405-.978l1.684-1.684a.573.573 0 0 1 .81.81l-1.684 1.684a.572.572 0 0 1-.405.168zM14.482 17.904a1.757 1.757 0 0 1-1.756-1.755 1.757 1.757 0 0 1 2.288-1.672.573.573 0 0 1-.349 1.091.61.61 0 1 0-.184 1.19.61.61 0 0 0 .61-.609.573.573 0 1 1 1.146 0c0 .968-.788 1.755-1.755 1.755zM12.624 14.864a.571.571 0 0 1-.405-.168L4.265 6.742c-.694-.694-1.123-.917-1.767-.917-.612 0-1.326.501-1.55.694a.573.573 0 0 1-.752-.865c.114-.1 1.15-.974 2.302-.974 1.103 0 1.804.479 2.577 1.252l7.954 7.954a.572.572 0 0 1-.405.978zM9.961 8.32a.573.573 0 0 1-.405-.978l4.054-4.054a.572.572 0 1 1 .81.81l-4.054 4.055a.57.57 0 0 1-.405.168z"/>
    </g>
</svg>
