<?xml version="1.0" encoding="UTF-8"?>
<svg width="228px" height="230px" viewBox="0 0 228 230" version="1.1" xmlns="http://www.w3.org/2000/svg" xmlns:xlink="http://www.w3.org/1999/xlink">
    <!-- Generator: Sketch 64 (93537) - https://sketch.com -->
    <title>Group</title>
    <desc>Created with Sketch.</desc>
    <g id="Page-1" stroke="none" stroke-width="1" fill="none" fill-rule="evenodd">
        <g id="Group" transform="translate(0.000000, 0.000000)" fill="#FFFFFF" fill-rule="nonzero">
            <path d="M116,0 C54.219,0 4.137,50.08 4.137,111.861 C4.137,132.993 10.002,152.757 20.188,169.618 L-2.84217094e-14,229.632 L61.932,209.802 C77.957,218.665 96.387,223.716 116,223.716 C177.777,223.716 227.859,173.638 227.859,111.861 C227.859,50.08 177.777,0 116,0 Z M116,205.902 C96.896,205.902 79.109,200.172 64.258,190.349 L28.117,201.923 L39.863,166.997 C28.605,151.493 21.953,132.442 21.953,111.859 C21.953,60.002 64.142,17.814 116,17.814 C167.855,17.814 210.045,60.002 210.045,111.859 C210.045,163.714 167.855,205.902 116,205.902 Z" id="Shape-Copy"></path>
            <path d="M89.764,65.592 C87.952,61.225 86.564,61.077 83.765,60.944 C82.805,60.898 81.764,60.854 80.625,60.854 C77.019,60.854 73.28,61.916 71.027,64.221 C68.285,67.026 61.429,73.596 61.429,87.086 C61.429,100.578 71.255,113.615 72.624,115.445 C73.997,117.273 91.788,145.364 119.468,156.833 C141.073,165.782 147.488,164.985 152.417,163.907 C159.589,162.341 168.595,157.059 170.88,150.659 C173.165,144.255 173.165,138.766 172.48,137.626 C171.794,136.481 169.966,135.798 167.224,134.423 C164.482,133.052 150.999,126.419 148.486,125.506 C145.972,124.592 143.648,124.871 141.715,127.545 C139.047,131.238 136.481,135.033 134.356,137.283 C132.688,139.049 130.004,139.295 127.696,138.314 C124.661,137.021 116.118,134.044 105.643,124.705 C97.493,117.439 91.989,108.463 90.389,105.717 C88.789,102.975 90.248,101.338 91.481,99.846 C92.887,98.143 94.184,96.92 95.555,95.321 C96.926,93.719 97.692,92.866 98.606,91.034 C99.52,89.206 98.905,87.319 98.219,85.946 C97.531,84.572 92.042,71.084 89.764,65.592 Z" id="Path-Copy"></path>
        </g>
    </g>
</svg>