<svg xmlns="http://www.w3.org/2000/svg" width="14" height="18" viewBox="0 0 14 18">
    <g fill="#64D4C7" fill-rule="evenodd">
        <path d="M8.724 17.905H4.162c-1 0-1.814-.814-1.814-1.815v-5.815a.573.573 0 1 1 1.145 0v5.815c0 .369.3.669.669.669h4.562c.369 0 .668-.3.668-.669v-4.33a.573.573 0 1 1 1.145 0l.001 4.33c0 1-.814 1.815-1.814 1.815"/>
        <path d="M9.513 8.966H3.371a.425.425 0 0 0 .002.85h6.14a.425.425 0 0 0 0-.85zm0 1.995H3.373a1.573 1.573 0 0 1-1.57-1.57c0-.866.705-1.57 1.57-1.57h6.141c.866 0 1.57.704 1.57 1.57.001.865-.703 1.57-1.57 1.57z"/>
        <path d="M3.371 8.967a.572.572 0 0 1-.5-.85c.7-1.264 1.893-1.996 3.358-2.063A.573.573 0 1 1 6.281 7.2c-1.052.048-1.908.571-2.408 1.473a.573.573 0 0 1-.502.295"/>
        <path d="M9.514 8.967a.573.573 0 0 1-.502-.296c-.383-.69-.87-1.11-1.536-1.32a.572.572 0 0 1-.401-.546c0-1.896-2.75-2.87-2.778-2.88l-.03-.011c-.918-.377-1.473-1.033-1.808-1.662l-.767 1.87a3.766 3.766 0 0 1 2.445.054c.899.331 1.393.777 1.446.827a.572.572 0 1 1-.782.838c0-.001-.376-.338-1.06-.59-1.49-.55-2.746.482-2.798.527a.575.575 0 0 1-.9-.656L1.999.355A.573.573 0 0 1 3.1.531c.006.067.16 1.721 1.59 2.317.283.102 3.196 1.197 3.504 3.55.767.331 1.365.896 1.82 1.718a.573.573 0 0 1-.5.85"/>
        <path d="M12.86 8.319a.569.569 0 0 1-.186-.031c-3.115-1.064-5.122-3.524-5.73-5.49a.574.574 0 0 1 .283-.676c1.405-.736 2.232-.222 2.522.034.539.474.734 1.292.476 1.989a.573.573 0 0 1-1.074-.398c.092-.25.023-.571-.159-.73-.166-.148-.437-.17-.772-.071.675 1.556 2.367 3.418 4.825 4.257a.573.573 0 0 1-.185 1.116M5.634 12.605H2.921a.573.573 0 0 1 0-1.146h2.713a.573.573 0 1 1 0 1.146M5.634 14.299H2.921a.573.573 0 0 1 0-1.146h2.713a.573.573 0 1 1 0 1.146M5.634 15.993H2.921a.573.573 0 0 1 0-1.146h2.713a.573.573 0 1 1 0 1.146"/>
    </g>
</svg>
