<svg xmlns="http://www.w3.org/2000/svg" width="103" height="18" viewBox="0 0 103 18">
    <g fill="none" fill-rule="evenodd">
        <path fill="#005AF9" d="M91.461 8.055c.04 0 .077.019.1.05l.014.025 1.593 3.736 1.59-3.736a.125.125 0 0 1 .086-.072l.03-.003h1.567a.124.124 0 0 1 .121.15l-.007.024-2.507 5.644v3.473c0 .062-.035.116-.084.134l-.026.007-1.515.19c-.064.008-.12-.04-.134-.11l-.003-.03v-3.664L89.78 8.229a.125.125 0 0 1 .008-.118.125.125 0 0 1 .08-.054l.025-.002h1.568zm-68.735 0c.04 0 .076.019.1.05l.014.025 1.592 3.736 1.591-3.736a.124.124 0 0 1 .086-.072l.029-.003h1.568a.124.124 0 0 1 .121.15l-.008.024-2.506 5.644v3.473c0 .062-.035.116-.085.134l-.026.007-1.514.19c-.064.008-.12-.04-.134-.11l-.003-.03v-3.664l-2.507-5.644a.123.123 0 0 1 .089-.172l.024-.002h1.569zm17.396-.003c2.029 0 3.618 1.602 3.618 3.646 0 .187-.015.375-.043.544a.123.123 0 0 1-.097.1l-.025.003H38.38c.217.774.944 1.32 1.783 1.32.68 0 1.195-.214 1.451-.603a.125.125 0 0 1 .08-.054l.024-.003h1.802c.04 0 .079.02.102.054a.124.124 0 0 1 .014.114c-.485 1.299-1.88 2.172-3.473 2.172-2.052 0-3.66-1.602-3.66-3.647 0-2.044 1.59-3.646 3.619-3.646zm39.52-4.603h.027l1.484.18a.124.124 0 0 1 .107.098l.003.026V15.22c0 .06-.042.11-.1.122l-.024.003h-1.513a.124.124 0 0 1-.122-.1l-.003-.025v-.523a2.973 2.973 0 0 1-1.898.648c-2.148 0-3.536-1.432-3.536-3.647 0-2.214 1.388-3.646 3.536-3.646.728 0 1.416.234 1.898.634a.11.11 0 0 1 .014-.052l.014-.023V3.573c0-.056.037-.102.087-.118l.026-.006zm-8.884 4.706c1.779 0 2.758 1.047 2.758 2.95v4.116a.123.123 0 0 1-.124.123h-1.51a.123.123 0 0 1-.122-.123v-3.787c0-1.11-.423-1.605-1.373-1.605-.867 0-1.385.6-1.385 1.605v3.787a.123.123 0 0 1-.124.123H67.37a.123.123 0 0 1-.123-.123V8.36c0-.069.055-.124.123-.124h1.51c.068 0 .123.055.123.124v.461c.313-.297.878-.667 1.756-.667zm-22.857-.103c.06 0 .11.043.121.1l.003.025v1.458c0 .06-.043.11-.1.122l-.024.002h-.138c-.878 0-1.476.675-1.511 1.58l-.002.084v3.797c0 .06-.043.11-.1.122l-.024.002h-1.514a.124.124 0 0 1-.121-.099l-.003-.025V8.26c0-.061.043-.111.1-.123l.024-.002h1.514c.06 0 .11.042.122.1l.002.024v.384c.41-.407.932-.59 1.65-.59zm14.976.02c2.073 0 3.636 1.564 3.636 3.637 0 2.072-1.563 3.635-3.636 3.635-2.073 0-3.636-1.563-3.636-3.635 0-2.073 1.563-3.636 3.636-3.636zm-12.408.083c.059 0 .109.042.12.098l.003.025v.533a2.365 2.365 0 0 1 1.66-.656c.795 0 1.405.294 1.816.874.467-.467 1.054-.874 2.053-.874 1.52 0 2.338.848 2.372 2.458l.002.108v4.5c0 .06-.043.11-.1.12l-.024.003h-1.509a.123.123 0 0 1-.121-.098l-.003-.025v-4.116c0-.847-.37-1.276-1.097-1.276-.644 0-1.068.467-1.096 1.196l-.002.08v4.116c0 .06-.042.11-.098.12l-.025.003h-1.51a.124.124 0 0 1-.121-.098l-.003-.025v-4.116c0-.582-.19-1.276-1.097-1.276-.643 0-1.067.467-1.096 1.196l-.001.08v4.116c0 .06-.043.11-.099.12l-.024.003h-1.51a.123.123 0 0 1-.121-.098l-.002-.025V8.278c0-.06.042-.11.098-.12l.025-.003h1.51zm35.084-.151c.724 0 1.382.26 1.793.574l.066.053V8.21c0-.059.042-.109.098-.12l.024-.003h1.553c.059 0 .108.043.12.099l.002.024v6.93c0 .058-.04.106-.094.12l-.028.002h-1.553a.123.123 0 0 1-.12-.094l-.002-.028v-.423c-.404.339-1.094.629-1.86.629-2.086 0-3.6-1.544-3.6-3.67 0-2.128 1.514-3.671 3.6-3.671zM30.359 3.546l.003.028v5.038a.123.123 0 0 1 .028.074c.482-.4 1.17-.634 1.898-.634 2.148 0 3.536 1.431 3.536 3.646 0 2.216-1.388 3.646-3.536 3.646a2.98 2.98 0 0 1-1.835-.598l-.063-.05v.524c0 .06-.043.11-.1.122l-.024.002h-1.514a.123.123 0 0 1-.121-.099l-.002-.025V3.753c0-.054.034-.1.083-.118l.026-.006 1.484-.18a.124.124 0 0 1 .137.097zm-12.38 4.621c.44 0 .876.084 1.262.245.267.11 1.177.558 1.66 1.684a.092.092 0 0 1-.026.108l-.02.013-1.412.66a.095.095 0 0 1-.077 0 .091.091 0 0 1-.051-.058 1.524 1.524 0 0 0-.373-.634c-.196-.196-.492-.421-1.042-.421-.446 0-.784.153-1.064.482-.428.496-.463 1.125-.466 1.403v.067c0 .365.062.61.088.699.206.794.759 1.266 1.481 1.266.984 0 1.339-.808 1.478-1.154l.014-.034.018-.047a.09.09 0 0 1 .055-.051.088.088 0 0 1 .05-.004l.025.008 1.346.712c.041.022.06.072.043.116a3.409 3.409 0 0 1-.434.827c-.597.808-1.582 1.29-2.634 1.29-.214 0-.778-.03-1.41-.31-1.802-.827-1.942-2.719-1.942-3.279 0-.865.253-1.652.732-2.273a3.332 3.332 0 0 1 2.699-1.315zm44.898 1.607c-1.09 0-1.852.796-1.852 1.935s.762 1.934 1.852 1.934 1.852-.795 1.852-1.934c0-1.139-.761-1.935-1.852-1.935zM32.22 9.759c-1.093 0-1.857.798-1.857 1.94 0 1.141.764 1.94 1.857 1.94 1.102 0 1.871-.799 1.871-1.94 0-1.142-.77-1.94-1.87-1.94zm45.453 0c-1.102 0-1.871.798-1.871 1.94 0 1.14.77 1.94 1.871 1.94 1.093 0 1.857-.8 1.857-1.94 0-1.142-.764-1.94-1.857-1.94zm7.936-.042c-1.056 0-1.915.878-1.915 1.957 0 1.079.859 1.957 1.915 1.957 1.043 0 1.86-.86 1.86-1.957s-.817-1.957-1.86-1.957zm-45.486-.013c-.687 0-1.33.397-1.617.972l-.034.073h3.302c-.268-.614-.935-1.045-1.651-1.045z"/>
        <path fill="#D30051" d="M100.163 11.676c.205 0 .42.034.647.104.226.069.423.189.59.36l-.708.743a.611.611 0 0 0-.221-.188.646.646 0 0 0-.308-.075c-.27 0-.483.08-.632.242-.15.162-.225.375-.225.636 0 .263.075.475.225.636.15.163.361.243.632.243.12 0 .222-.025.308-.078a.947.947 0 0 0 .221-.186l.708.743a1.374 1.374 0 0 1-.59.362 2.196 2.196 0 0 1-1.4-.026 1.816 1.816 0 0 1-.615-.368 1.715 1.715 0 0 1-.41-.575c-.101-.224-.151-.474-.151-.75 0-.277.05-.527.15-.751a1.728 1.728 0 0 1 1.025-.943c.236-.086.487-.129.754-.129zm-2.976 2.401c.171 0 .318.06.44.183a.598.598 0 0 1 .182.438.6.6 0 0 1-.183.44.597.597 0 0 1-.439.182.597.597 0 0 1-.44-.182.598.598 0 0 1-.181-.44c0-.17.06-.317.182-.438a.597.597 0 0 1 .44-.183zm5.773-4.16v5.403h-1.073V9.918h1.073z"/>
        <path fill="#005AF9" d="M6.03 0a3.371 3.371 0 0 1 3.366 3.268l.001.1v.086h2.363l.302 14.223H0L.3 3.454h2.363v-.087A3.371 3.371 0 0 1 6.03 0zm2.815 5.897a.377.377 0 0 0-.374.333l-.003.044v.564c0 1.351-1.099 2.45-2.45 2.45A2.453 2.453 0 0 1 3.57 6.926l-.002-.088v-.564a.377.377 0 0 0-.751-.044l-.003.044v.564a3.208 3.208 0 0 0 3.204 3.204 3.208 3.208 0 0 0 3.203-3.106l.001-.098v-.564a.377.377 0 0 0-.377-.377zm0-1.06c-.622 0-1.127.506-1.127 1.128a.251.251 0 0 0 .502 0 .625.625 0 0 1 1.25 0 .251.251 0 0 0 .503 0c0-.622-.506-1.128-1.128-1.128zm-5.642 0a1.13 1.13 0 0 0-1.128 1.128.251.251 0 0 0 .503 0 .625.625 0 0 1 1.25 0 .251.251 0 1 0 .502 0c0-.622-.506-1.128-1.127-1.128zM6.03.703a2.667 2.667 0 0 0-2.662 2.573l-.002.091v.087h5.328v-.087A2.667 2.667 0 0 0 6.03.703z"/>
        <path fill="#D30051" d="M12.062 17.677H0l.022-1.039h12.02z"/>
    </g>
</svg>
